<?xml version="1.0" encoding="UTF-8" standalone="no"?>
<!DOCTYPE svg PUBLIC "-//W3C//DTD SVG 1.1//EN"
 "http://www.w3.org/Graphics/SVG/1.1/DTD/svg11.dtd">
<!-- Generated by graphviz version 10.0.1 (20240210.2158)
 -->
<!-- Title: Pompon Pages: 1 -->
<svg width="748pt" height="687pt"
 viewBox="0.00 0.00 748.00 687.00" xmlns="http://www.w3.org/2000/svg" xmlns:xlink="http://www.w3.org/1999/xlink">
<g id="graph0" class="graph" transform="scale(1 1) rotate(0) translate(4 683)">
<title>Pompon</title>
<polygon fill="white" stroke="none" points="-4,4 -4,-683 744,-683 744,4 -4,4"/>
<g id="clust1" class="cluster">
<title>cluster_coord</title>
<polygon fill="none" stroke="black" points="400,-474.5 400,-562.5 578,-562.5 578,-474.5 400,-474.5"/>
</g>
<g id="clust3" class="cluster">
<title>cluster_0</title>
<polygon fill="none" stroke="black" points="8,-350 8,-438 366,-438 366,-350 8,-350"/>
</g>
<g id="clust5" class="cluster">
<title>cluster_1</title>
<polygon fill="none" stroke="black" points="374,-350 374,-438 732,-438 732,-350 374,-350"/>
</g>
<g id="clust7" class="cluster">
<title>cluster_tt</title>
<polygon fill="none" stroke="black" points="259,-101 259,-313.5 465,-313.5 465,-101 259,-101"/>
</g>
<!-- x0 -->
<g id="node1" class="node">
<title>x0</title>
<ellipse fill="lightgrey" stroke="black" cx="443" cy="-643" rx="36" ry="36"/>
<text text-anchor="middle" x="443" y="-637.95" font-family="Times,serif" font-size="14.00">x0</text>
</g>
<!-- q0 -->
<g id="node4" class="node">
<title>q0</title>
<ellipse fill="lightgrey" stroke="black" cx="444" cy="-518.5" rx="36" ry="36"/>
<text text-anchor="middle" x="444" y="-513.45" font-family="Times,serif" font-size="14.00">q0</text>
</g>
<!-- x0&#45;&gt;q0 -->
<g id="edge1" class="edge">
<title>x0&#45;&gt;q0</title>
<path fill="none" stroke="black" d="M440.58,-606.65C440.1,-595.7 439.86,-583.6 440.25,-572.5 440.32,-570.45 440.41,-568.35 440.51,-566.23"/>
<polygon fill="black" stroke="black" points="444,-566.52 441.07,-556.34 437.01,-566.13 444,-566.52"/>
<text text-anchor="middle" x="444.88" y="-575.7" font-family="Times,serif" font-size="14.00">U</text>
</g>
<!-- q1 -->
<g id="node5" class="node">
<title>q1</title>
<ellipse fill="lightgrey" stroke="black" cx="534" cy="-518.5" rx="36" ry="36"/>
<text text-anchor="middle" x="534" y="-513.45" font-family="Times,serif" font-size="14.00">q1</text>
</g>
<!-- x0&#45;&gt;q1 -->
<g id="edge3" class="edge">
<title>x0&#45;&gt;q1</title>
<path fill="none" stroke="black" d="M453.06,-608.23C457.82,-596.06 464.44,-582.8 473.25,-572.5 478.64,-566.2 482.47,-567.61 489,-562.5 492.94,-559.42 496.92,-556.05 500.8,-552.59"/>
<polygon fill="black" stroke="black" points="502.98,-555.34 507.97,-546 498.24,-550.19 502.98,-555.34"/>
<text text-anchor="middle" x="477.88" y="-575.7" font-family="Times,serif" font-size="14.00">U</text>
</g>
<!-- x1 -->
<g id="node2" class="node">
<title>x1</title>
<ellipse fill="lightgrey" stroke="black" cx="535" cy="-643" rx="36" ry="36"/>
<text text-anchor="middle" x="535" y="-637.95" font-family="Times,serif" font-size="14.00">x1</text>
</g>
<!-- x1&#45;&gt;q0 -->
<g id="edge4" class="edge">
<title>x1&#45;&gt;q0</title>
<path fill="none" stroke="black" d="M513.89,-613.59C501.37,-596.74 485.36,-575.17 471.82,-556.94"/>
<polygon fill="black" stroke="black" points="474.67,-554.91 465.89,-548.97 469.05,-559.09 474.67,-554.91"/>
<text text-anchor="middle" x="498.88" y="-575.7" font-family="Times,serif" font-size="14.00">U</text>
</g>
<!-- x1&#45;&gt;q1 -->
<g id="edge2" class="edge">
<title>x1&#45;&gt;q1</title>
<path fill="none" stroke="black" d="M534.71,-606.57C534.61,-594 534.49,-579.65 534.38,-566.28"/>
<polygon fill="black" stroke="black" points="537.88,-566.34 534.3,-556.37 530.88,-566.39 537.88,-566.34"/>
<text text-anchor="middle" x="538.88" y="-575.7" font-family="Times,serif" font-size="14.00">U</text>
</g>
<!-- 1 -->
<g id="node3" class="node">
<title>1</title>
<ellipse fill="lightgrey" stroke="black" cx="299" cy="-518.5" rx="36" ry="36"/>
<text text-anchor="middle" x="299" y="-513.45" font-family="Times,serif" font-size="14.00">1</text>
</g>
<!-- phi_0_1 -->
<g id="node7" class="node">
<title>phi_0_1</title>
<ellipse fill="lightgrey" stroke="black" cx="142" cy="-394" rx="36" ry="36"/>
<text text-anchor="middle" x="142" y="-388.95" font-family="Times,serif" font-size="14.00">φ_0_1</text>
</g>
<!-- 1&#45;&gt;phi_0_1 -->
<g id="edge6" class="edge">
<title>1&#45;&gt;phi_0_1</title>
<path fill="none" stroke="black" d="M269.13,-498.04C246.06,-482.59 213.67,-460.01 187,-438 183.15,-434.82 179.21,-431.38 175.36,-427.89"/>
<polygon fill="black" stroke="black" points="177.93,-425.5 168.22,-421.25 173.16,-430.62 177.93,-425.5"/>
<text text-anchor="middle" x="222.38" y="-451.2" font-family="Times,serif" font-size="14.00">b</text>
</g>
<!-- dot_0_1_18 -->
<g id="node8" class="node">
<title>dot_0_1_18</title>
<ellipse fill="lightgrey" stroke="black" cx="232" cy="-394" rx="36" ry="36"/>
<text text-anchor="middle" x="232" y="-388.95" font-family="Times,serif" font-size="14.00">...</text>
</g>
<!-- 1&#45;&gt;dot_0_1_18 -->
<g id="edge8" class="edge">
<title>1&#45;&gt;dot_0_1_18</title>
<path fill="none" stroke="black" d="M281.92,-486.27C273.57,-471.01 263.42,-452.44 254.45,-436.05"/>
<polygon fill="black" stroke="black" points="257.64,-434.59 249.78,-427.5 251.5,-437.95 257.64,-434.59"/>
<text text-anchor="middle" x="272.38" y="-451.2" font-family="Times,serif" font-size="14.00">b</text>
</g>
<!-- phi_0_19 -->
<g id="node9" class="node">
<title>phi_0_19</title>
<ellipse fill="lightgrey" stroke="black" cx="322" cy="-394" rx="36" ry="36"/>
<text text-anchor="middle" x="322" y="-388.95" font-family="Times,serif" font-size="14.00">φ_0_19</text>
</g>
<!-- 1&#45;&gt;phi_0_19 -->
<g id="edge10" class="edge">
<title>1&#45;&gt;phi_0_19</title>
<path fill="none" stroke="black" d="M287.25,-484.24C284.76,-472.63 283.78,-459.61 287.25,-448 288.82,-442.74 291.1,-437.52 293.75,-432.52"/>
<polygon fill="black" stroke="black" points="296.75,-434.32 298.83,-423.94 290.72,-430.76 296.75,-434.32"/>
<text text-anchor="middle" x="290.38" y="-451.2" font-family="Times,serif" font-size="14.00">b</text>
</g>
<!-- phi_1_1 -->
<g id="node11" class="node">
<title>phi_1_1</title>
<ellipse fill="lightgrey" stroke="black" cx="508" cy="-394" rx="36" ry="36"/>
<text text-anchor="middle" x="508" y="-388.95" font-family="Times,serif" font-size="14.00">φ_1_1</text>
</g>
<!-- 1&#45;&gt;phi_1_1 -->
<g id="edge12" class="edge">
<title>1&#45;&gt;phi_1_1</title>
<path fill="none" stroke="black" d="M300.02,-482.2C302.27,-469.54 307.16,-456.35 317.25,-448 342.26,-427.3 433.3,-451.11 463,-438 467.93,-435.82 472.65,-432.86 477.05,-429.51"/>
<polygon fill="black" stroke="black" points="479.13,-432.33 484.45,-423.17 474.58,-427.01 479.13,-432.33"/>
<text text-anchor="middle" x="320.38" y="-451.2" font-family="Times,serif" font-size="14.00">b</text>
</g>
<!-- dot_1_1_18 -->
<g id="node12" class="node">
<title>dot_1_1_18</title>
<ellipse fill="lightgrey" stroke="black" cx="598" cy="-394" rx="36" ry="36"/>
<text text-anchor="middle" x="598" y="-388.95" font-family="Times,serif" font-size="14.00">...</text>
</g>
<!-- 1&#45;&gt;dot_1_1_18 -->
<g id="edge14" class="edge">
<title>1&#45;&gt;dot_1_1_18</title>
<path fill="none" stroke="black" d="M313.14,-485.29C321.04,-471.31 332.35,-456.26 347.25,-448 387.28,-425.8 510.94,-456.06 553,-438 557.95,-435.87 562.68,-432.94 567.09,-429.6"/>
<polygon fill="black" stroke="black" points="569.16,-432.43 574.5,-423.28 564.62,-427.11 569.16,-432.43"/>
<text text-anchor="middle" x="350.38" y="-451.2" font-family="Times,serif" font-size="14.00">b</text>
</g>
<!-- phi_1_19 -->
<g id="node13" class="node">
<title>phi_1_19</title>
<ellipse fill="lightgrey" stroke="black" cx="688" cy="-394" rx="36" ry="36"/>
<text text-anchor="middle" x="688" y="-388.95" font-family="Times,serif" font-size="14.00">φ_1_19</text>
</g>
<!-- 1&#45;&gt;phi_1_19 -->
<g id="edge16" class="edge">
<title>1&#45;&gt;phi_1_19</title>
<path fill="none" stroke="black" d="M323.86,-492.03C341.87,-474.26 365.11,-452.88 377.25,-448 432.09,-425.97 588.57,-461.02 643,-438 647.96,-435.9 652.7,-432.99 657.11,-429.66"/>
<polygon fill="black" stroke="black" points="659.18,-432.49 664.52,-423.34 654.64,-427.16 659.18,-432.49"/>
<text text-anchor="middle" x="380.38" y="-451.2" font-family="Times,serif" font-size="14.00">b</text>
</g>
<!-- q0&#45;&gt;phi_0_1 -->
<g id="edge5" class="edge">
<title>q0&#45;&gt;phi_0_1</title>
<path fill="none" stroke="black" d="M422.44,-489.14C408.79,-472.07 391.92,-452.75 382,-448 342.87,-429.25 226.85,-455.17 187,-438 182.05,-435.87 177.32,-432.93 172.92,-429.59"/>
<polygon fill="black" stroke="black" points="175.39,-427.1 165.51,-423.27 170.84,-432.42 175.39,-427.1"/>
<text text-anchor="middle" x="404.88" y="-451.2" font-family="Times,serif" font-size="14.00">w</text>
</g>
<!-- q0&#45;&gt;dot_0_1_18 -->
<g id="edge7" class="edge">
<title>q0&#45;&gt;dot_0_1_18</title>
<path fill="none" stroke="black" d="M437.62,-482.94C433.41,-469.91 426.46,-456.25 415,-448 390.05,-430.04 305.11,-450.47 277,-438 272.07,-435.81 267.36,-432.85 262.96,-429.49"/>
<polygon fill="black" stroke="black" points="265.43,-427 255.56,-423.15 260.88,-432.31 265.43,-427"/>
<text text-anchor="middle" x="433.88" y="-451.2" font-family="Times,serif" font-size="14.00">w</text>
</g>
<!-- q0&#45;&gt;phi_0_19 -->
<g id="edge9" class="edge">
<title>q0&#45;&gt;phi_0_19</title>
<path fill="none" stroke="black" d="M455.23,-483.79C457.23,-471.19 456.46,-457.62 448,-448 436.46,-434.88 385.89,-445.27 370,-438 364.67,-435.56 359.51,-432.32 354.67,-428.7"/>
<polygon fill="black" stroke="black" points="356.93,-426.03 346.98,-422.37 352.47,-431.43 356.93,-426.03"/>
<text text-anchor="middle" x="459.88" y="-451.2" font-family="Times,serif" font-size="14.00">w</text>
</g>
<!-- q1&#45;&gt;phi_1_1 -->
<g id="edge11" class="edge">
<title>q1&#45;&gt;phi_1_1</title>
<path fill="none" stroke="black" d="M526.69,-483.05C523.89,-469.87 520.66,-454.63 517.67,-440.57"/>
<polygon fill="black" stroke="black" points="521.16,-440.15 515.66,-431.1 514.31,-441.6 521.16,-440.15"/>
<text text-anchor="middle" x="526.88" y="-451.2" font-family="Times,serif" font-size="14.00">w</text>
</g>
<!-- q1&#45;&gt;dot_1_1_18 -->
<g id="edge13" class="edge">
<title>q1&#45;&gt;dot_1_1_18</title>
<path fill="none" stroke="black" d="M550.48,-485.95C558.39,-470.81 567.98,-452.46 576.46,-436.23"/>
<polygon fill="black" stroke="black" points="579.34,-438.27 580.87,-427.78 573.14,-435.02 579.34,-438.27"/>
<text text-anchor="middle" x="573.88" y="-451.2" font-family="Times,serif" font-size="14.00">w</text>
</g>
<!-- q1&#45;&gt;phi_1_19 -->
<g id="edge15" class="edge">
<title>q1&#45;&gt;phi_1_19</title>
<path fill="none" stroke="black" d="M563.48,-497.59C585.87,-482.09 617.13,-459.64 643,-438 646.83,-434.79 650.75,-431.34 654.6,-427.84"/>
<polygon fill="black" stroke="black" points="656.8,-430.57 661.73,-421.2 652.03,-425.45 656.8,-430.57"/>
<text text-anchor="middle" x="632.88" y="-451.2" font-family="Times,serif" font-size="14.00">w</text>
</g>
<!-- phi_0_0 -->
<g id="node6" class="node">
<title>phi_0_0</title>
<ellipse fill="lightgrey" stroke="black" cx="52" cy="-394" rx="36" ry="36"/>
<text text-anchor="middle" x="52" y="-388.95" font-family="Times,serif" font-size="14.00">1</text>
</g>
<!-- phi_0 -->
<g id="node14" class="node">
<title>phi_0</title>
<ellipse fill="red" stroke="red" cx="308" cy="-269.5" rx="36" ry="36"/>
<text text-anchor="middle" x="308" y="-264.45" font-family="Times,serif" font-size="14.00">φ_0</text>
</g>
<!-- phi_0_19&#45;&gt;phi_0 -->
<g id="edge17" class="edge">
<title>phi_0_19&#45;&gt;phi_0</title>
<path fill="none" stroke="black" stroke-dasharray="5,2" d="M317.09,-350C315.86,-339.24 314.53,-327.66 313.29,-316.75"/>
<polygon fill="black" stroke="black" points="316.8,-316.65 312.18,-307.11 309.84,-317.45 316.8,-316.65"/>
<text text-anchor="middle" x="328.5" y="-326.7" font-family="Times,serif" font-size="14.00">basis</text>
</g>
<!-- phi_1_0 -->
<g id="node10" class="node">
<title>phi_1_0</title>
<ellipse fill="lightgrey" stroke="black" cx="418" cy="-394" rx="36" ry="36"/>
<text text-anchor="middle" x="418" y="-388.95" font-family="Times,serif" font-size="14.00">1</text>
</g>
<!-- phi_1 -->
<g id="node15" class="node">
<title>phi_1</title>
<ellipse fill="red" stroke="red" cx="419" cy="-269.5" rx="36" ry="36"/>
<text text-anchor="middle" x="419" y="-264.45" font-family="Times,serif" font-size="14.00">φ_1</text>
</g>
<!-- phi_1_0&#45;&gt;phi_1 -->
<g id="edge18" class="edge">
<title>phi_1_0&#45;&gt;phi_1</title>
<path fill="none" stroke="black" stroke-dasharray="5,2" d="M418.35,-350C418.44,-339.42 418.53,-328.03 418.62,-317.28"/>
<polygon fill="black" stroke="black" points="422.12,-317.39 418.7,-307.37 415.12,-317.34 422.12,-317.39"/>
<text text-anchor="middle" x="431.5" y="-326.7" font-family="Times,serif" font-size="14.00">basis</text>
</g>
<!-- W0 -->
<g id="node16" class="node">
<title>W0</title>
<ellipse fill="red" stroke="red" cx="303" cy="-145" rx="36" ry="36"/>
<text text-anchor="middle" x="303" y="-139.95" font-family="Times,serif" font-size="14.00">W</text>
</g>
<!-- phi_0&#45;&gt;W0 -->
<g id="edge19" class="edge">
<title>phi_0&#45;&gt;W0</title>
<path fill="none" stroke="black" stroke-width="3" d="M306.55,-233.07C305.89,-216.82 305.11,-197.59 304.44,-181.35"/>
<text text-anchor="middle" x="320.75" y="-202.2" font-family="Times,serif" font-size="14.00">N=20</text>
</g>
<!-- W1 -->
<g id="node17" class="node">
<title>W1</title>
<ellipse fill="red" stroke="red" cx="421" cy="-145" rx="36" ry="36"/>
<text text-anchor="middle" x="421" y="-139.95" font-family="Times,serif" font-size="14.00">W</text>
</g>
<!-- phi_1&#45;&gt;W1 -->
<g id="edge20" class="edge">
<title>phi_1&#45;&gt;W1</title>
<path fill="none" stroke="black" stroke-width="3" d="M419.58,-233.07C419.84,-216.82 420.16,-197.59 420.42,-181.35"/>
<text text-anchor="middle" x="435.75" y="-202.2" font-family="Times,serif" font-size="14.00">N=20</text>
</g>
<!-- W0&#45;&gt;W1 -->
<g id="edge21" class="edge">
<title>W0&#45;&gt;W1</title>
<path fill="none" stroke="black" stroke-width="3" d="M339.37,-145C353.72,-145 370.19,-145 384.55,-145"/>
<text text-anchor="middle" x="362" y="-151.2" font-family="Times,serif" font-size="14.00">M=1</text>
</g>
<!-- y -->
<g id="node18" class="node">
<title>y</title>
<ellipse fill="lightgrey" stroke="black" cx="303" cy="-36" rx="36" ry="36"/>
<text text-anchor="middle" x="303" y="-30.95" font-family="Times,serif" font-size="14.00">y</text>
</g>
<!-- W0&#45;&gt;y -->
<g id="edge22" class="edge">
<title>W0&#45;&gt;y</title>
<path fill="none" stroke="black" d="M303,-101C303,-95.26 303,-89.35 303,-83.55"/>
<polygon fill="black" stroke="black" points="306.5,-83.81 303,-73.81 299.5,-83.81 306.5,-83.81"/>
</g>
</g>
</svg>
