<?xml version="1.0" encoding="UTF-8" standalone="no"?>
<!DOCTYPE svg PUBLIC "-//W3C//DTD SVG 1.1//EN"
 "http://www.w3.org/Graphics/SVG/1.1/DTD/svg11.dtd">
<!-- Generated by graphviz version 10.0.1 (20240210.2158)
 -->
<!-- Title: Pompon Pages: 1 -->
<svg width="1488pt" height="657pt"
 viewBox="0.00 0.00 1488.00 657.48" xmlns="http://www.w3.org/2000/svg" xmlns:xlink="http://www.w3.org/1999/xlink">
<g id="graph0" class="graph" transform="scale(1 1) rotate(0) translate(4 653.48)">
<title>Pompon</title>
<polygon fill="white" stroke="none" points="-4,4 -4,-653.48 1484,-653.48 1484,4 -4,4"/>
<g id="clust3" class="cluster">
<title>cluster_0</title>
<polygon fill="none" stroke="black" points="8,-230.76 8,-502.95 62,-502.95 62,-230.76 8,-230.76"/>
</g>
<g id="clust4" class="cluster">
<title>cluster_1</title>
<polygon fill="none" stroke="black" points="252,-230.76 252,-502.95 306,-502.95 306,-230.76 252,-230.76"/>
</g>
<g id="clust5" class="cluster">
<title>cluster_2</title>
<polygon fill="none" stroke="black" points="572,-230.76 572,-502.95 626,-502.95 626,-230.76 572,-230.76"/>
</g>
<g id="clust6" class="cluster">
<title>cluster_3</title>
<polygon fill="none" stroke="black" points="854,-230.76 854,-502.95 908,-502.95 908,-230.76 854,-230.76"/>
</g>
<g id="clust7" class="cluster">
<title>cluster_4</title>
<polygon fill="none" stroke="black" points="1098,-230.76 1098,-502.95 1152,-502.95 1152,-230.76 1098,-230.76"/>
</g>
<g id="clust8" class="cluster">
<title>cluster_5</title>
<polygon fill="none" stroke="black" points="1418,-230.76 1418,-502.95 1472,-502.95 1472,-230.76 1418,-230.76"/>
</g>
<g id="clust9" class="cluster">
<title>cluster_tt</title>
<polygon fill="none" stroke="black" points="499,-65 499,-209.76 985,-209.76 985,-65 499,-65"/>
</g>
<!-- x0 -->
<g id="node1" class="node">
<title>x0</title>
<ellipse fill="lightgrey" stroke="black" cx="432" cy="-629.35" rx="20.13" ry="20.13"/>
<text text-anchor="middle" x="432" y="-624.3" font-family="Times,serif" font-size="14.00">x0</text>
</g>
<!-- q0 -->
<g id="node2" class="node">
<title>q0</title>
<ellipse fill="lightgrey" stroke="black" cx="182" cy="-552.08" rx="20.13" ry="20.13"/>
<text text-anchor="middle" x="182" y="-547.03" font-family="Times,serif" font-size="14.00">q0</text>
</g>
<!-- x0&#45;&gt;q0 -->
<!-- x0&#45;&gt;q0 -->
<g id="edge54" class="edge">
<title>x0&#45;&gt;q0</title>
<path fill="none" stroke="black" d="M413.04,-621.4C369.85,-607.36 264.71,-575.69 212.38,-560.93"/>
<polygon fill="black" stroke="black" points="213.49,-557.61 202.92,-558.29 211.61,-564.35 213.49,-557.61"/>
</g>
<!-- x1 -->
<g id="node9" class="node">
<title>x1</title>
<ellipse fill="lightgrey" stroke="black" cx="508" cy="-629.35" rx="20.13" ry="20.13"/>
<text text-anchor="middle" x="508" y="-624.3" font-family="Times,serif" font-size="14.00">x1</text>
</g>
<!-- x0&#45;&gt;x1 -->
<!-- q1 -->
<g id="node10" class="node">
<title>q1</title>
<ellipse fill="lightgrey" stroke="black" cx="333" cy="-552.08" rx="20.13" ry="20.13"/>
<text text-anchor="middle" x="333" y="-547.03" font-family="Times,serif" font-size="14.00">q1</text>
</g>
<!-- x0&#45;&gt;q1 -->
<g id="edge55" class="edge">
<title>x0&#45;&gt;q1</title>
<path fill="none" stroke="black" d="M416.09,-616.25C400.36,-604.29 376.06,-585.82 357.79,-571.93"/>
<polygon fill="black" stroke="black" points="360.15,-569.33 350.07,-566.06 355.91,-574.9 360.15,-569.33"/>
</g>
<!-- q2 -->
<g id="node18" class="node">
<title>q2</title>
<ellipse fill="lightgrey" stroke="black" cx="526" cy="-552.08" rx="20.13" ry="20.13"/>
<text text-anchor="middle" x="526" y="-547.03" font-family="Times,serif" font-size="14.00">q2</text>
</g>
<!-- x0&#45;&gt;q2 -->
<g id="edge56" class="edge">
<title>x0&#45;&gt;q2</title>
<path fill="none" stroke="black" d="M447.52,-615.92C462.22,-604.15 484.51,-586.3 501.59,-572.63"/>
<polygon fill="black" stroke="black" points="503.65,-575.46 509.27,-566.48 499.28,-570 503.65,-575.46"/>
</g>
<!-- q3 -->
<g id="node26" class="node">
<title>q3</title>
<ellipse fill="lightgrey" stroke="black" cx="753" cy="-552.08" rx="20.13" ry="20.13"/>
<text text-anchor="middle" x="753" y="-547.03" font-family="Times,serif" font-size="14.00">q3</text>
</g>
<!-- x0&#45;&gt;q3 -->
<g id="edge57" class="edge">
<title>x0&#45;&gt;q3</title>
<path fill="none" stroke="black" d="M451.6,-623.75C505.55,-611.1 656.58,-575.69 722.06,-560.34"/>
<polygon fill="black" stroke="black" points="722.84,-563.75 731.78,-558.06 721.24,-556.94 722.84,-563.75"/>
</g>
<!-- q4 -->
<g id="node34" class="node">
<title>q4</title>
<ellipse fill="lightgrey" stroke="black" cx="912" cy="-552.08" rx="20.13" ry="20.13"/>
<text text-anchor="middle" x="912" y="-547.03" font-family="Times,serif" font-size="14.00">q4</text>
</g>
<!-- x0&#45;&gt;q4 -->
<g id="edge58" class="edge">
<title>x0&#45;&gt;q4</title>
<path fill="none" stroke="black" d="M452.01,-625.21C526.73,-613.49 789.69,-572.26 880.71,-557.99"/>
<polygon fill="black" stroke="black" points="881.07,-561.48 890.41,-556.47 879.98,-554.56 881.07,-561.48"/>
</g>
<!-- q5 -->
<g id="node42" class="node">
<title>q5</title>
<ellipse fill="lightgrey" stroke="black" cx="1018" cy="-552.08" rx="20.13" ry="20.13"/>
<text text-anchor="middle" x="1018" y="-547.03" font-family="Times,serif" font-size="14.00">q5</text>
</g>
<!-- x0&#45;&gt;q5 -->
<g id="edge59" class="edge">
<title>x0&#45;&gt;q5</title>
<path fill="none" stroke="black" d="M452.17,-625.76C538.99,-614.61 881.17,-570.66 986.78,-557.09"/>
<polygon fill="black" stroke="black" points="986.94,-560.6 996.41,-555.86 986.05,-553.66 986.94,-560.6"/>
</g>
<!-- phi_0_0 -->
<g id="node3" class="node">
<title>phi_0_0</title>
<ellipse fill="lightgrey" stroke="black" cx="34" cy="-476.95" rx="18" ry="18"/>
<text text-anchor="middle" x="34" y="-471.9" font-family="Times,serif" font-size="14.00">1</text>
</g>
<!-- q0&#45;&gt;phi_0_0 -->
<!-- phi_0_1 -->
<g id="node4" class="node">
<title>phi_0_1</title>
<ellipse fill="lightgrey" stroke="black" cx="34" cy="-403.95" rx="18" ry="18"/>
<text text-anchor="middle" x="34" y="-398.9" font-family="Times,serif" font-size="14.00">φ</text>
</g>
<!-- q0&#45;&gt;phi_0_1 -->
<g id="edge90" class="edge">
<title>q0&#45;&gt;phi_0_1</title>
<path fill="none" stroke="black" d="M167.54,-537.61C141.21,-511.26 85.37,-455.36 54.9,-424.87"/>
<polygon fill="black" stroke="black" points="57.64,-422.66 48.09,-418.06 52.68,-427.61 57.64,-422.66"/>
</g>
<!-- dot_0_1_18 -->
<g id="node5" class="node">
<title>dot_0_1_18</title>
<ellipse fill="lightgrey" stroke="black" cx="35" cy="-330.36" rx="18.6" ry="18.6"/>
<text text-anchor="middle" x="35" y="-325.31" font-family="Times,serif" font-size="14.00">...</text>
</g>
<!-- q0&#45;&gt;dot_0_1_18 -->
<g id="edge92" class="edge">
<title>q0&#45;&gt;dot_0_1_18</title>
<path fill="none" stroke="black" d="M170.71,-535.05C145.02,-496.31 82.09,-401.39 51.81,-355.72"/>
<polygon fill="black" stroke="black" points="54.81,-353.91 46.37,-347.51 48.98,-357.78 54.81,-353.91"/>
</g>
<!-- phi_0_19 -->
<g id="node6" class="node">
<title>phi_0_19</title>
<ellipse fill="lightgrey" stroke="black" cx="36" cy="-256.76" rx="18" ry="18"/>
<text text-anchor="middle" x="36" y="-251.71" font-family="Times,serif" font-size="14.00">φ</text>
</g>
<!-- q0&#45;&gt;phi_0_19 -->
<g id="edge94" class="edge">
<title>q0&#45;&gt;phi_0_19</title>
<path fill="none" stroke="black" d="M172.87,-533.61C147.83,-482.97 78.04,-341.81 48.97,-283"/>
<polygon fill="black" stroke="black" points="52.28,-281.79 44.71,-274.37 46,-284.89 52.28,-281.79"/>
</g>
<!-- q0&#45;&gt;q1 -->
<!-- phi_0_0&#45;&gt;phi_0_1 -->
<!-- phi_0_1&#45;&gt;dot_0_1_18 -->
<!-- dot_0_1_18&#45;&gt;phi_0_19 -->
<!-- phi_0 -->
<g id="node7" class="node">
<title>phi_0</title>
<ellipse fill="red" stroke="red" cx="525" cy="-183.76" rx="18" ry="18"/>
<text text-anchor="middle" x="525" y="-178.71" font-family="Times,serif" font-size="14.00">ϕ</text>
</g>
<!-- phi_0_19&#45;&gt;phi_0 -->
<!-- phi_0_19&#45;&gt;phi_0 -->
<g id="edge136" class="edge">
<title>phi_0_19&#45;&gt;phi_0</title>
<path fill="none" stroke="black" stroke-dasharray="5,2" d="M62,-252.43C145.84,-240.95 407.81,-202.93 495.9,-189.51"/>
<polygon fill="black" stroke="black" points="496.16,-193.01 505.51,-188.03 495.1,-186.09 496.16,-193.01"/>
</g>
<!-- W0 -->
<g id="node8" class="node">
<title>W0</title>
<ellipse fill="red" stroke="red" cx="527" cy="-93.13" rx="20.13" ry="20.13"/>
<text text-anchor="middle" x="527" y="-88.08" font-family="Times,serif" font-size="14.00">W</text>
</g>
<!-- phi_0&#45;&gt;W0 -->
<!-- phi_0&#45;&gt;W0 -->
<g id="edge142" class="edge">
<title>phi_0&#45;&gt;W0</title>
<path fill="none" stroke="black" stroke-width="3" d="M525.39,-165.67C525.72,-150.78 526.21,-129.2 526.56,-113.64"/>
<text text-anchor="middle" x="541.75" y="-134.46" font-family="Times,serif" font-size="14.00">N=20</text>
</g>
<!-- phi_1 -->
<g id="node15" class="node">
<title>phi_1</title>
<ellipse fill="red" stroke="red" cx="597" cy="-183.76" rx="18" ry="18"/>
<text text-anchor="middle" x="597" y="-178.71" font-family="Times,serif" font-size="14.00">ϕ</text>
</g>
<!-- phi_0&#45;&gt;phi_1 -->
<!-- W1 -->
<g id="node16" class="node">
<title>W1</title>
<ellipse fill="red" stroke="red" cx="613" cy="-93.13" rx="20.13" ry="20.13"/>
<text text-anchor="middle" x="613" y="-88.08" font-family="Times,serif" font-size="14.00">W</text>
</g>
<!-- W0&#45;&gt;W1 -->
<!-- W0&#45;&gt;W1 -->
<g id="edge148" class="edge">
<title>W0&#45;&gt;W1</title>
<path fill="none" stroke="black" stroke-width="3" d="M547.38,-93.13C560.99,-93.13 578.83,-93.13 592.47,-93.13"/>
<text text-anchor="middle" x="570" y="-99.33" font-family="Times,serif" font-size="14.00">M=1</text>
</g>
<!-- y -->
<g id="node50" class="node">
<title>y</title>
<ellipse fill="lightgrey" stroke="black" cx="527" cy="-18" rx="18" ry="18"/>
<text text-anchor="middle" x="527" y="-12.95" font-family="Times,serif" font-size="14.00">y</text>
</g>
<!-- W0&#45;&gt;y -->
<g id="edge153" class="edge">
<title>W0&#45;&gt;y</title>
<path fill="none" stroke="black" d="M527,-65C527,-59.27 527,-53.21 527,-47.43"/>
<polygon fill="black" stroke="black" points="530.5,-47.67 527,-37.67 523.5,-47.67 530.5,-47.67"/>
</g>
<!-- x1&#45;&gt;q0 -->
<g id="edge60" class="edge">
<title>x1&#45;&gt;q0</title>
<path fill="none" stroke="black" d="M488.58,-623.86C434.01,-611.27 278.96,-575.47 212.67,-560.16"/>
<polygon fill="black" stroke="black" points="213.73,-556.82 203.2,-557.98 212.16,-563.64 213.73,-556.82"/>
</g>
<!-- x1&#45;&gt;q1 -->
<!-- x1&#45;&gt;q1 -->
<g id="edge61" class="edge">
<title>x1&#45;&gt;q1</title>
<path fill="none" stroke="black" d="M490.51,-618.81C460.45,-604.73 399.38,-578.43 362.63,-563.73"/>
<polygon fill="black" stroke="black" points="364.06,-560.53 353.48,-560.12 361.5,-567.05 364.06,-560.53"/>
</g>
<!-- x2 -->
<g id="node17" class="node">
<title>x2</title>
<ellipse fill="lightgrey" stroke="black" cx="584" cy="-629.35" rx="20.13" ry="20.13"/>
<text text-anchor="middle" x="584" y="-624.3" font-family="Times,serif" font-size="14.00">x2</text>
</g>
<!-- x1&#45;&gt;x2 -->
<!-- x1&#45;&gt;q2 -->
<g id="edge62" class="edge">
<title>x1&#45;&gt;q2</title>
<path fill="none" stroke="black" d="M512.54,-609.36C514.44,-601.42 516.69,-592.01 518.8,-583.18"/>
<polygon fill="black" stroke="black" points="522.19,-584.08 521.11,-573.54 515.38,-582.45 522.19,-584.08"/>
</g>
<!-- x1&#45;&gt;q3 -->
<g id="edge63" class="edge">
<title>x1&#45;&gt;q3</title>
<path fill="none" stroke="black" d="M527.22,-622.44C569.71,-609.39 671.88,-578 722.92,-562.33"/>
<polygon fill="black" stroke="black" points="723.89,-565.69 732.42,-559.41 721.83,-559 723.89,-565.69"/>
</g>
<!-- x1&#45;&gt;q4 -->
<g id="edge64" class="edge">
<title>x1&#45;&gt;q4</title>
<path fill="none" stroke="black" d="M528.03,-624.61C593.61,-612.4 802.14,-573.55 881.21,-558.82"/>
<polygon fill="black" stroke="black" points="881.64,-562.3 890.83,-557.03 880.36,-555.42 881.64,-562.3"/>
</g>
<!-- x1&#45;&gt;q5 -->
<g id="edge65" class="edge">
<title>x1&#45;&gt;q5</title>
<path fill="none" stroke="black" d="M527.99,-625.4C606.14,-613.86 891.35,-571.78 986.71,-557.7"/>
<polygon fill="black" stroke="black" points="986.99,-561.2 996.37,-556.28 985.97,-554.27 986.99,-561.2"/>
</g>
<!-- phi_1_0 -->
<g id="node11" class="node">
<title>phi_1_0</title>
<ellipse fill="lightgrey" stroke="black" cx="278" cy="-476.95" rx="18" ry="18"/>
<text text-anchor="middle" x="278" y="-471.9" font-family="Times,serif" font-size="14.00">1</text>
</g>
<!-- q1&#45;&gt;phi_1_0 -->
<!-- phi_1_1 -->
<g id="node12" class="node">
<title>phi_1_1</title>
<ellipse fill="lightgrey" stroke="black" cx="280" cy="-403.95" rx="18" ry="18"/>
<text text-anchor="middle" x="280" y="-398.9" font-family="Times,serif" font-size="14.00">φ</text>
</g>
<!-- q1&#45;&gt;phi_1_1 -->
<g id="edge96" class="edge">
<title>q1&#45;&gt;phi_1_1</title>
<path fill="none" stroke="black" d="M326.07,-532.72C316.86,-506.96 300.51,-461.27 289.97,-431.82"/>
<polygon fill="black" stroke="black" points="293.28,-430.69 286.62,-422.45 286.69,-433.05 293.28,-430.69"/>
</g>
<!-- dot_1_1_18 -->
<g id="node13" class="node">
<title>dot_1_1_18</title>
<ellipse fill="lightgrey" stroke="black" cx="279" cy="-330.36" rx="18.6" ry="18.6"/>
<text text-anchor="middle" x="279" y="-325.31" font-family="Times,serif" font-size="14.00">...</text>
</g>
<!-- q1&#45;&gt;dot_1_1_18 -->
<g id="edge98" class="edge">
<title>q1&#45;&gt;dot_1_1_18</title>
<path fill="none" stroke="black" d="M328.21,-532.41C318.69,-493.31 297.34,-405.67 286.15,-359.73"/>
<polygon fill="black" stroke="black" points="289.6,-359.1 283.83,-350.21 282.8,-360.75 289.6,-359.1"/>
</g>
<!-- phi_1_19 -->
<g id="node14" class="node">
<title>phi_1_19</title>
<ellipse fill="lightgrey" stroke="black" cx="280" cy="-256.76" rx="18" ry="18"/>
<text text-anchor="middle" x="280" y="-251.71" font-family="Times,serif" font-size="14.00">φ</text>
</g>
<!-- q1&#45;&gt;phi_1_19 -->
<g id="edge100" class="edge">
<title>q1&#45;&gt;phi_1_19</title>
<path fill="none" stroke="black" d="M329.36,-531.79C320.17,-480.58 296.01,-345.99 285.28,-286.16"/>
<polygon fill="black" stroke="black" points="288.74,-285.62 283.52,-276.4 281.85,-286.86 288.74,-285.62"/>
</g>
<!-- q1&#45;&gt;q2 -->
<!-- phi_1_0&#45;&gt;phi_1_1 -->
<!-- phi_1_1&#45;&gt;dot_1_1_18 -->
<!-- dot_1_1_18&#45;&gt;phi_1_19 -->
<!-- phi_1_19&#45;&gt;phi_1 -->
<!-- phi_1_19&#45;&gt;phi_1 -->
<g id="edge137" class="edge">
<title>phi_1_19&#45;&gt;phi_1</title>
<path fill="none" stroke="black" stroke-dasharray="5,2" d="M306,-250.76C365.03,-238.41 508.02,-206.43 568.94,-192.01"/>
<polygon fill="black" stroke="black" points="569.39,-195.5 578.31,-189.77 567.77,-188.69 569.39,-195.5"/>
</g>
<!-- phi_1&#45;&gt;W1 -->
<!-- phi_1&#45;&gt;W1 -->
<g id="edge143" class="edge">
<title>phi_1&#45;&gt;W1</title>
<path fill="none" stroke="black" stroke-width="3" d="M600.08,-165.67C602.79,-150.68 606.72,-128.91 609.54,-113.32"/>
<text text-anchor="middle" x="620.75" y="-134.46" font-family="Times,serif" font-size="14.00">N=20</text>
</g>
<!-- phi_2 -->
<g id="node23" class="node">
<title>phi_2</title>
<ellipse fill="red" stroke="red" cx="670" cy="-183.76" rx="18" ry="18"/>
<text text-anchor="middle" x="670" y="-178.71" font-family="Times,serif" font-size="14.00">ϕ</text>
</g>
<!-- phi_1&#45;&gt;phi_2 -->
<!-- W2 -->
<g id="node24" class="node">
<title>W2</title>
<ellipse fill="red" stroke="red" cx="699" cy="-93.13" rx="20.13" ry="20.13"/>
<text text-anchor="middle" x="699" y="-88.08" font-family="Times,serif" font-size="14.00">W</text>
</g>
<!-- W1&#45;&gt;W2 -->
<!-- W1&#45;&gt;W2 -->
<g id="edge149" class="edge">
<title>W1&#45;&gt;W2</title>
<path fill="none" stroke="black" stroke-width="3" d="M633.38,-93.13C646.99,-93.13 664.83,-93.13 678.47,-93.13"/>
<text text-anchor="middle" x="656" y="-99.33" font-family="Times,serif" font-size="14.00">M=1</text>
</g>
<!-- x2&#45;&gt;q0 -->
<g id="edge66" class="edge">
<title>x2&#45;&gt;q0</title>
<path fill="none" stroke="black" d="M564.06,-624.61C498.97,-612.43 292.27,-573.73 213.19,-558.92"/>
<polygon fill="black" stroke="black" points="214.02,-555.52 203.54,-557.12 212.73,-562.4 214.02,-555.52"/>
</g>
<!-- x2&#45;&gt;q1 -->
<g id="edge67" class="edge">
<title>x2&#45;&gt;q1</title>
<path fill="none" stroke="black" d="M564.72,-622.57C521.28,-609.54 415.49,-577.82 363.23,-562.15"/>
<polygon fill="black" stroke="black" points="364.38,-558.84 353.79,-559.32 362.37,-565.54 364.38,-558.84"/>
</g>
<!-- x2&#45;&gt;q2 -->
<!-- x2&#45;&gt;q2 -->
<g id="edge68" class="edge">
<title>x2&#45;&gt;q2</title>
<path fill="none" stroke="black" d="M576.09,-610.51C568.84,-599.67 558.23,-585.77 548.54,-574.36"/>
<polygon fill="black" stroke="black" points="551.29,-572.18 542.05,-566.99 546.03,-576.8 551.29,-572.18"/>
</g>
<!-- x3 -->
<g id="node25" class="node">
<title>x3</title>
<ellipse fill="lightgrey" stroke="black" cx="698" cy="-629.35" rx="20.13" ry="20.13"/>
<text text-anchor="middle" x="698" y="-624.3" font-family="Times,serif" font-size="14.00">x3</text>
</g>
<!-- x2&#45;&gt;x3 -->
<!-- x2&#45;&gt;q3 -->
<g id="edge69" class="edge">
<title>x2&#45;&gt;q3</title>
<path fill="none" stroke="black" d="M602.41,-620.15C631.74,-607.09 689.33,-581.44 724.17,-565.93"/>
<polygon fill="black" stroke="black" points="725.52,-569.15 733.23,-561.89 722.67,-562.76 725.52,-569.15"/>
</g>
<!-- x2&#45;&gt;q4 -->
<g id="edge70" class="edge">
<title>x2&#45;&gt;q4</title>
<path fill="none" stroke="black" d="M603.54,-623.86C658.44,-611.27 814.45,-575.47 881.15,-560.16"/>
<polygon fill="black" stroke="black" points="881.71,-563.63 890.68,-557.98 880.15,-556.8 881.71,-563.63"/>
</g>
<!-- x2&#45;&gt;q5 -->
<g id="edge71" class="edge">
<title>x2&#45;&gt;q5</title>
<path fill="none" stroke="black" d="M604.06,-624.87C673.26,-612.87 902.32,-573.14 986.56,-558.54"/>
<polygon fill="black" stroke="black" points="987.15,-561.99 996.41,-556.83 985.96,-555.09 987.15,-561.99"/>
</g>
<!-- phi_2_0 -->
<g id="node19" class="node">
<title>phi_2_0</title>
<ellipse fill="lightgrey" stroke="black" cx="598" cy="-476.95" rx="18" ry="18"/>
<text text-anchor="middle" x="598" y="-471.9" font-family="Times,serif" font-size="14.00">1</text>
</g>
<!-- q2&#45;&gt;phi_2_0 -->
<!-- phi_2_1 -->
<g id="node20" class="node">
<title>phi_2_1</title>
<ellipse fill="lightgrey" stroke="black" cx="600" cy="-403.95" rx="18" ry="18"/>
<text text-anchor="middle" x="600" y="-398.9" font-family="Times,serif" font-size="14.00">φ</text>
</g>
<!-- q2&#45;&gt;phi_2_1 -->
<g id="edge102" class="edge">
<title>q2&#45;&gt;phi_2_1</title>
<path fill="none" stroke="black" d="M535.07,-533.92C548,-508.05 571.79,-460.42 586.71,-430.57"/>
<polygon fill="black" stroke="black" points="589.75,-432.31 591.09,-421.8 583.49,-429.18 589.75,-432.31"/>
</g>
<!-- dot_2_1_18 -->
<g id="node21" class="node">
<title>dot_2_1_18</title>
<ellipse fill="lightgrey" stroke="black" cx="599" cy="-330.36" rx="18.6" ry="18.6"/>
<text text-anchor="middle" x="599" y="-325.31" font-family="Times,serif" font-size="14.00">...</text>
</g>
<!-- q2&#45;&gt;dot_2_1_18 -->
<g id="edge104" class="edge">
<title>q2&#45;&gt;dot_2_1_18</title>
<path fill="none" stroke="black" d="M532.35,-532.8C545.24,-493.65 574.51,-404.73 589.61,-358.88"/>
<polygon fill="black" stroke="black" points="592.85,-360.23 592.65,-349.64 586.2,-358.04 592.85,-360.23"/>
</g>
<!-- phi_2_19 -->
<g id="node22" class="node">
<title>phi_2_19</title>
<ellipse fill="lightgrey" stroke="black" cx="600" cy="-256.76" rx="18" ry="18"/>
<text text-anchor="middle" x="600" y="-251.71" font-family="Times,serif" font-size="14.00">φ</text>
</g>
<!-- q2&#45;&gt;phi_2_19 -->
<g id="edge106" class="edge">
<title>q2&#45;&gt;phi_2_19</title>
<path fill="none" stroke="black" d="M530.97,-532.25C543.76,-481.21 577.85,-345.15 592.8,-285.48"/>
<polygon fill="black" stroke="black" points="596.12,-286.64 595.16,-276.08 589.33,-284.93 596.12,-286.64"/>
</g>
<!-- q2&#45;&gt;q3 -->
<!-- phi_2_0&#45;&gt;phi_2_1 -->
<!-- phi_2_1&#45;&gt;dot_2_1_18 -->
<!-- dot_2_1_18&#45;&gt;phi_2_19 -->
<!-- phi_2_19&#45;&gt;phi_2 -->
<!-- phi_2_19&#45;&gt;phi_2 -->
<g id="edge138" class="edge">
<title>phi_2_19&#45;&gt;phi_2</title>
<path fill="none" stroke="black" stroke-dasharray="5,2" d="M626,-235.64C635.15,-227.07 645.12,-217.03 653.34,-208.14"/>
<polygon fill="black" stroke="black" points="655.78,-210.66 659.84,-200.88 650.56,-205.99 655.78,-210.66"/>
</g>
<!-- phi_2&#45;&gt;W2 -->
<!-- phi_2&#45;&gt;W2 -->
<g id="edge144" class="edge">
<title>phi_2&#45;&gt;W2</title>
<path fill="none" stroke="black" stroke-width="3" d="M675.45,-166.09C680.44,-150.85 687.81,-128.34 692.97,-112.56"/>
<text text-anchor="middle" x="701.75" y="-134.46" font-family="Times,serif" font-size="14.00">N=20</text>
</g>
<!-- phi_3 -->
<g id="node31" class="node">
<title>phi_3</title>
<ellipse fill="red" stroke="red" cx="810" cy="-183.76" rx="18" ry="18"/>
<text text-anchor="middle" x="810" y="-178.71" font-family="Times,serif" font-size="14.00">ϕ</text>
</g>
<!-- phi_2&#45;&gt;phi_3 -->
<!-- W3 -->
<g id="node32" class="node">
<title>W3</title>
<ellipse fill="red" stroke="red" cx="785" cy="-93.13" rx="20.13" ry="20.13"/>
<text text-anchor="middle" x="785" y="-88.08" font-family="Times,serif" font-size="14.00">W</text>
</g>
<!-- W2&#45;&gt;W3 -->
<!-- W2&#45;&gt;W3 -->
<g id="edge150" class="edge">
<title>W2&#45;&gt;W3</title>
<path fill="none" stroke="black" stroke-width="3" d="M719.38,-93.13C732.99,-93.13 750.83,-93.13 764.47,-93.13"/>
<text text-anchor="middle" x="742" y="-99.33" font-family="Times,serif" font-size="14.00">M=1</text>
</g>
<!-- x3&#45;&gt;q0 -->
<g id="edge72" class="edge">
<title>x3&#45;&gt;q0</title>
<path fill="none" stroke="black" d="M677.77,-625.4C598.61,-613.85 309.49,-571.68 213.34,-557.66"/>
<polygon fill="black" stroke="black" points="213.99,-554.21 203.59,-556.23 212.98,-561.14 213.99,-554.21"/>
</g>
<!-- x3&#45;&gt;q1 -->
<g id="edge73" class="edge">
<title>x3&#45;&gt;q1</title>
<path fill="none" stroke="black" d="M678.12,-624.25C617.8,-611.81 436.61,-574.45 363.79,-559.43"/>
<polygon fill="black" stroke="black" points="364.66,-556.04 354.16,-557.45 363.25,-562.9 364.66,-556.04"/>
</g>
<!-- x3&#45;&gt;q2 -->
<g id="edge74" class="edge">
<title>x3&#45;&gt;q2</title>
<path fill="none" stroke="black" d="M679.59,-620.29C649.59,-607.16 589.94,-581.06 554.45,-565.54"/>
<polygon fill="black" stroke="black" points="556.23,-562.49 545.66,-561.69 553.42,-568.9 556.23,-562.49"/>
</g>
<!-- x3&#45;&gt;q3 -->
<!-- x3&#45;&gt;q3 -->
<g id="edge75" class="edge">
<title>x3&#45;&gt;q3</title>
<path fill="none" stroke="black" d="M712.85,-615.24C721.19,-605.7 731.31,-592.43 739.42,-580.6"/>
<polygon fill="black" stroke="black" points="742.26,-582.65 744.85,-572.38 736.42,-578.8 742.26,-582.65"/>
</g>
<!-- x4 -->
<g id="node33" class="node">
<title>x4</title>
<ellipse fill="lightgrey" stroke="black" cx="774" cy="-629.35" rx="20.13" ry="20.13"/>
<text text-anchor="middle" x="774" y="-624.3" font-family="Times,serif" font-size="14.00">x4</text>
</g>
<!-- x3&#45;&gt;x4 -->
<!-- x3&#45;&gt;q4 -->
<g id="edge76" class="edge">
<title>x3&#45;&gt;q4</title>
<path fill="none" stroke="black" d="M716.99,-621.67C754.35,-608.53 837.63,-579.24 882.32,-563.52"/>
<polygon fill="black" stroke="black" points="883.35,-566.87 891.62,-560.25 881.03,-560.27 883.35,-566.87"/>
</g>
<!-- x3&#45;&gt;q5 -->
<g id="edge77" class="edge">
<title>x3&#45;&gt;q5</title>
<path fill="none" stroke="black" d="M717.54,-623.75C771.32,-611.1 921.88,-575.69 987.16,-560.34"/>
<polygon fill="black" stroke="black" points="987.91,-563.76 996.84,-558.06 986.3,-556.94 987.91,-563.76"/>
</g>
<!-- phi_3_0 -->
<g id="node27" class="node">
<title>phi_3_0</title>
<ellipse fill="lightgrey" stroke="black" cx="880" cy="-476.95" rx="18" ry="18"/>
<text text-anchor="middle" x="880" y="-471.9" font-family="Times,serif" font-size="14.00">1</text>
</g>
<!-- q3&#45;&gt;phi_3_0 -->
<!-- phi_3_1 -->
<g id="node28" class="node">
<title>phi_3_1</title>
<ellipse fill="lightgrey" stroke="black" cx="880" cy="-403.95" rx="18" ry="18"/>
<text text-anchor="middle" x="880" y="-398.9" font-family="Times,serif" font-size="14.00">φ</text>
</g>
<!-- q3&#45;&gt;phi_3_1 -->
<g id="edge108" class="edge">
<title>q3&#45;&gt;phi_3_1</title>
<path fill="none" stroke="black" d="M766.35,-536.51C788.98,-510.12 834.92,-456.54 860.93,-426.2"/>
<polygon fill="black" stroke="black" points="863.47,-428.61 867.33,-418.74 858.16,-424.05 863.47,-428.61"/>
</g>
<!-- dot_3_1_18 -->
<g id="node29" class="node">
<title>dot_3_1_18</title>
<ellipse fill="lightgrey" stroke="black" cx="881" cy="-330.36" rx="18.6" ry="18.6"/>
<text text-anchor="middle" x="881" y="-325.31" font-family="Times,serif" font-size="14.00">...</text>
</g>
<!-- q3&#45;&gt;dot_3_1_18 -->
<g id="edge110" class="edge">
<title>q3&#45;&gt;dot_3_1_18</title>
<path fill="none" stroke="black" d="M763.26,-534.31C785.77,-495.32 839.58,-402.11 865.94,-356.45"/>
<polygon fill="black" stroke="black" points="868.84,-358.42 870.81,-348.01 862.78,-354.92 868.84,-358.42"/>
</g>
<!-- phi_3_19 -->
<g id="node30" class="node">
<title>phi_3_19</title>
<ellipse fill="lightgrey" stroke="black" cx="880" cy="-256.76" rx="18" ry="18"/>
<text text-anchor="middle" x="880" y="-251.71" font-family="Times,serif" font-size="14.00">φ</text>
</g>
<!-- q3&#45;&gt;phi_3_19 -->
<g id="edge112" class="edge">
<title>q3&#45;&gt;phi_3_19</title>
<path fill="none" stroke="black" d="M761.14,-533.16C782.94,-482.45 842.76,-343.35 868.25,-284.09"/>
<polygon fill="black" stroke="black" points="871.4,-285.63 872.13,-275.06 864.97,-282.86 871.4,-285.63"/>
</g>
<!-- q3&#45;&gt;q4 -->
<!-- phi_3_0&#45;&gt;phi_3_1 -->
<!-- phi_3_1&#45;&gt;dot_3_1_18 -->
<!-- dot_3_1_18&#45;&gt;phi_3_19 -->
<!-- phi_3_19&#45;&gt;phi_3 -->
<!-- phi_3_19&#45;&gt;phi_3 -->
<g id="edge139" class="edge">
<title>phi_3_19&#45;&gt;phi_3</title>
<path fill="none" stroke="black" stroke-dasharray="5,2" d="M861.83,-230.76C852.97,-221.26 842.31,-210.65 832.9,-202.02"/>
<polygon fill="black" stroke="black" points="835.3,-199.47 825.5,-195.46 830.66,-204.71 835.3,-199.47"/>
</g>
<!-- phi_3&#45;&gt;W3 -->
<!-- phi_3&#45;&gt;W3 -->
<g id="edge145" class="edge">
<title>phi_3&#45;&gt;W3</title>
<path fill="none" stroke="black" stroke-width="3" d="M805.3,-166.09C801.03,-150.95 794.73,-128.63 790.29,-112.88"/>
<text text-anchor="middle" x="814.75" y="-134.46" font-family="Times,serif" font-size="14.00">N=20</text>
</g>
<!-- phi_4 -->
<g id="node39" class="node">
<title>phi_4</title>
<ellipse fill="red" stroke="red" cx="883" cy="-183.76" rx="18" ry="18"/>
<text text-anchor="middle" x="883" y="-178.71" font-family="Times,serif" font-size="14.00">ϕ</text>
</g>
<!-- phi_3&#45;&gt;phi_4 -->
<!-- W4 -->
<g id="node40" class="node">
<title>W4</title>
<ellipse fill="red" stroke="red" cx="871" cy="-93.13" rx="20.13" ry="20.13"/>
<text text-anchor="middle" x="871" y="-88.08" font-family="Times,serif" font-size="14.00">W</text>
</g>
<!-- W3&#45;&gt;W4 -->
<!-- W3&#45;&gt;W4 -->
<g id="edge151" class="edge">
<title>W3&#45;&gt;W4</title>
<path fill="none" stroke="black" stroke-width="3" d="M805.38,-93.13C818.99,-93.13 836.83,-93.13 850.47,-93.13"/>
<text text-anchor="middle" x="828" y="-99.33" font-family="Times,serif" font-size="14.00">M=1</text>
</g>
<!-- x4&#45;&gt;q0 -->
<g id="edge78" class="edge">
<title>x4&#45;&gt;q0</title>
<path fill="none" stroke="black" d="M753.96,-625.8C666.74,-614.71 319.74,-570.6 213.24,-557.06"/>
<polygon fill="black" stroke="black" points="213.89,-553.61 203.53,-555.82 213.01,-560.56 213.89,-553.61"/>
</g>
<!-- x4&#45;&gt;q1 -->
<g id="edge79" class="edge">
<title>x4&#45;&gt;q1</title>
<path fill="none" stroke="black" d="M753.91,-624.92C683.65,-612.93 448.69,-572.83 363.87,-558.35"/>
<polygon fill="black" stroke="black" points="364.65,-554.94 354.2,-556.7 363.47,-561.84 364.65,-554.94"/>
</g>
<!-- x4&#45;&gt;q2 -->
<g id="edge80" class="edge">
<title>x4&#45;&gt;q2</title>
<path fill="none" stroke="black" d="M754.95,-622.57C712.03,-609.54 607.51,-577.82 555.87,-562.15"/>
<polygon fill="black" stroke="black" points="557.15,-558.88 546.56,-559.32 555.11,-565.58 557.15,-558.88"/>
</g>
<!-- x4&#45;&gt;q3 -->
<g id="edge81" class="edge">
<title>x4&#45;&gt;q3</title>
<path fill="none" stroke="black" d="M768.81,-609.74C766.55,-601.66 763.86,-591.99 761.33,-582.95"/>
<polygon fill="black" stroke="black" points="764.74,-582.15 758.68,-573.46 758,-584.03 764.74,-582.15"/>
</g>
<!-- x4&#45;&gt;q4 -->
<!-- x4&#45;&gt;q4 -->
<g id="edge82" class="edge">
<title>x4&#45;&gt;q4</title>
<path fill="none" stroke="black" d="M792.56,-620.58C816.83,-608.79 858.94,-586.09 886.24,-570.28"/>
<polygon fill="black" stroke="black" points="887.75,-573.45 894.6,-565.37 884.21,-567.42 887.75,-573.45"/>
</g>
<!-- x5 -->
<g id="node41" class="node">
<title>x5</title>
<ellipse fill="lightgrey" stroke="black" cx="908" cy="-629.35" rx="20.13" ry="20.13"/>
<text text-anchor="middle" x="908" y="-624.3" font-family="Times,serif" font-size="14.00">x5</text>
</g>
<!-- x4&#45;&gt;x5 -->
<!-- x4&#45;&gt;q5 -->
<g id="edge83" class="edge">
<title>x4&#45;&gt;q5</title>
<path fill="none" stroke="black" d="M793.15,-622.44C835.36,-609.42 936.71,-578.16 987.67,-562.44"/>
<polygon fill="black" stroke="black" points="988.63,-565.81 997.16,-559.51 986.57,-559.12 988.63,-565.81"/>
</g>
<!-- phi_4_0 -->
<g id="node35" class="node">
<title>phi_4_0</title>
<ellipse fill="lightgrey" stroke="black" cx="1124" cy="-476.95" rx="18" ry="18"/>
<text text-anchor="middle" x="1124" y="-471.9" font-family="Times,serif" font-size="14.00">1</text>
</g>
<!-- q4&#45;&gt;phi_4_0 -->
<!-- phi_4_1 -->
<g id="node36" class="node">
<title>phi_4_1</title>
<ellipse fill="lightgrey" stroke="black" cx="1124" cy="-403.95" rx="18" ry="18"/>
<text text-anchor="middle" x="1124" y="-398.9" font-family="Times,serif" font-size="14.00">φ</text>
</g>
<!-- q4&#45;&gt;phi_4_1 -->
<g id="edge114" class="edge">
<title>q4&#45;&gt;phi_4_1</title>
<path fill="none" stroke="black" d="M928.64,-540.46C965.85,-514.45 1055.99,-451.47 1099.58,-421.01"/>
<polygon fill="black" stroke="black" points="1101.44,-423.99 1107.64,-415.39 1097.43,-418.25 1101.44,-423.99"/>
</g>
<!-- dot_4_1_18 -->
<g id="node37" class="node">
<title>dot_4_1_18</title>
<ellipse fill="lightgrey" stroke="black" cx="1125" cy="-330.36" rx="18.6" ry="18.6"/>
<text text-anchor="middle" x="1125" y="-325.31" font-family="Times,serif" font-size="14.00">...</text>
</g>
<!-- q4&#45;&gt;dot_4_1_18 -->
<g id="edge116" class="edge">
<title>q4&#45;&gt;dot_4_1_18</title>
<path fill="none" stroke="black" d="M925.98,-537.54C962.42,-499.6 1060.52,-397.48 1103.89,-352.34"/>
<polygon fill="black" stroke="black" points="1106.34,-354.83 1110.75,-345.19 1101.3,-349.98 1106.34,-354.83"/>
</g>
<!-- phi_4_19 -->
<g id="node38" class="node">
<title>phi_4_19</title>
<ellipse fill="lightgrey" stroke="black" cx="1125" cy="-256.76" rx="18" ry="18"/>
<text text-anchor="middle" x="1125" y="-251.71" font-family="Times,serif" font-size="14.00">φ</text>
</g>
<!-- q4&#45;&gt;phi_4_19 -->
<g id="edge118" class="edge">
<title>q4&#45;&gt;phi_4_19</title>
<path fill="none" stroke="black" d="M924.06,-535.36C959.92,-485.65 1065.95,-338.64 1107.77,-280.66"/>
<polygon fill="black" stroke="black" points="1110.46,-282.91 1113.47,-272.75 1104.78,-278.82 1110.46,-282.91"/>
</g>
<!-- q4&#45;&gt;q5 -->
<!-- phi_4_0&#45;&gt;phi_4_1 -->
<!-- phi_4_1&#45;&gt;dot_4_1_18 -->
<!-- dot_4_1_18&#45;&gt;phi_4_19 -->
<!-- phi_4_19&#45;&gt;phi_4 -->
<!-- phi_4_19&#45;&gt;phi_4 -->
<g id="edge140" class="edge">
<title>phi_4_19&#45;&gt;phi_4</title>
<path fill="none" stroke="black" stroke-dasharray="5,2" d="M1098,-246.45C1051.8,-232.06 958.53,-204.75 911.39,-191.85"/>
<polygon fill="black" stroke="black" points="912.57,-188.54 902.01,-189.31 910.75,-195.3 912.57,-188.54"/>
</g>
<!-- phi_4&#45;&gt;W4 -->
<!-- phi_4&#45;&gt;W4 -->
<g id="edge146" class="edge">
<title>phi_4&#45;&gt;W4</title>
<path fill="none" stroke="black" stroke-width="3" d="M880.69,-165.67C878.66,-150.68 875.71,-128.91 873.6,-113.32"/>
<text text-anchor="middle" x="893.75" y="-134.46" font-family="Times,serif" font-size="14.00">N=20</text>
</g>
<!-- phi_5 -->
<g id="node47" class="node">
<title>phi_5</title>
<ellipse fill="red" stroke="red" cx="955" cy="-183.76" rx="18" ry="18"/>
<text text-anchor="middle" x="955" y="-178.71" font-family="Times,serif" font-size="14.00">ϕ</text>
</g>
<!-- phi_4&#45;&gt;phi_5 -->
<!-- W5 -->
<g id="node48" class="node">
<title>W5</title>
<ellipse fill="red" stroke="red" cx="957" cy="-93.13" rx="20.13" ry="20.13"/>
<text text-anchor="middle" x="957" y="-88.08" font-family="Times,serif" font-size="14.00">W</text>
</g>
<!-- W4&#45;&gt;W5 -->
<!-- W4&#45;&gt;W5 -->
<g id="edge152" class="edge">
<title>W4&#45;&gt;W5</title>
<path fill="none" stroke="black" stroke-width="3" d="M891.38,-93.13C904.99,-93.13 922.83,-93.13 936.47,-93.13"/>
<text text-anchor="middle" x="914" y="-99.33" font-family="Times,serif" font-size="14.00">M=1</text>
</g>
<!-- x5&#45;&gt;q0 -->
<g id="edge84" class="edge">
<title>x5&#45;&gt;q0</title>
<path fill="none" stroke="black" d="M887.82,-626.26C786.87,-615.79 336.54,-569.11 213.28,-556.33"/>
<polygon fill="black" stroke="black" points="213.89,-552.87 203.58,-555.32 213.17,-559.83 213.89,-552.87"/>
</g>
<!-- x5&#45;&gt;q1 -->
<g id="edge85" class="edge">
<title>x5&#45;&gt;q1</title>
<path fill="none" stroke="black" d="M887.87,-625.71C802.41,-614.53 469.16,-570.91 364.58,-557.22"/>
<polygon fill="black" stroke="black" points="365.13,-553.76 354.76,-555.93 364.22,-560.7 365.13,-553.76"/>
</g>
<!-- x5&#45;&gt;q2 -->
<g id="edge86" class="edge">
<title>x5&#45;&gt;q2</title>
<path fill="none" stroke="black" d="M888,-624.41C825.34,-612.06 632.53,-574.07 556.9,-559.17"/>
<polygon fill="black" stroke="black" points="557.78,-555.78 547.29,-557.28 556.42,-562.65 557.78,-555.78"/>
</g>
<!-- x5&#45;&gt;q3 -->
<g id="edge87" class="edge">
<title>x5&#45;&gt;q3</title>
<path fill="none" stroke="black" d="M889.92,-619.57C863.2,-606.59 812.94,-582.19 781.31,-566.83"/>
<polygon fill="black" stroke="black" points="782.85,-563.69 772.33,-562.47 779.8,-569.99 782.85,-563.69"/>
</g>
<!-- x5&#45;&gt;q4 -->
<g id="edge88" class="edge">
<title>x5&#45;&gt;q4</title>
<path fill="none" stroke="black" d="M909.03,-608.97C909.43,-601.39 909.9,-592.51 910.35,-584.08"/>
<polygon fill="black" stroke="black" points="913.84,-584.35 910.88,-574.17 906.85,-583.97 913.84,-584.35"/>
</g>
<!-- x5&#45;&gt;q5 -->
<!-- x5&#45;&gt;q5 -->
<g id="edge89" class="edge">
<title>x5&#45;&gt;q5</title>
<path fill="none" stroke="black" d="M925.6,-619.42C944.4,-608.12 973.82,-588.34 994.51,-573.3"/>
<polygon fill="black" stroke="black" points="996.43,-576.23 1002.39,-567.47 992.27,-570.61 996.43,-576.23"/>
</g>
<!-- phi_5_0 -->
<g id="node43" class="node">
<title>phi_5_0</title>
<ellipse fill="lightgrey" stroke="black" cx="1444" cy="-476.95" rx="18" ry="18"/>
<text text-anchor="middle" x="1444" y="-471.9" font-family="Times,serif" font-size="14.00">1</text>
</g>
<!-- q5&#45;&gt;phi_5_0 -->
<!-- phi_5_1 -->
<g id="node44" class="node">
<title>phi_5_1</title>
<ellipse fill="lightgrey" stroke="black" cx="1446" cy="-403.95" rx="18" ry="18"/>
<text text-anchor="middle" x="1446" y="-398.9" font-family="Times,serif" font-size="14.00">φ</text>
</g>
<!-- q5&#45;&gt;phi_5_1 -->
<g id="edge120" class="edge">
<title>q5&#45;&gt;phi_5_1</title>
<path fill="none" stroke="black" d="M1037.22,-545.43C1105.59,-521.77 1337.21,-441.61 1417.95,-413.66"/>
<polygon fill="black" stroke="black" points="1419,-417 1427.31,-410.42 1416.71,-410.39 1419,-417"/>
</g>
<!-- dot_5_1_18 -->
<g id="node45" class="node">
<title>dot_5_1_18</title>
<ellipse fill="lightgrey" stroke="black" cx="1445" cy="-330.36" rx="18.6" ry="18.6"/>
<text text-anchor="middle" x="1445" y="-325.31" font-family="Times,serif" font-size="14.00">...</text>
</g>
<!-- q5&#45;&gt;dot_5_1_18 -->
<g id="edge122" class="edge">
<title>q5&#45;&gt;dot_5_1_18</title>
<path fill="none" stroke="black" d="M1036.07,-542.7C1103.22,-507.83 1338.54,-385.64 1418.32,-344.21"/>
<polygon fill="black" stroke="black" points="1419.49,-347.55 1426.75,-339.83 1416.26,-341.34 1419.49,-347.55"/>
</g>
<!-- phi_5_19 -->
<g id="node46" class="node">
<title>phi_5_19</title>
<ellipse fill="lightgrey" stroke="black" cx="1444" cy="-256.76" rx="18" ry="18"/>
<text text-anchor="middle" x="1444" y="-251.71" font-family="Times,serif" font-size="14.00">φ</text>
</g>
<!-- q5&#45;&gt;phi_5_19 -->
<g id="edge124" class="edge">
<title>q5&#45;&gt;phi_5_19</title>
<path fill="none" stroke="black" d="M1034.7,-540.51C1100.51,-494.89 1342.08,-327.41 1419.77,-273.56"/>
<polygon fill="black" stroke="black" points="1421.74,-276.45 1427.97,-267.88 1417.75,-270.7 1421.74,-276.45"/>
</g>
<!-- 1 -->
<g id="node49" class="node">
<title>1</title>
<ellipse fill="lightgrey" stroke="black" cx="1092" cy="-552.08" rx="18" ry="18"/>
<text text-anchor="middle" x="1092" y="-547.03" font-family="Times,serif" font-size="14.00">1</text>
</g>
<!-- q5&#45;&gt;1 -->
<!-- phi_5_0&#45;&gt;phi_5_1 -->
<!-- phi_5_1&#45;&gt;dot_5_1_18 -->
<!-- dot_5_1_18&#45;&gt;phi_5_19 -->
<!-- phi_5_19&#45;&gt;phi_5 -->
<!-- phi_5_19&#45;&gt;phi_5 -->
<g id="edge141" class="edge">
<title>phi_5_19&#45;&gt;phi_5</title>
<path fill="none" stroke="black" stroke-dasharray="5,2" d="M1418,-251.49C1334.23,-238.67 1072.6,-200.7 984.31,-188.55"/>
<polygon fill="black" stroke="black" points="985.04,-185.11 974.66,-187.23 984.09,-192.05 985.04,-185.11"/>
</g>
<!-- phi_5&#45;&gt;W5 -->
<!-- phi_5&#45;&gt;W5 -->
<g id="edge147" class="edge">
<title>phi_5&#45;&gt;W5</title>
<path fill="none" stroke="black" stroke-width="3" d="M955.39,-165.67C955.72,-150.78 956.21,-129.2 956.56,-113.64"/>
<text text-anchor="middle" x="971.75" y="-134.46" font-family="Times,serif" font-size="14.00">N=20</text>
</g>
<!-- 1&#45;&gt;phi_0_1 -->
<g id="edge91" class="edge">
<title>1&#45;&gt;phi_0_1</title>
<path fill="none" stroke="black" d="M1074.08,-549.58C949.96,-532.2 218.5,-429.79 63.04,-408.02"/>
<polygon fill="black" stroke="black" points="63.97,-404.62 53.58,-406.7 63,-411.55 63.97,-404.62"/>
</g>
<!-- 1&#45;&gt;dot_0_1_18 -->
<g id="edge93" class="edge">
<title>1&#45;&gt;dot_0_1_18</title>
<path fill="none" stroke="black" d="M1074.1,-548.33C950.23,-522.35 220.88,-369.35 64.51,-336.55"/>
<polygon fill="black" stroke="black" points="65.46,-333.17 54.96,-334.54 64.02,-340.02 65.46,-333.17"/>
</g>
<!-- 1&#45;&gt;phi_0_19 -->
<g id="edge95" class="edge">
<title>1&#45;&gt;phi_0_19</title>
<path fill="none" stroke="black" d="M1074.55,-547.21C951.85,-512.89 218.96,-307.93 64.55,-264.75"/>
<polygon fill="black" stroke="black" points="65.71,-261.44 55.13,-262.11 63.82,-268.18 65.71,-261.44"/>
</g>
<!-- 1&#45;&gt;phi_1_1 -->
<g id="edge97" class="edge">
<title>1&#45;&gt;phi_1_1</title>
<path fill="none" stroke="black" d="M1073.9,-548.78C969.07,-529.66 439.83,-433.11 309.19,-409.28"/>
<polygon fill="black" stroke="black" points="310.1,-405.89 299.63,-407.53 308.84,-412.77 310.1,-405.89"/>
</g>
<!-- 1&#45;&gt;dot_1_1_18 -->
<g id="edge99" class="edge">
<title>1&#45;&gt;dot_1_1_18</title>
<path fill="none" stroke="black" d="M1074.26,-547.25C970.23,-518.87 439.35,-374.09 308.28,-338.34"/>
<polygon fill="black" stroke="black" points="309.23,-334.97 298.66,-335.72 307.39,-341.73 309.23,-334.97"/>
</g>
<!-- 1&#45;&gt;phi_1_19 -->
<g id="edge101" class="edge">
<title>1&#45;&gt;phi_1_19</title>
<path fill="none" stroke="black" d="M1074.66,-545.78C971.25,-508.17 435.94,-313.48 307.65,-266.82"/>
<polygon fill="black" stroke="black" points="309.19,-263.65 298.6,-263.53 306.8,-270.23 309.19,-263.65"/>
</g>
<!-- 1&#45;&gt;phi_2_1 -->
<g id="edge103" class="edge">
<title>1&#45;&gt;phi_2_1</title>
<path fill="none" stroke="black" d="M1074.49,-546.81C1001.27,-524.77 719.21,-439.85 628.37,-412.49"/>
<polygon fill="black" stroke="black" points="629.59,-409.21 619.01,-409.68 627.57,-415.91 629.59,-409.21"/>
</g>
<!-- 1&#45;&gt;dot_2_1_18 -->
<g id="edge105" class="edge">
<title>1&#45;&gt;dot_2_1_18</title>
<path fill="none" stroke="black" d="M1075.31,-544.58C1003.06,-512.08 716.74,-383.31 626.44,-342.7"/>
<polygon fill="black" stroke="black" points="628.13,-339.62 617.57,-338.71 625.25,-346 628.13,-339.62"/>
</g>
<!-- 1&#45;&gt;phi_2_19 -->
<g id="edge107" class="edge">
<title>1&#45;&gt;phi_2_19</title>
<path fill="none" stroke="black" d="M1076.19,-542.59C1004.91,-499.81 713.12,-324.66 625.19,-271.88"/>
<polygon fill="black" stroke="black" points="627.18,-269 616.81,-266.85 623.58,-275 627.18,-269"/>
</g>
<!-- 1&#45;&gt;phi_3_1 -->
<g id="edge109" class="edge">
<title>1&#45;&gt;phi_3_1</title>
<path fill="none" stroke="black" d="M1077.09,-541.67C1040.98,-516.44 948.54,-451.85 904.3,-420.93"/>
<polygon fill="black" stroke="black" points="906.33,-418.08 896.13,-415.23 902.32,-423.82 906.33,-418.08"/>
</g>
<!-- 1&#45;&gt;dot_3_1_18 -->
<g id="edge111" class="edge">
<title>1&#45;&gt;dot_3_1_18</title>
<path fill="none" stroke="black" d="M1079.43,-538.88C1044.42,-502.08 945.47,-398.1 901.96,-352.39"/>
<polygon fill="black" stroke="black" points="904.51,-349.99 895.08,-345.15 899.44,-354.81 904.51,-349.99"/>
</g>
<!-- 1&#45;&gt;phi_3_19 -->
<g id="edge113" class="edge">
<title>1&#45;&gt;phi_3_19</title>
<path fill="none" stroke="black" d="M1081.49,-537.44C1047.37,-489.91 939.49,-339.64 897.23,-280.76"/>
<polygon fill="black" stroke="black" points="900.13,-278.81 891.46,-272.73 894.45,-282.89 900.13,-278.81"/>
</g>
<!-- 1&#45;&gt;phi_4_1 -->
<g id="edge115" class="edge">
<title>1&#45;&gt;phi_4_1</title>
<path fill="none" stroke="black" d="M1095.86,-534.22C1101.29,-509.08 1111.24,-463 1117.74,-432.93"/>
<polygon fill="black" stroke="black" points="1121.12,-433.88 1119.81,-423.36 1114.27,-432.4 1121.12,-433.88"/>
</g>
<!-- 1&#45;&gt;dot_4_1_18 -->
<g id="edge117" class="edge">
<title>1&#45;&gt;dot_4_1_18</title>
<path fill="none" stroke="black" d="M1094.7,-533.94C1100.38,-495.79 1113.6,-406.93 1120.55,-360.24"/>
<polygon fill="black" stroke="black" points="1123.98,-360.97 1121.99,-350.56 1117.06,-359.94 1123.98,-360.97"/>
</g>
<!-- 1&#45;&gt;phi_4_19 -->
<g id="edge119" class="edge">
<title>1&#45;&gt;phi_4_19</title>
<path fill="none" stroke="black" d="M1094.01,-534.06C1099.53,-484.73 1114.89,-347.2 1121.69,-286.36"/>
<polygon fill="black" stroke="black" points="1125.17,-286.76 1122.8,-276.43 1118.21,-285.98 1125.17,-286.76"/>
</g>
<!-- 1&#45;&gt;phi_5_1 -->
<g id="edge121" class="edge">
<title>1&#45;&gt;phi_5_1</title>
<path fill="none" stroke="black" d="M1108.6,-545.14C1164.8,-521.62 1348.28,-444.84 1418.41,-415.5"/>
<polygon fill="black" stroke="black" points="1419.75,-418.73 1427.63,-411.64 1417.05,-412.27 1419.75,-418.73"/>
</g>
<!-- 1&#45;&gt;dot_5_1_18 -->
<g id="edge123" class="edge">
<title>1&#45;&gt;dot_5_1_18</title>
<path fill="none" stroke="black" d="M1107.62,-542.27C1163.09,-507.43 1350.85,-389.49 1419.55,-346.34"/>
<polygon fill="black" stroke="black" points="1421.27,-349.4 1427.87,-341.11 1417.55,-343.47 1421.27,-349.4"/>
</g>
<!-- 1&#45;&gt;phi_5_19 -->
<g id="edge125" class="edge">
<title>1&#45;&gt;phi_5_19</title>
<path fill="none" stroke="black" d="M1105.8,-540.51C1159.46,-495.49 1354.54,-331.82 1421.36,-275.75"/>
<polygon fill="black" stroke="black" points="1423.34,-278.66 1428.75,-269.55 1418.84,-273.3 1423.34,-278.66"/>
</g>
</g>
</svg>
