<?xml version="1.0" encoding="utf-8" standalone="no"?>
<!DOCTYPE svg PUBLIC "-//W3C//DTD SVG 1.1//EN"
  "http://www.w3.org/Graphics/SVG/1.1/DTD/svg11.dtd">
<svg xmlns:xlink="http://www.w3.org/1999/xlink" width="460.8pt" height="345.6pt" viewBox="0 0 460.8 345.6" xmlns="http://www.w3.org/2000/svg" version="1.1">
 <metadata>
  <rdf:RDF xmlns:dc="http://purl.org/dc/elements/1.1/" xmlns:cc="http://creativecommons.org/ns#" xmlns:rdf="http://www.w3.org/1999/02/22-rdf-syntax-ns#">
   <cc:Work>
    <dc:type rdf:resource="http://purl.org/dc/dcmitype/StillImage"/>
    <dc:date>2024-10-16T10:46:12.185115</dc:date>
    <dc:format>image/svg+xml</dc:format>
    <dc:creator>
     <cc:Agent>
      <dc:title>Matplotlib v3.9.2, https://matplotlib.org/</dc:title>
     </cc:Agent>
    </dc:creator>
   </cc:Work>
  </rdf:RDF>
 </metadata>
 <defs>
  <style type="text/css">*{stroke-linejoin: round; stroke-linecap: butt}</style>
 </defs>
 <g id="figure_1">
  <g id="patch_1">
   <path d="M 0 345.6
L 460.8 345.6
L 460.8 0
L 0 0
z
" style="fill: #ffffff"/>
  </g>
  <g id="axes_1">
   <g id="patch_2">
    <path d="M 57.6 307.584
L 414.72 307.584
L 414.72 41.472
L 57.6 41.472
z
" style="fill: #eaeaf2"/>
   </g>
   <g id="matplotlib.axis_1">
    <g id="xtick_1">
     <g id="line2d_1">
      <path d="M 73.68509 307.584
L 73.68509 41.472
" clip-path="url(#p75ef95666e)" style="fill: none; stroke: #ffffff; stroke-width: 0.8; stroke-linecap: round"/>
     </g>
     <g id="line2d_2"/>
     <g id="text_1">
      <!-- 0 -->
      <g style="fill: #262626" transform="translate(73.546983 320.077514) rotate(-45) scale(0.1 -0.1)">
       <defs>
        <path id="ArialMT-30" d="M 266 2259
Q 266 3072 433 3567
Q 600 4063 929 4331
Q 1259 4600 1759 4600
Q 2128 4600 2406 4451
Q 2684 4303 2865 4023
Q 3047 3744 3150 3342
Q 3253 2941 3253 2259
Q 3253 1453 3087 958
Q 2922 463 2592 192
Q 2263 -78 1759 -78
Q 1097 -78 719 397
Q 266 969 266 2259
z
M 844 2259
Q 844 1131 1108 757
Q 1372 384 1759 384
Q 2147 384 2411 759
Q 2675 1134 2675 2259
Q 2675 3391 2411 3762
Q 2147 4134 1753 4134
Q 1366 4134 1134 3806
Q 844 3388 844 2259
z
" transform="scale(0.015625)"/>
       </defs>
       <use xlink:href="#ArialMT-30"/>
      </g>
     </g>
    </g>
    <g id="text_2">
     <!-- epochs -->
     <g style="fill: #262626" transform="translate(220.038125 332.640702) scale(0.1 -0.1)">
      <defs>
       <path id="ArialMT-65" d="M 2694 1069
L 3275 997
Q 3138 488 2766 206
Q 2394 -75 1816 -75
Q 1088 -75 661 373
Q 234 822 234 1631
Q 234 2469 665 2931
Q 1097 3394 1784 3394
Q 2450 3394 2872 2941
Q 3294 2488 3294 1666
Q 3294 1616 3291 1516
L 816 1516
Q 847 969 1125 678
Q 1403 388 1819 388
Q 2128 388 2347 550
Q 2566 713 2694 1069
z
M 847 1978
L 2700 1978
Q 2663 2397 2488 2606
Q 2219 2931 1791 2931
Q 1403 2931 1139 2672
Q 875 2413 847 1978
z
" transform="scale(0.015625)"/>
       <path id="ArialMT-70" d="M 422 -1272
L 422 3319
L 934 3319
L 934 2888
Q 1116 3141 1344 3267
Q 1572 3394 1897 3394
Q 2322 3394 2647 3175
Q 2972 2956 3137 2557
Q 3303 2159 3303 1684
Q 3303 1175 3120 767
Q 2938 359 2589 142
Q 2241 -75 1856 -75
Q 1575 -75 1351 44
Q 1128 163 984 344
L 984 -1272
L 422 -1272
z
M 931 1641
Q 931 1000 1190 694
Q 1450 388 1819 388
Q 2194 388 2461 705
Q 2728 1022 2728 1688
Q 2728 2322 2467 2637
Q 2206 2953 1844 2953
Q 1484 2953 1207 2617
Q 931 2281 931 1641
z
" transform="scale(0.015625)"/>
       <path id="ArialMT-6f" d="M 213 1659
Q 213 2581 725 3025
Q 1153 3394 1769 3394
Q 2453 3394 2887 2945
Q 3322 2497 3322 1706
Q 3322 1066 3130 698
Q 2938 331 2570 128
Q 2203 -75 1769 -75
Q 1072 -75 642 372
Q 213 819 213 1659
z
M 791 1659
Q 791 1022 1069 705
Q 1347 388 1769 388
Q 2188 388 2466 706
Q 2744 1025 2744 1678
Q 2744 2294 2464 2611
Q 2184 2928 1769 2928
Q 1347 2928 1069 2612
Q 791 2297 791 1659
z
" transform="scale(0.015625)"/>
       <path id="ArialMT-63" d="M 2588 1216
L 3141 1144
Q 3050 572 2676 248
Q 2303 -75 1759 -75
Q 1078 -75 664 370
Q 250 816 250 1647
Q 250 2184 428 2587
Q 606 2991 970 3192
Q 1334 3394 1763 3394
Q 2303 3394 2647 3120
Q 2991 2847 3088 2344
L 2541 2259
Q 2463 2594 2264 2762
Q 2066 2931 1784 2931
Q 1359 2931 1093 2626
Q 828 2322 828 1663
Q 828 994 1084 691
Q 1341 388 1753 388
Q 2084 388 2306 591
Q 2528 794 2588 1216
z
" transform="scale(0.015625)"/>
       <path id="ArialMT-68" d="M 422 0
L 422 4581
L 984 4581
L 984 2938
Q 1378 3394 1978 3394
Q 2347 3394 2619 3248
Q 2891 3103 3008 2847
Q 3125 2591 3125 2103
L 3125 0
L 2563 0
L 2563 2103
Q 2563 2525 2380 2717
Q 2197 2909 1863 2909
Q 1613 2909 1392 2779
Q 1172 2650 1078 2428
Q 984 2206 984 1816
L 984 0
L 422 0
z
" transform="scale(0.015625)"/>
       <path id="ArialMT-73" d="M 197 991
L 753 1078
Q 800 744 1014 566
Q 1228 388 1613 388
Q 2000 388 2187 545
Q 2375 703 2375 916
Q 2375 1106 2209 1216
Q 2094 1291 1634 1406
Q 1016 1563 777 1677
Q 538 1791 414 1992
Q 291 2194 291 2438
Q 291 2659 392 2848
Q 494 3038 669 3163
Q 800 3259 1026 3326
Q 1253 3394 1513 3394
Q 1903 3394 2198 3281
Q 2494 3169 2634 2976
Q 2775 2784 2828 2463
L 2278 2388
Q 2241 2644 2061 2787
Q 1881 2931 1553 2931
Q 1166 2931 1000 2803
Q 834 2675 834 2503
Q 834 2394 903 2306
Q 972 2216 1119 2156
Q 1203 2125 1616 2013
Q 2213 1853 2448 1751
Q 2684 1650 2818 1456
Q 2953 1263 2953 975
Q 2953 694 2789 445
Q 2625 197 2315 61
Q 2006 -75 1616 -75
Q 969 -75 630 194
Q 291 463 197 991
z
" transform="scale(0.015625)"/>
      </defs>
      <use xlink:href="#ArialMT-65"/>
      <use xlink:href="#ArialMT-70" x="55.615234"/>
      <use xlink:href="#ArialMT-6f" x="111.230469"/>
      <use xlink:href="#ArialMT-63" x="166.845703"/>
      <use xlink:href="#ArialMT-68" x="216.845703"/>
      <use xlink:href="#ArialMT-73" x="272.460938"/>
     </g>
    </g>
   </g>
   <g id="matplotlib.axis_2">
    <g id="ytick_1">
     <g id="line2d_3">
      <path d="M 57.6 264.115847
L 414.72 264.115847
" clip-path="url(#p75ef95666e)" style="fill: none; stroke: #ffffff; stroke-width: 0.8; stroke-linecap: round"/>
     </g>
     <g id="line2d_4"/>
     <g id="text_3">
      <!-- $\mathdefault{10^{-3}}$ -->
      <g style="fill: #262626" transform="translate(34.3 269.272097) scale(0.1 -0.1)">
       <defs>
        <path id="ArialMT-31" d="M 2384 0
L 1822 0
L 1822 3584
Q 1619 3391 1289 3197
Q 959 3003 697 2906
L 697 3450
Q 1169 3672 1522 3987
Q 1875 4303 2022 4600
L 2384 4600
L 2384 0
z
" transform="scale(0.015625)"/>
        <path id="ArialMT-2212" d="M 3381 1997
L 356 1997
L 356 2522
L 3381 2522
L 3381 1997
z
" transform="scale(0.015625)"/>
        <path id="ArialMT-33" d="M 269 1209
L 831 1284
Q 928 806 1161 595
Q 1394 384 1728 384
Q 2125 384 2398 659
Q 2672 934 2672 1341
Q 2672 1728 2419 1979
Q 2166 2231 1775 2231
Q 1616 2231 1378 2169
L 1441 2663
Q 1497 2656 1531 2656
Q 1891 2656 2178 2843
Q 2466 3031 2466 3422
Q 2466 3731 2256 3934
Q 2047 4138 1716 4138
Q 1388 4138 1169 3931
Q 950 3725 888 3313
L 325 3413
Q 428 3978 793 4289
Q 1159 4600 1703 4600
Q 2078 4600 2393 4439
Q 2709 4278 2876 4000
Q 3044 3722 3044 3409
Q 3044 3113 2884 2869
Q 2725 2625 2413 2481
Q 2819 2388 3044 2092
Q 3269 1797 3269 1353
Q 3269 753 2831 336
Q 2394 -81 1725 -81
Q 1122 -81 723 278
Q 325 638 269 1209
z
" transform="scale(0.015625)"/>
       </defs>
       <use xlink:href="#ArialMT-31" transform="translate(0 0.99375)"/>
       <use xlink:href="#ArialMT-30" transform="translate(55.615234 0.99375)"/>
       <use xlink:href="#ArialMT-2212" transform="translate(112.972813 70.6875) scale(0.7)"/>
       <use xlink:href="#ArialMT-33" transform="translate(153.851719 70.6875) scale(0.7)"/>
      </g>
     </g>
    </g>
    <g id="ytick_2">
     <g id="line2d_5">
      <path d="M 57.6 153.087465
L 414.72 153.087465
" clip-path="url(#p75ef95666e)" style="fill: none; stroke: #ffffff; stroke-width: 0.8; stroke-linecap: round"/>
     </g>
     <g id="line2d_6"/>
     <g id="text_4">
      <!-- $\mathdefault{10^{-2}}$ -->
      <g style="fill: #262626" transform="translate(34.3 158.243715) scale(0.1 -0.1)">
       <defs>
        <path id="ArialMT-32" d="M 3222 541
L 3222 0
L 194 0
Q 188 203 259 391
Q 375 700 629 1000
Q 884 1300 1366 1694
Q 2113 2306 2375 2664
Q 2638 3022 2638 3341
Q 2638 3675 2398 3904
Q 2159 4134 1775 4134
Q 1369 4134 1125 3890
Q 881 3647 878 3216
L 300 3275
Q 359 3922 746 4261
Q 1134 4600 1788 4600
Q 2447 4600 2831 4234
Q 3216 3869 3216 3328
Q 3216 3053 3103 2787
Q 2991 2522 2730 2228
Q 2469 1934 1863 1422
Q 1356 997 1212 845
Q 1069 694 975 541
L 3222 541
z
" transform="scale(0.015625)"/>
       </defs>
       <use xlink:href="#ArialMT-31" transform="translate(0 0.99375)"/>
       <use xlink:href="#ArialMT-30" transform="translate(55.615234 0.99375)"/>
       <use xlink:href="#ArialMT-2212" transform="translate(112.972813 70.6875) scale(0.7)"/>
       <use xlink:href="#ArialMT-32" transform="translate(153.851719 70.6875) scale(0.7)"/>
      </g>
     </g>
    </g>
    <g id="ytick_3">
     <g id="line2d_7">
      <path d="M 57.6 42.059083
L 414.72 42.059083
" clip-path="url(#p75ef95666e)" style="fill: none; stroke: #ffffff; stroke-width: 0.8; stroke-linecap: round"/>
     </g>
     <g id="line2d_8"/>
     <g id="text_5">
      <!-- $\mathdefault{10^{-1}}$ -->
      <g style="fill: #262626" transform="translate(34.3 47.215333) scale(0.1 -0.1)">
       <use xlink:href="#ArialMT-31" transform="translate(0 0.99375)"/>
       <use xlink:href="#ArialMT-30" transform="translate(55.615234 0.99375)"/>
       <use xlink:href="#ArialMT-2212" transform="translate(112.972813 70.6875) scale(0.7)"/>
       <use xlink:href="#ArialMT-31" transform="translate(153.851719 70.6875) scale(0.7)"/>
      </g>
     </g>
    </g>
    <g id="ytick_4">
     <g id="line2d_9"/>
    </g>
    <g id="ytick_5">
     <g id="line2d_10"/>
    </g>
    <g id="ytick_6">
     <g id="line2d_11"/>
    </g>
    <g id="ytick_7">
     <g id="line2d_12"/>
    </g>
    <g id="ytick_8">
     <g id="line2d_13"/>
    </g>
    <g id="ytick_9">
     <g id="line2d_14"/>
    </g>
    <g id="ytick_10">
     <g id="line2d_15"/>
    </g>
    <g id="ytick_11">
     <g id="line2d_16"/>
    </g>
    <g id="ytick_12">
     <g id="line2d_17"/>
    </g>
    <g id="ytick_13">
     <g id="line2d_18"/>
    </g>
    <g id="ytick_14">
     <g id="line2d_19"/>
    </g>
    <g id="ytick_15">
     <g id="line2d_20"/>
    </g>
    <g id="ytick_16">
     <g id="line2d_21"/>
    </g>
    <g id="ytick_17">
     <g id="line2d_22"/>
    </g>
    <g id="ytick_18">
     <g id="line2d_23"/>
    </g>
    <g id="ytick_19">
     <g id="line2d_24"/>
    </g>
    <g id="ytick_20">
     <g id="line2d_25"/>
    </g>
    <g id="ytick_21">
     <g id="line2d_26"/>
    </g>
    <g id="ytick_22">
     <g id="line2d_27"/>
    </g>
    <g id="ytick_23">
     <g id="line2d_28"/>
    </g>
    <g id="ytick_24">
     <g id="line2d_29"/>
    </g>
    <g id="text_6">
     <!-- RMSE Energy [eV] -->
     <g style="fill: #262626" transform="translate(28.195312 216.487375) rotate(-90) scale(0.1 -0.1)">
      <defs>
       <path id="ArialMT-52" d="M 503 0
L 503 4581
L 2534 4581
Q 3147 4581 3465 4457
Q 3784 4334 3975 4021
Q 4166 3709 4166 3331
Q 4166 2844 3850 2509
Q 3534 2175 2875 2084
Q 3116 1969 3241 1856
Q 3506 1613 3744 1247
L 4541 0
L 3778 0
L 3172 953
Q 2906 1366 2734 1584
Q 2563 1803 2427 1890
Q 2291 1978 2150 2013
Q 2047 2034 1813 2034
L 1109 2034
L 1109 0
L 503 0
z
M 1109 2559
L 2413 2559
Q 2828 2559 3062 2645
Q 3297 2731 3419 2920
Q 3541 3109 3541 3331
Q 3541 3656 3305 3865
Q 3069 4075 2559 4075
L 1109 4075
L 1109 2559
z
" transform="scale(0.015625)"/>
       <path id="ArialMT-4d" d="M 475 0
L 475 4581
L 1388 4581
L 2472 1338
Q 2622 884 2691 659
Q 2769 909 2934 1394
L 4031 4581
L 4847 4581
L 4847 0
L 4263 0
L 4263 3834
L 2931 0
L 2384 0
L 1059 3900
L 1059 0
L 475 0
z
" transform="scale(0.015625)"/>
       <path id="ArialMT-53" d="M 288 1472
L 859 1522
Q 900 1178 1048 958
Q 1197 738 1509 602
Q 1822 466 2213 466
Q 2559 466 2825 569
Q 3091 672 3220 851
Q 3350 1031 3350 1244
Q 3350 1459 3225 1620
Q 3100 1781 2813 1891
Q 2628 1963 1997 2114
Q 1366 2266 1113 2400
Q 784 2572 623 2826
Q 463 3081 463 3397
Q 463 3744 659 4045
Q 856 4347 1234 4503
Q 1613 4659 2075 4659
Q 2584 4659 2973 4495
Q 3363 4331 3572 4012
Q 3781 3694 3797 3291
L 3216 3247
Q 3169 3681 2898 3903
Q 2628 4125 2100 4125
Q 1550 4125 1298 3923
Q 1047 3722 1047 3438
Q 1047 3191 1225 3031
Q 1400 2872 2139 2705
Q 2878 2538 3153 2413
Q 3553 2228 3743 1945
Q 3934 1663 3934 1294
Q 3934 928 3725 604
Q 3516 281 3123 101
Q 2731 -78 2241 -78
Q 1619 -78 1198 103
Q 778 284 539 648
Q 300 1013 288 1472
z
" transform="scale(0.015625)"/>
       <path id="ArialMT-45" d="M 506 0
L 506 4581
L 3819 4581
L 3819 4041
L 1113 4041
L 1113 2638
L 3647 2638
L 3647 2100
L 1113 2100
L 1113 541
L 3925 541
L 3925 0
L 506 0
z
" transform="scale(0.015625)"/>
       <path id="ArialMT-20" transform="scale(0.015625)"/>
       <path id="ArialMT-6e" d="M 422 0
L 422 3319
L 928 3319
L 928 2847
Q 1294 3394 1984 3394
Q 2284 3394 2536 3286
Q 2788 3178 2913 3003
Q 3038 2828 3088 2588
Q 3119 2431 3119 2041
L 3119 0
L 2556 0
L 2556 2019
Q 2556 2363 2490 2533
Q 2425 2703 2258 2804
Q 2091 2906 1866 2906
Q 1506 2906 1245 2678
Q 984 2450 984 1813
L 984 0
L 422 0
z
" transform="scale(0.015625)"/>
       <path id="ArialMT-72" d="M 416 0
L 416 3319
L 922 3319
L 922 2816
Q 1116 3169 1280 3281
Q 1444 3394 1641 3394
Q 1925 3394 2219 3213
L 2025 2691
Q 1819 2813 1613 2813
Q 1428 2813 1281 2702
Q 1134 2591 1072 2394
Q 978 2094 978 1738
L 978 0
L 416 0
z
" transform="scale(0.015625)"/>
       <path id="ArialMT-67" d="M 319 -275
L 866 -356
Q 900 -609 1056 -725
Q 1266 -881 1628 -881
Q 2019 -881 2231 -725
Q 2444 -569 2519 -288
Q 2563 -116 2559 434
Q 2191 0 1641 0
Q 956 0 581 494
Q 206 988 206 1678
Q 206 2153 378 2554
Q 550 2956 876 3175
Q 1203 3394 1644 3394
Q 2231 3394 2613 2919
L 2613 3319
L 3131 3319
L 3131 450
Q 3131 -325 2973 -648
Q 2816 -972 2473 -1159
Q 2131 -1347 1631 -1347
Q 1038 -1347 672 -1080
Q 306 -813 319 -275
z
M 784 1719
Q 784 1066 1043 766
Q 1303 466 1694 466
Q 2081 466 2343 764
Q 2606 1063 2606 1700
Q 2606 2309 2336 2618
Q 2066 2928 1684 2928
Q 1309 2928 1046 2623
Q 784 2319 784 1719
z
" transform="scale(0.015625)"/>
       <path id="ArialMT-79" d="M 397 -1278
L 334 -750
Q 519 -800 656 -800
Q 844 -800 956 -737
Q 1069 -675 1141 -563
Q 1194 -478 1313 -144
Q 1328 -97 1363 -6
L 103 3319
L 709 3319
L 1400 1397
Q 1534 1031 1641 628
Q 1738 1016 1872 1384
L 2581 3319
L 3144 3319
L 1881 -56
Q 1678 -603 1566 -809
Q 1416 -1088 1222 -1217
Q 1028 -1347 759 -1347
Q 597 -1347 397 -1278
z
" transform="scale(0.015625)"/>
       <path id="ArialMT-5b" d="M 434 -1272
L 434 4581
L 1675 4581
L 1675 4116
L 997 4116
L 997 -806
L 1675 -806
L 1675 -1272
L 434 -1272
z
" transform="scale(0.015625)"/>
       <path id="ArialMT-56" d="M 1803 0
L 28 4581
L 684 4581
L 1875 1253
Q 2019 853 2116 503
Q 2222 878 2363 1253
L 3600 4581
L 4219 4581
L 2425 0
L 1803 0
z
" transform="scale(0.015625)"/>
       <path id="ArialMT-5d" d="M 1363 -1272
L 122 -1272
L 122 -806
L 800 -806
L 800 4116
L 122 4116
L 122 4581
L 1363 4581
L 1363 -1272
z
" transform="scale(0.015625)"/>
      </defs>
      <use xlink:href="#ArialMT-52"/>
      <use xlink:href="#ArialMT-4d" x="72.216797"/>
      <use xlink:href="#ArialMT-53" x="155.517578"/>
      <use xlink:href="#ArialMT-45" x="222.216797"/>
      <use xlink:href="#ArialMT-20" x="288.916016"/>
      <use xlink:href="#ArialMT-45" x="316.699219"/>
      <use xlink:href="#ArialMT-6e" x="383.398438"/>
      <use xlink:href="#ArialMT-65" x="439.013672"/>
      <use xlink:href="#ArialMT-72" x="494.628906"/>
      <use xlink:href="#ArialMT-67" x="527.929688"/>
      <use xlink:href="#ArialMT-79" x="583.544922"/>
      <use xlink:href="#ArialMT-20" x="633.544922"/>
      <use xlink:href="#ArialMT-5b" x="661.328125"/>
      <use xlink:href="#ArialMT-65" x="689.111328"/>
      <use xlink:href="#ArialMT-56" x="744.726562"/>
      <use xlink:href="#ArialMT-5d" x="811.425781"/>
     </g>
    </g>
   </g>
   <g id="line2d_30">
    <path d="M 73.832727 54.639322
L 74.128002 54.841569
L 74.275639 55.417047
L 74.423277 54.480076
L 74.718551 54.529806
L 75.013826 55.194208
L 75.161463 55.385713
L 75.309101 55.345991
L 75.456738 55.697012
L 75.89965 55.510225
L 76.047288 55.665789
L 76.194925 55.57387
L 76.342562 55.638889
L 76.4902 55.540633
L 76.785474 55.786936
L 77.080749 55.889811
L 77.523661 55.584776
L 77.818936 55.714588
L 78.114211 55.762034
L 78.409485 55.76613
L 78.557123 55.866105
L 78.852397 55.851414
L 79.000035 55.932894
L 79.442947 55.721421
L 79.590584 55.873036
L 79.738222 55.590073
L 80.033496 55.840391
L 80.181134 55.63426
L 80.328771 55.906694
L 80.624046 56.011704
L 80.771683 55.888582
L 81.657507 55.929199
L 81.805144 55.865808
L 82.248057 55.989131
L 83.872067 55.961765
L 84.167342 55.986486
L 84.31498 56.214253
L 84.757892 55.986147
L 84.905529 55.961623
L 85.348441 56.21053
L 85.496078 56.10523
L 85.791353 56.136527
L 85.93899 56.02432
L 86.086628 56.154194
L 86.381903 56.092088
L 86.677177 56.104105
L 86.972452 56.161081
L 87.858276 56.098411
L 88.448825 56.276925
L 88.7441 56.085629
L 89.187012 56.259035
L 89.482287 56.216337
L 89.629924 56.28315
L 89.777562 56.084193
L 90.515748 56.310349
L 90.811023 56.282129
L 91.106298 56.158745
L 91.401573 56.204925
L 91.696847 56.383212
L 92.730309 56.24488
L 93.025584 56.38083
L 94.059045 56.327099
L 94.35432 56.444454
L 94.501957 56.301092
L 94.649594 56.338968
L 94.944869 56.265843
L 96.273605 56.417152
L 96.421243 56.307896
L 96.716517 56.43672
L 97.011792 56.315197
L 97.307067 56.473492
L 97.602342 56.360163
L 98.045254 56.467165
L 98.340528 56.388444
L 98.635803 56.43754
L 99.521627 56.37479
L 99.669265 56.213013
L 99.964539 56.482835
L 100.555089 56.379658
L 100.850363 56.398252
L 101.58855 56.548644
L 101.736188 56.438633
L 102.031462 56.475105
L 102.622012 56.476422
L 102.917286 56.535145
L 103.064924 56.534381
L 103.212561 56.374543
L 103.360198 95.616629
L 103.507836 100.449871
L 103.655473 100.525359
L 103.803111 107.235251
L 103.950748 108.005419
L 104.098385 106.612193
L 104.39366 110.003184
L 104.541297 110.068148
L 104.688935 110.84557
L 104.836572 110.439011
L 104.984209 111.148991
L 105.279484 111.422622
L 105.427121 111.848135
L 105.574759 111.667901
L 105.722396 112.101677
L 105.870033 111.551335
L 106.017671 111.678916
L 106.165308 111.292888
L 106.460583 112.698001
L 106.60822 112.416769
L 106.755858 112.883946
L 106.903495 112.63703
L 107.051132 112.909019
L 107.19877 111.9125
L 107.346407 112.909715
L 107.641682 113.232526
L 107.789319 113.172109
L 107.936956 113.401273
L 108.084594 113.422452
L 108.232231 113.590386
L 108.379869 113.143091
L 108.527506 111.65828
L 108.675143 112.80329
L 108.822781 112.498573
L 108.970418 113.631285
L 109.41333 113.922028
L 109.560967 113.149899
L 109.856242 113.589909
L 110.151517 113.948224
L 110.299154 113.986195
L 110.446792 113.802761
L 110.742066 114.103058
L 110.889704 113.606836
L 111.037341 114.30917
L 111.480253 114.287976
L 111.775528 113.957603
L 111.923165 112.724879
L 112.070802 113.745366
L 112.21844 113.623721
L 112.366077 113.734875
L 112.513714 113.676127
L 112.661352 114.647563
L 112.808989 113.90008
L 113.251901 114.792299
L 113.399539 114.652965
L 113.547176 114.802677
L 113.694813 114.043131
L 113.842451 114.110688
L 113.990088 113.661017
L 114.137725 114.34353
L 114.285363 113.552821
L 115.02355 115.03699
L 115.318824 114.288048
L 115.466462 114.974074
L 115.614099 114.525304
L 115.761736 114.462263
L 116.057011 115.030051
L 116.204648 114.90877
L 116.352286 115.054488
L 116.499923 114.818013
L 116.64756 115.030005
L 116.795198 114.889701
L 116.942835 114.928033
L 117.090473 114.6277
L 117.385747 115.067367
L 117.533385 115.129304
L 117.681022 114.983467
L 117.828659 115.215658
L 117.976297 115.004629
L 118.123934 115.11123
L 118.271571 114.778353
L 118.566846 115.330473
L 118.714483 115.10572
L 119.009758 115.415599
L 119.157396 115.310094
L 119.305033 115.415813
L 119.45267 115.187752
L 119.600308 115.277768
L 119.747945 115.093553
L 120.04322 115.334546
L 120.190857 115.281539
L 120.486132 115.393113
L 120.633769 115.139326
L 120.929044 115.372523
L 121.224318 115.099196
L 121.519593 115.701219
L 121.667231 115.275376
L 121.962505 115.177525
L 122.110143 115.467278
L 122.25778 115.25453
L 122.700692 115.549459
L 122.848329 115.460537
L 122.995967 115.690792
L 123.438879 115.259123
L 123.586516 115.615869
L 123.734154 115.127204
L 124.029428 115.592039
L 124.177066 115.61653
L 124.324703 115.319891
L 124.47234 115.622765
L 124.619978 115.653186
L 124.767615 115.460358
L 124.915252 115.631439
L 125.06289 115.419914
L 125.210527 115.551869
L 125.358164 114.927456
L 125.505802 115.488736
L 125.653439 115.020024
L 125.948714 115.697165
L 126.096351 115.618904
L 126.391626 115.747059
L 126.539263 115.645964
L 126.834538 115.818568
L 127.129813 115.758069
L 127.27745 115.306708
L 127.425087 115.779211
L 127.868 115.652641
L 128.015637 115.869971
L 128.310912 115.706584
L 128.458549 115.834302
L 128.901461 115.696129
L 129.049098 115.95106
L 129.196736 115.963814
L 129.344373 115.786696
L 129.49201 115.812507
L 129.639648 115.971569
L 129.934922 115.642601
L 130.230197 115.812378
L 130.377835 115.920689
L 130.525472 115.851949
L 130.673109 115.976781
L 130.968384 115.653335
L 131.116021 115.916147
L 131.558933 115.907993
L 131.854208 115.978811
L 132.149483 115.482853
L 132.29712 115.507651
L 132.444758 115.849686
L 132.592395 115.740475
L 132.740032 115.960067
L 132.88767 102.740161
L 133.330582 119.107607
L 133.478219 118.24608
L 133.921131 121.937835
L 134.068768 121.905852
L 134.364043 123.929021
L 134.659318 123.843072
L 134.806955 124.976107
L 135.10223 124.358399
L 135.397505 125.403338
L 135.545142 125.340898
L 135.692779 125.695704
L 135.840417 124.411292
L 135.988054 126.495419
L 136.283329 126.519284
L 136.430966 126.77955
L 136.578603 126.807861
L 136.873878 125.34079
L 137.021516 127.318461
L 137.169153 126.622633
L 137.31679 127.425084
L 137.612065 127.653545
L 137.759702 127.319531
L 137.90734 127.739122
L 138.054977 127.391551
L 138.202614 128.385154
L 138.350252 128.093231
L 138.497889 128.16264
L 138.793164 128.569385
L 138.940801 128.172195
L 139.088439 128.157687
L 139.236076 128.291657
L 139.383713 129.138327
L 139.531351 128.71117
L 139.826625 129.193
L 140.1219 127.628652
L 140.269537 127.519424
L 140.417175 129.570806
L 140.564812 127.983088
L 140.860087 129.650639
L 141.155362 129.313168
L 141.450636 129.209977
L 141.745911 130.153993
L 142.041186 129.390828
L 142.188823 129.720778
L 142.484098 129.636574
L 142.631735 127.377697
L 142.779372 130.023948
L 142.92701 130.085188
L 143.074647 128.384947
L 143.369922 130.396113
L 143.517559 129.625393
L 143.665197 130.572651
L 143.960471 130.553444
L 144.255746 130.109058
L 144.403383 130.566656
L 144.846295 129.434806
L 144.993933 130.710971
L 145.14157 130.365763
L 145.289207 129.285729
L 145.584482 130.998383
L 145.73212 130.892873
L 145.879757 131.27677
L 146.027394 131.231446
L 146.175032 131.051357
L 146.322669 131.342887
L 146.470306 131.100447
L 146.617944 131.084112
L 146.765581 130.897041
L 146.913218 130.904791
L 147.35613 131.391623
L 147.503768 130.977615
L 148.094317 131.788273
L 148.389592 131.036737
L 148.537229 131.699118
L 148.832504 131.673072
L 148.980141 131.929237
L 149.127779 131.723709
L 149.275416 131.897644
L 149.423053 131.543255
L 149.570691 131.571016
L 149.865966 131.946445
L 150.013603 131.877753
L 150.16124 132.169029
L 150.308878 131.923981
L 150.456515 131.020531
L 150.75179 132.039669
L 151.047064 131.640183
L 151.194702 132.193437
L 151.342339 132.135052
L 151.489976 132.262454
L 151.785251 131.665482
L 152.080526 132.501089
L 152.228163 132.398419
L 152.375801 131.863984
L 152.523438 132.290827
L 152.671075 131.990009
L 152.818713 132.514871
L 152.96635 131.992245
L 153.113987 130.366268
L 153.261625 130.982494
L 153.409262 130.899665
L 153.704537 132.672076
L 153.852174 132.671953
L 153.999811 132.260997
L 154.147449 132.579449
L 154.295086 132.310048
L 154.442724 131.394703
L 154.590361 131.730241
L 154.737998 131.313861
L 154.885636 132.77728
L 155.18091 131.555205
L 155.328548 132.065796
L 155.476185 132.023508
L 155.623822 132.908991
L 155.77146 132.626107
L 155.919097 132.658236
L 156.214372 132.894199
L 156.362009 132.603107
L 156.657284 133.190752
L 157.100196 132.73834
L 157.247833 131.086487
L 157.838383 132.840227
L 158.133657 132.615481
L 158.281295 133.146633
L 158.724207 133.148649
L 158.871844 133.412104
L 159.167119 132.38146
L 159.314756 133.35718
L 159.462394 133.366235
L 159.610031 133.130468
L 159.905306 133.553905
L 160.052943 133.569761
L 160.20058 133.233286
L 160.495855 133.484
L 160.79113 132.885242
L 161.086405 133.475843
L 161.381679 132.322448
L 161.529317 132.331773
L 161.824591 133.315504
L 161.972229 133.343715
L 162.119866 133.778099
L 162.267503 133.466351
L 162.415141 77.328386
L 163.00569 86.311934
L 163.153328 86.778238
L 163.300965 87.813109
L 163.448602 87.713453
L 163.59624 88.903598
L 163.743877 88.422236
L 163.891514 89.793332
L 164.039152 89.465428
L 164.186789 89.501433
L 164.482064 90.647055
L 164.629701 90.894804
L 164.777338 90.89298
L 165.072613 90.586844
L 165.220251 91.284434
L 165.663163 91.615775
L 165.8108 91.14742
L 165.958437 91.946986
L 166.106075 92.086743
L 166.253712 91.83815
L 166.696624 92.496597
L 166.991899 92.355962
L 167.139536 92.424999
L 167.434811 92.843904
L 167.730086 92.560365
L 167.877723 91.815922
L 168.02536 92.377755
L 168.172998 92.095064
L 168.320635 93.006139
L 168.468272 92.873445
L 168.763547 93.326473
L 168.911184 93.50774
L 169.058822 93.483616
L 169.206459 93.652574
L 169.354096 93.301876
L 169.501734 93.396189
L 169.649371 93.100984
L 169.944646 93.367658
L 170.092283 93.797294
L 170.239921 93.695704
L 170.387558 94.027741
L 170.978107 94.091788
L 171.125745 93.981637
L 171.273382 94.310242
L 171.716294 94.304984
L 172.011569 94.448298
L 172.159206 94.525015
L 172.306844 94.144179
L 172.454481 94.389101
L 172.602118 94.199874
L 172.749756 94.235379
L 172.897393 94.09107
L 173.192668 94.783541
L 173.340305 94.816476
L 173.487942 94.605707
L 173.783217 94.639131
L 173.930855 95.096947
L 174.226129 95.205126
L 174.521404 94.97782
L 174.669041 95.201608
L 174.964316 95.258611
L 175.259591 95.448675
L 175.407228 95.507647
L 175.702503 95.168218
L 175.997778 95.553987
L 176.293052 95.425482
L 176.735964 95.864195
L 176.883602 95.714216
L 177.178876 96.010196
L 177.326514 95.833447
L 177.474151 95.925822
L 177.621788 95.876349
L 177.769426 96.087953
L 177.917063 96.024468
L 178.212338 96.198989
L 178.65525 95.940409
L 178.802887 96.161322
L 179.245799 96.167713
L 179.541074 96.383182
L 179.688711 96.340248
L 179.983986 96.53478
L 180.131623 96.439045
L 180.279261 96.54409
L 180.574536 96.552943
L 180.722173 96.63831
L 180.86981 96.55557
L 181.165085 96.81287
L 181.312722 96.814926
L 181.46036 96.642263
L 181.607997 96.662462
L 181.755634 96.921301
L 182.050909 96.888492
L 182.198546 96.929634
L 182.493821 96.755167
L 182.789096 97.092702
L 183.084371 97.128923
L 183.232008 97.002148
L 183.379645 97.183323
L 183.527283 96.937285
L 183.970195 97.012588
L 184.117832 96.893898
L 184.265469 97.2535
L 184.413107 97.008473
L 184.560744 97.32217
L 184.708381 96.957376
L 184.856019 97.414143
L 185.003656 97.356787
L 185.151294 97.549416
L 185.298931 97.441718
L 185.446568 97.475205
L 185.594206 97.650861
L 186.184755 97.6364
L 186.48003 97.766562
L 186.922942 97.625513
L 187.218217 97.853888
L 187.513491 97.762562
L 187.808766 97.830064
L 188.104041 97.842338
L 188.546953 98.011342
L 188.842227 98.063321
L 188.989865 98.086671
L 189.137502 98.226882
L 189.580414 98.134647
L 190.170964 98.195966
L 190.318601 98.319855
L 190.613876 98.283864
L 190.761513 98.228036
L 191.056788 98.415482
L 191.204425 98.150327
L 191.4997 98.329235
L 191.647337 98.554118
L 191.794975 98.564951
L 191.942612 128.351478
L 192.090249 118.497604
L 192.385524 136.863959
L 192.533161 134.426531
L 192.680799 136.136646
L 192.828436 143.143096
L 192.976073 141.845958
L 193.123711 141.569847
L 193.271348 142.803214
L 193.418985 142.604682
L 193.566623 144.240818
L 193.71426 143.055911
L 194.009535 144.897668
L 194.157172 139.214209
L 194.30481 145.519254
L 194.452447 144.162747
L 194.600084 145.183936
L 194.747722 145.297235
L 194.895359 146.907514
L 195.042996 145.847831
L 195.190634 146.439088
L 195.338271 145.084702
L 195.633546 146.81812
L 195.781183 146.993419
L 195.928821 146.456607
L 196.076458 147.284346
L 196.224095 146.786036
L 196.371733 147.545262
L 196.51937 147.69965
L 196.667007 146.954593
L 196.814645 147.0952
L 196.962282 145.628613
L 197.257557 146.743048
L 197.405194 144.492681
L 197.552831 147.572276
L 197.700469 146.745199
L 197.995744 147.870844
L 198.143381 148.160891
L 198.291018 147.549673
L 198.438656 148.1447
L 198.586293 148.194932
L 198.73393 147.715758
L 198.881568 148.051344
L 199.029205 147.605637
L 199.176842 148.960388
L 199.32448 147.962156
L 199.767392 148.88564
L 199.915029 148.707095
L 200.062667 148.2788
L 200.210304 148.937734
L 200.357941 148.819537
L 200.653216 149.188189
L 200.800853 149.21205
L 200.948491 147.532993
L 201.096128 149.159887
L 201.243765 149.487473
L 201.391403 148.631136
L 201.53904 148.973344
L 201.686677 148.939856
L 201.834315 149.46988
L 201.981952 149.449428
L 202.129589 149.093954
L 202.277227 149.061586
L 202.424864 148.47336
L 202.572502 148.945556
L 202.720139 148.955583
L 202.867776 150.068915
L 203.015414 149.5813
L 203.163051 149.843897
L 203.310688 148.63043
L 203.458326 150.056475
L 203.605963 149.064241
L 203.901238 150.204471
L 204.048875 147.880077
L 204.196512 148.170428
L 204.34415 150.074971
L 204.639425 148.057312
L 204.787062 150.089234
L 204.934699 149.971585
L 205.082337 150.413444
L 205.229974 149.667905
L 205.377611 149.702009
L 205.525249 150.490882
L 205.672886 148.04608
L 205.968161 149.889939
L 206.115798 148.944891
L 206.411073 150.713551
L 206.55871 149.911023
L 207.001622 150.61483
L 207.14926 148.500896
L 207.444534 150.201093
L 207.592172 148.658179
L 207.887446 150.731377
L 208.035084 150.680459
L 208.182721 150.390404
L 208.330358 148.960134
L 208.625633 150.764555
L 208.920908 149.895431
L 209.068545 151.20529
L 209.36382 149.370724
L 209.511457 149.143732
L 209.659095 150.743434
L 209.806732 150.192998
L 210.102007 150.500335
L 210.397281 150.069497
L 210.544919 150.60521
L 210.692556 149.665443
L 210.840193 150.870331
L 210.987831 151.111414
L 211.135468 151.126203
L 211.283106 150.783717
L 211.430743 151.342702
L 211.57838 150.425757
L 211.873655 151.279694
L 212.021292 151.064393
L 212.316567 151.169459
L 212.464204 151.556882
L 212.611842 151.071829
L 212.759479 151.328804
L 213.202391 151.275521
L 213.350029 150.440471
L 213.497666 151.210632
L 213.645303 150.928085
L 213.792941 151.197443
L 213.940578 150.689588
L 214.235853 151.443408
L 214.38349 151.264418
L 214.531127 151.487081
L 214.678765 151.070267
L 214.826402 148.840907
L 215.121677 151.723397
L 215.416952 150.224908
L 215.564589 151.50092
L 216.155138 151.102723
L 216.302776 150.497465
L 216.59805 151.858973
L 216.893325 151.477766
L 217.040962 151.962768
L 217.1886 151.809943
L 217.336237 150.643358
L 217.631512 152.33498
L 217.779149 150.756679
L 217.926787 151.138571
L 218.222061 150.503854
L 218.517336 151.95818
L 218.664973 149.128315
L 218.812611 149.975296
L 218.960248 151.570264
L 219.107885 147.798922
L 219.40316 152.055752
L 219.550797 148.947499
L 219.846072 152.190237
L 220.141347 150.63952
L 220.288984 152.390897
L 220.436622 149.982583
L 220.584259 150.508764
L 220.879534 152.496001
L 221.174808 151.173085
L 221.322446 151.63993
L 221.470083 189.265146
L 221.61772 190.440884
L 221.765358 189.19072
L 221.912995 190.317672
L 222.060633 190.482225
L 222.20827 191.328553
L 222.355907 191.019198
L 222.503545 188.846922
L 222.651182 190.848944
L 222.798819 190.604363
L 222.946457 191.449554
L 223.241731 191.029012
L 223.389369 192.119225
L 223.537006 190.960798
L 223.684643 191.228037
L 223.832281 191.953568
L 223.979918 191.832515
L 224.275193 190.838897
L 224.570468 192.003724
L 224.718105 190.978433
L 224.865742 191.817963
L 225.01338 191.546514
L 225.456292 191.946083
L 225.603929 191.628958
L 225.751566 191.96431
L 226.046841 191.818164
L 226.194478 192.006079
L 226.342116 191.308395
L 226.489753 191.772274
L 226.637391 191.646902
L 226.785028 192.238434
L 226.932665 192.256018
L 227.080303 191.613668
L 227.375577 192.200642
L 227.818489 191.97439
L 227.966127 192.146418
L 228.261401 191.968105
L 228.409039 191.867491
L 228.556676 192.217856
L 228.851951 191.936793
L 228.999588 192.380607
L 229.147226 191.92068
L 229.294863 191.944982
L 229.590138 192.300176
L 229.885412 192.006776
L 230.03305 192.143091
L 230.180687 191.996816
L 230.475962 192.241853
L 230.623599 192.261753
L 230.771237 192.057762
L 230.918874 192.199369
L 231.066511 191.69891
L 231.361786 192.120015
L 231.657061 192.297569
L 231.804698 192.260849
L 231.952335 191.949219
L 232.099973 192.065899
L 232.24761 192.406742
L 232.542885 191.985629
L 232.690522 192.380591
L 232.985797 191.978038
L 233.281072 192.428522
L 233.428709 192.44577
L 233.576346 192.107985
L 233.723984 192.067831
L 233.871621 192.488654
L 234.019258 192.394822
L 234.314533 192.040342
L 234.609808 191.819938
L 234.905082 192.526947
L 235.200357 192.052047
L 235.643269 192.424391
L 236.086181 192.140803
L 236.233819 192.367993
L 236.381456 192.158252
L 236.529093 192.333419
L 236.824368 192.319374
L 236.972005 192.452692
L 237.562555 192.30414
L 238.005467 192.420108
L 238.300742 192.067125
L 238.448379 192.345274
L 239.038928 192.361339
L 239.334203 192.105186
L 239.481841 192.206711
L 239.629478 192.55419
L 239.777115 192.056035
L 239.924753 192.316612
L 240.07239 192.298274
L 240.220027 192.595772
L 240.515302 192.225017
L 240.662939 192.137122
L 240.810577 192.205053
L 240.958214 192.05887
L 241.401126 192.590934
L 241.696401 192.237929
L 241.991676 192.389762
L 242.434588 192.457714
L 242.582225 192.296896
L 242.8775 192.400071
L 243.025137 192.312575
L 243.320412 192.500387
L 243.910961 192.390013
L 244.206236 192.622417
L 244.501511 192.401189
L 244.649148 192.581683
L 244.796785 192.540812
L 244.944423 192.132026
L 245.09206 192.497146
L 245.387335 192.564396
L 245.534972 192.272405
L 245.977884 192.517865
L 246.125522 192.409178
L 246.420796 192.526383
L 246.568434 192.548153
L 247.011346 192.251307
L 247.30662 192.636984
L 247.749532 192.39312
L 247.89717 192.537032
L 248.340082 192.328816
L 248.635357 192.457715
L 248.782994 192.547369
L 249.225906 192.253916
L 249.373543 192.437853
L 249.521181 192.42651
L 249.668818 192.280296
L 249.816455 192.546689
L 249.964093 192.57788
L 250.11173 192.398941
L 250.259367 192.530986
L 250.554642 192.526854
L 250.849917 192.679206
L 251.145192 195.796562
L 251.292829 194.787105
L 251.440466 197.27775
L 251.588104 197.066828
L 251.735741 196.46952
L 252.031016 198.378698
L 252.178653 198.445944
L 252.32629 197.645112
L 252.473928 197.688683
L 252.769203 199.121617
L 252.91684 198.56102
L 253.064477 198.578164
L 253.212115 198.381664
L 253.507389 198.999031
L 254.097939 197.328583
L 254.245576 197.94883
L 254.393213 196.833797
L 254.836126 198.273272
L 255.1314 198.836917
L 255.279038 198.534949
L 255.426675 198.993312
L 255.574312 198.738856
L 255.869587 199.246727
L 256.017224 199.157322
L 256.164862 198.857341
L 256.312499 199.114142
L 256.607774 198.896649
L 256.755411 199.106368
L 256.903048 199.01565
L 257.050686 199.08517
L 257.198323 199.353242
L 257.493598 198.711763
L 257.788873 199.27575
L 257.93651 199.017583
L 258.084147 199.141012
L 258.379422 198.884402
L 258.674697 199.150942
L 258.969971 198.898923
L 259.265246 198.967258
L 259.560521 199.247369
L 259.855796 199.132291
L 260.298708 199.108315
L 260.889257 199.146816
L 261.184532 199.26193
L 261.332169 199.404659
L 261.627444 199.239175
L 261.922719 199.240198
L 262.070356 199.083994
L 262.365631 199.413687
L 262.513268 199.335734
L 262.660905 199.531454
L 262.808543 199.018552
L 263.103817 199.277494
L 263.251455 199.215389
L 263.399092 199.02972
L 263.694367 199.429787
L 263.989642 199.179038
L 264.284916 199.307926
L 264.580191 198.822496
L 264.875466 199.47589
L 265.023103 199.29432
L 265.17074 198.715116
L 265.318378 199.381532
L 265.466015 199.499114
L 266.056565 198.904343
L 266.204202 198.911369
L 266.499477 199.332817
L 266.647114 198.863703
L 267.090026 199.310593
L 267.532938 199.125497
L 267.680575 199.361406
L 267.828213 199.344086
L 267.97585 199.212109
L 268.123488 199.470187
L 268.271125 199.292779
L 268.5664 198.84938
L 268.861674 199.591971
L 269.304586 199.203596
L 269.452224 199.506797
L 269.599861 199.2468
L 269.747498 199.438922
L 270.042773 199.268353
L 270.190411 198.982593
L 270.338048 198.945455
L 270.485685 199.290002
L 270.633323 199.174852
L 270.78096 199.407833
L 271.076235 199.383017
L 271.371509 199.466146
L 271.519147 199.134206
L 271.666784 199.212898
L 271.962059 199.559942
L 272.109696 199.497348
L 272.257333 199.305896
L 272.404971 199.42163
L 272.552608 199.289723
L 272.847883 199.425804
L 272.99552 199.556506
L 273.143158 199.353847
L 273.290795 199.477709
L 273.733707 199.436864
L 273.881344 199.573476
L 274.028982 199.363659
L 274.176619 199.451533
L 274.324256 199.324042
L 274.471894 199.490601
L 274.619531 199.388755
L 275.062443 199.547427
L 275.210081 199.562656
L 275.357718 199.438992
L 275.948267 199.658861
L 276.243542 199.565441
L 276.391179 199.182798
L 276.834092 199.488583
L 276.981729 199.536676
L 277.129366 199.409863
L 277.572278 199.585288
L 277.867553 199.514607
L 278.162828 199.526204
L 278.458102 199.151127
L 278.753377 199.538739
L 278.901015 199.312356
L 279.196289 199.516228
L 279.343927 199.610398
L 279.491564 199.415615
L 279.786839 199.574191
L 279.934476 199.628646
L 280.082113 199.383
L 280.377388 199.607801
L 280.525025 201.177274
L 280.672663 200.703324
L 280.8203 201.132163
L 280.967937 200.710577
L 281.115575 202.092157
L 281.41085 199.254804
L 281.853762 201.70439
L 282.001399 201.741596
L 282.149036 201.437843
L 282.296674 201.543306
L 282.444311 201.476245
L 282.591948 202.406804
L 283.03486 201.403034
L 283.330135 201.968288
L 283.477773 201.867705
L 283.62541 200.772826
L 283.773047 200.639248
L 283.920685 200.960455
L 284.068322 202.069411
L 284.215959 202.244405
L 284.363597 202.723105
L 284.511234 202.383947
L 284.658871 202.532016
L 284.806509 202.332711
L 284.954146 202.346409
L 285.101783 202.683273
L 285.249421 202.489845
L 285.397058 201.879597
L 285.544696 202.033923
L 285.692333 201.627178
L 285.83997 202.156925
L 285.987608 201.774985
L 286.135245 202.594855
L 286.43052 202.437764
L 286.578157 202.305395
L 287.021069 202.707715
L 287.463981 202.306058
L 287.759256 202.76477
L 287.906893 202.483719
L 288.054531 201.655648
L 288.202168 201.958981
L 288.349805 201.209932
L 288.497443 201.551494
L 288.64508 202.493247
L 288.792717 202.704162
L 289.087992 202.508947
L 289.235629 202.715567
L 289.826179 202.60087
L 289.973816 202.854253
L 290.121454 202.781606
L 290.416728 202.501439
L 290.564366 202.806799
L 290.85964 202.639543
L 291.007278 202.31569
L 291.154915 202.845069
L 291.302552 202.661098
L 291.893102 202.762171
L 292.040739 202.563057
L 292.336014 202.873687
L 292.483651 202.654604
L 292.631289 202.639302
L 292.778926 202.794561
L 293.074201 202.592877
L 293.369475 203.071949
L 293.517113 202.218357
L 293.66475 202.583702
L 294.107662 202.687176
L 294.2553 202.626263
L 294.402937 202.771581
L 294.550574 202.609256
L 294.845849 202.945033
L 295.288761 202.794924
L 295.436398 202.495093
L 295.584036 202.654229
L 295.731673 202.603049
L 296.174585 203.007268
L 296.322222 202.774465
L 296.617497 202.840309
L 296.765135 202.714952
L 297.060409 202.940145
L 297.208047 202.996405
L 297.355684 202.795117
L 297.650959 202.88309
L 297.946233 202.276641
L 298.241508 202.794456
L 298.536783 203.032955
L 298.68442 202.798565
L 298.832058 202.864141
L 298.979695 202.78129
L 299.27497 202.333426
L 299.717882 202.931066
L 299.865519 202.523058
L 300.160794 203.179399
L 300.456068 202.756264
L 300.603706 202.852124
L 300.751343 202.702983
L 301.046618 203.0862
L 301.48953 202.893064
L 301.784805 202.800691
L 301.932442 203.127858
L 302.080079 203.002348
L 302.227717 202.658271
L 302.375354 202.848214
L 302.522991 202.790986
L 302.670629 203.126053
L 302.818266 203.060169
L 302.965904 202.719701
L 303.261178 202.951729
L 303.408816 202.802424
L 303.556453 203.028076
L 303.70409 202.863563
L 303.851728 202.90058
L 303.999365 203.094812
L 304.147002 202.608173
L 304.442277 203.044216
L 305.180464 202.900891
L 305.328101 202.958706
L 305.623376 202.906329
L 305.771013 203.171973
L 305.918651 202.84736
L 306.066288 202.88682
L 306.213925 202.668985
L 306.361563 202.960114
L 306.5092 202.536122
L 306.656837 202.882558
L 306.952112 202.864193
L 307.099749 202.493126
L 307.247387 203.014271
L 307.395024 203.078331
L 307.542662 202.926832
L 307.985574 203.078897
L 308.280848 202.721932
L 308.428486 202.692481
L 308.871398 203.036937
L 309.166672 202.865264
L 309.609585 203.003652
L 309.757222 202.735772
L 309.904859 203.004083
L 310.052497 193.475612
L 310.347771 204.727361
L 310.495409 203.655682
L 310.790683 205.038442
L 310.938321 204.557699
L 311.085958 202.978838
L 311.233595 205.381971
L 311.381233 204.966649
L 311.52887 205.007886
L 311.676508 204.823195
L 311.971782 205.366504
L 312.267057 205.90341
L 312.562332 205.341671
L 312.857606 204.215702
L 313.005244 204.665835
L 313.152881 205.523437
L 313.300518 205.620078
L 313.448156 205.424023
L 313.595793 205.53991
L 313.891068 204.61054
L 314.038705 203.940271
L 314.629255 205.626907
L 314.776892 205.448179
L 315.072167 205.982939
L 315.219804 205.692759
L 315.367441 204.989128
L 315.515079 205.465845
L 315.662716 205.296444
L 315.810353 205.774255
L 316.105628 205.909867
L 316.253266 205.618605
L 316.400903 205.964134
L 316.54854 205.591341
L 316.696178 205.709257
L 317.13909 204.74014
L 317.286727 204.797366
L 317.434364 204.627903
L 317.729639 204.85449
L 318.024914 205.844245
L 318.172551 205.441828
L 318.467826 205.875076
L 318.763101 205.708599
L 318.910738 205.929926
L 319.058375 205.721938
L 319.206013 205.933823
L 319.35365 205.912805
L 319.501287 206.076503
L 319.648925 205.912583
L 319.796562 206.053207
L 319.944199 205.977985
L 320.091837 205.718162
L 320.534749 206.195613
L 320.682386 205.804423
L 320.977661 206.073651
L 321.272936 205.326638
L 321.56821 206.237166
L 321.715848 206.180602
L 321.863485 205.954211
L 322.011122 206.040027
L 322.15876 205.799287
L 322.306397 206.215515
L 322.749309 205.556056
L 323.192221 206.09523
L 323.487496 205.594651
L 323.635133 206.21495
L 323.930408 205.750498
L 324.225683 206.109912
L 324.37332 206.247059
L 324.520957 205.800874
L 324.816232 205.830501
L 324.96387 206.180978
L 325.259144 206.239274
L 325.554419 205.794432
L 325.702056 206.139606
L 325.849694 205.977171
L 325.997331 206.42122
L 326.144968 206.287478
L 326.292606 205.994103
L 326.440243 206.200115
L 326.58788 206.12121
L 326.735518 205.860881
L 326.883155 206.1596
L 327.326067 205.689685
L 327.473705 205.775814
L 327.621342 206.097725
L 327.768979 205.807296
L 328.064254 206.369971
L 328.359529 205.999455
L 328.507166 206.216107
L 328.802441 206.198564
L 329.245353 206.192906
L 329.39299 206.077459
L 329.540628 206.322016
L 329.688265 206.237472
L 329.835902 206.365643
L 330.131177 206.125738
L 330.574089 206.163046
L 330.721726 206.117605
L 330.869364 206.311676
L 331.017001 206.162056
L 331.312276 206.351979
L 331.459913 206.109167
L 331.607551 206.249557
L 331.902825 205.99568
L 332.050463 206.299404
L 332.1981 206.346188
L 332.641012 206.198061
L 332.788649 206.240135
L 332.936287 206.453765
L 333.231561 206.032497
L 333.379199 206.151887
L 333.526836 206.613419
L 333.674474 206.251302
L 333.822111 206.345029
L 333.969748 206.167507
L 334.265023 206.297503
L 334.41266 206.413593
L 334.560298 206.344878
L 334.707935 206.411518
L 334.855572 206.294896
L 335.00321 206.410493
L 335.150847 206.117551
L 335.593759 206.094612
L 335.741397 205.430089
L 336.036671 206.319724
L 336.184309 205.993239
L 336.627221 206.310947
L 336.774858 205.919557
L 336.922495 206.293188
L 337.070133 206.251697
L 337.365407 206.011401
L 337.660682 206.17234
L 337.955957 206.368431
L 338.103594 206.232037
L 338.398869 206.261981
L 338.546506 206.079034
L 338.841781 206.448176
L 339.137056 206.229386
L 339.284693 205.894112
L 339.43233 206.100198
L 339.579968 205.696131
L 339.727605 204.503028
L 339.875242 206.998039
L 340.02288 204.481345
L 340.170517 206.611681
L 340.318155 204.715966
L 340.465792 207.028415
L 340.613429 206.298487
L 340.761067 206.940442
L 340.908704 208.265928
L 341.203979 208.849726
L 341.351616 207.726376
L 341.646891 208.437746
L 341.942165 208.584008
L 342.089803 207.982036
L 342.23744 208.083728
L 342.385078 208.048007
L 342.532715 208.748435
L 342.82799 207.920089
L 342.975627 208.413534
L 343.123264 208.294208
L 343.270902 208.641505
L 343.566176 208.293573
L 343.861451 206.96686
L 344.156726 208.545323
L 344.304363 208.337671
L 344.452 208.990237
L 344.747275 208.382994
L 345.04255 208.755057
L 345.190187 208.19109
L 345.337825 208.660849
L 345.485462 208.510579
L 345.633099 207.764814
L 345.780737 208.427478
L 345.928374 208.509021
L 346.076011 207.730038
L 346.223649 207.839515
L 346.371286 207.569758
L 346.518923 208.562062
L 346.814198 208.595863
L 346.961836 208.490951
L 347.109473 208.231161
L 347.404748 208.621415
L 347.552385 208.457585
L 347.700022 208.880815
L 347.84766 208.71053
L 347.995297 208.781425
L 348.142934 208.716658
L 348.290572 208.970227
L 348.585846 208.327635
L 348.881121 208.816687
L 349.028759 208.949554
L 349.324033 208.525034
L 349.619308 208.844344
L 349.914583 208.841344
L 350.209857 208.818712
L 350.357495 208.456176
L 350.505132 208.925054
L 350.652769 208.718037
L 350.948044 208.802641
L 351.095682 208.925162
L 351.538594 208.775576
L 351.686231 209.048029
L 352.129143 208.719308
L 352.27678 209.310668
L 352.424418 208.744347
L 352.719692 209.002337
L 352.86733 208.740872
L 353.162604 208.936621
L 353.310242 208.718281
L 353.605517 208.964212
L 353.900791 208.648994
L 354.048429 208.774701
L 354.196066 208.671675
L 354.343703 208.36006
L 354.638978 209.142238
L 355.08189 208.882188
L 355.67244 208.917299
L 355.820077 209.113744
L 356.115352 208.835605
L 356.410626 208.551215
L 356.853538 209.084035
L 357.001176 208.665473
L 357.148813 208.991985
L 357.29645 208.97925
L 357.444088 208.620121
L 357.591725 209.222367
L 357.739363 209.215534
L 358.182275 208.715422
L 358.329912 208.840293
L 358.477549 209.272748
L 358.625187 209.260209
L 358.920461 208.826294
L 359.068099 208.944712
L 359.215736 208.878582
L 359.363373 208.557961
L 359.511011 208.645999
L 359.658648 209.146069
L 359.806286 209.218616
L 360.10156 208.958339
L 360.249198 208.951745
L 360.396835 209.126439
L 360.69211 209.069872
L 360.839747 209.186093
L 361.135022 208.934291
L 361.725571 209.253944
L 361.873208 209.059652
L 362.020846 209.202574
L 362.168483 209.106446
L 362.316121 208.726768
L 362.463758 209.25745
L 362.611395 209.263799
L 362.759033 209.030962
L 363.497219 209.098996
L 363.644857 209.197041
L 363.792494 209.051244
L 363.940131 209.224761
L 364.087769 208.935652
L 364.235406 208.983864
L 364.530681 208.87193
L 364.825956 209.085189
L 365.12123 209.182206
L 365.268868 208.919034
L 365.564142 209.19488
L 366.007054 209.072878
L 366.154692 209.346647
L 366.302329 209.214688
L 366.449967 208.631498
L 366.745241 209.310219
L 366.892879 209.004563
L 367.040516 209.032546
L 367.188153 208.936311
L 367.335791 209.382929
L 367.778703 208.912731
L 367.92634 209.352537
L 368.369252 209.010279
L 368.516889 209.257914
L 368.664527 208.915354
L 368.959802 209.218497
L 369.107439 295.488
L 369.550351 295.371549
L 369.993263 295.38451
L 370.288538 295.400516
L 370.879087 295.424985
L 372.503098 295.439796
L 373.093648 295.419357
L 374.274746 295.414348
L 375.603483 295.436121
L 378.408592 295.437627
L 385.052273 295.438155
L 388.743207 295.452506
L 397.158537 295.448805
L 398.487273 295.454301
L 398.487273 295.454301
" clip-path="url(#p75ef95666e)" style="fill: none; stroke: #1f77b4; stroke-width: 1.5; stroke-linecap: round"/>
   </g>
   <g id="line2d_31">
    <path d="M 73.832727 53.568
L 74.275639 54.811423
L 74.423277 53.832259
L 74.570914 54.229011
L 74.718551 53.662433
L 74.866189 54.50882
L 75.013826 54.186456
L 75.161463 54.789673
L 75.309101 54.541166
L 75.456738 54.906877
L 75.604376 54.660349
L 76.047288 55.054634
L 76.194925 54.823366
L 76.342562 55.071613
L 76.4902 54.959451
L 76.637837 55.075156
L 76.785474 54.982988
L 77.080749 55.13318
L 77.376024 54.980572
L 77.671299 54.963836
L 77.818936 55.196706
L 77.966573 55.075455
L 78.114211 55.270142
L 78.261848 55.126879
L 78.557123 55.19253
L 78.70476 55.086076
L 79.000035 55.291549
L 79.442947 54.989915
L 79.590584 55.335807
L 79.738222 54.771859
L 79.885859 55.213268
L 80.033496 55.245427
L 80.181134 54.887183
L 80.328771 55.387393
L 80.476408 55.179306
L 80.624046 55.403852
L 80.91932 55.217839
L 81.066958 55.33465
L 81.214595 55.140761
L 81.50987 55.356203
L 81.657507 55.194947
L 81.952782 55.351126
L 82.100419 55.277807
L 82.395694 55.404015
L 82.543331 55.489581
L 82.690969 55.339682
L 82.838606 55.421136
L 82.986243 55.306888
L 83.281518 55.466321
L 83.72443 55.467872
L 83.872067 55.251592
L 84.019705 55.426622
L 84.167342 55.299195
L 84.31498 55.55211
L 84.462617 55.52914
L 84.610254 55.355603
L 84.757892 55.509542
L 84.905529 55.315563
L 85.348441 55.636353
L 85.496078 55.43669
L 85.643716 55.583584
L 85.791353 55.544373
L 85.93899 55.356501
L 86.086628 55.623753
L 86.234265 55.456435
L 86.52954 55.553382
L 86.677177 55.456198
L 86.824815 55.651723
L 86.972452 55.65921
L 87.120089 55.463288
L 87.415364 55.594401
L 87.563001 55.536569
L 87.710639 55.637839
L 87.858276 55.495452
L 88.153551 55.657771
L 88.301188 55.545441
L 88.448825 55.737961
L 88.7441 55.528972
L 88.891738 55.555601
L 89.187012 55.751624
L 89.33465 55.562656
L 89.629924 55.702153
L 89.777562 55.375269
L 89.925199 55.687204
L 90.072836 55.500932
L 90.220474 55.533441
L 90.368111 55.786542
L 91.401573 55.658344
L 91.696847 55.869546
L 91.992122 55.672201
L 92.139759 55.769405
L 92.435034 55.619161
L 92.582671 55.70713
L 92.730309 55.648281
L 93.025584 55.805076
L 93.468496 55.849516
L 93.76377 55.742451
L 94.206682 55.81108
L 94.35432 55.98439
L 94.501957 55.783398
L 94.797232 55.762126
L 94.944869 55.665152
L 95.240144 55.88176
L 95.387781 55.636651
L 95.535419 55.933105
L 95.683056 55.779653
L 96.273605 55.929943
L 96.421243 55.722388
L 96.716517 55.880522
L 96.864155 55.909322
L 97.011792 55.746938
L 97.159429 55.962301
L 97.897616 55.843485
L 98.192891 55.898522
L 98.340528 55.774222
L 98.488166 55.934026
L 98.931078 55.792646
L 99.078715 55.967841
L 99.37399 55.883563
L 99.521627 55.954026
L 99.669265 55.590999
L 99.816902 55.997121
L 100.259814 55.982616
L 100.407451 56.002375
L 100.702726 55.865198
L 101.145638 56.041634
L 101.440913 55.986068
L 101.58855 56.049936
L 101.736188 55.897857
L 101.883825 56.020825
L 102.031462 55.928886
L 102.326737 56.04948
L 102.622012 55.972312
L 102.769649 56.037968
L 102.917286 55.948966
L 103.212561 55.983141
L 103.360198 86.509551
L 103.507836 90.578867
L 103.655473 89.528025
L 103.803111 96.025545
L 103.950748 96.806711
L 104.098385 95.189554
L 104.39366 98.486508
L 104.541297 98.293004
L 104.688935 99.069522
L 104.836572 98.803846
L 104.984209 99.363678
L 105.279484 99.369973
L 105.427121 99.860243
L 105.574759 99.502827
L 105.722396 99.99094
L 105.870033 99.457156
L 106.017671 100.263604
L 106.165308 99.389637
L 106.312946 100.356406
L 106.60822 100.143514
L 106.755858 100.559733
L 106.903495 100.190592
L 107.051132 100.596195
L 107.19877 99.836961
L 107.346407 101.026361
L 107.494044 100.923085
L 107.641682 100.576005
L 107.936956 100.810841
L 108.084594 100.866237
L 108.232231 100.801361
L 108.379869 101.066137
L 108.527506 99.30993
L 108.675143 100.815446
L 108.822781 100.012214
L 108.970418 101.132389
L 109.118055 101.222923
L 109.265693 101.076394
L 109.41333 101.326225
L 109.560967 100.625329
L 109.708605 101.097534
L 109.856242 100.717162
L 110.003879 101.369319
L 110.151517 101.052814
L 110.299154 101.253803
L 110.446792 101.105592
L 110.742066 101.532481
L 110.889704 100.793948
L 111.037341 101.542764
L 111.184978 101.238913
L 111.480253 101.550063
L 111.62789 101.174568
L 111.775528 101.556318
L 111.923165 100.19726
L 112.070802 101.484948
L 112.21844 100.681637
L 112.366077 101.498527
L 112.513714 100.938456
L 112.661352 101.658776
L 112.808989 101.072153
L 112.956627 101.820055
L 113.104264 101.606555
L 113.547176 101.8372
L 113.694813 101.195621
L 113.842451 101.677906
L 113.990088 100.678776
L 114.137725 101.762691
L 114.285363 100.82313
L 114.433 101.655907
L 114.580637 101.34015
L 114.728275 101.962302
L 114.875912 101.466655
L 115.02355 101.956947
L 115.171187 101.921675
L 115.318824 101.29343
L 115.466462 101.798128
L 115.614099 101.522689
L 115.761736 101.946223
L 115.909374 101.696056
L 116.057011 101.981421
L 116.499923 101.683035
L 116.64756 102.08171
L 116.795198 101.76727
L 116.942835 102.093366
L 117.090473 101.558815
L 117.23811 102.018138
L 117.385747 101.878014
L 117.533385 102.012006
L 117.681022 101.923635
L 117.828659 102.037223
L 117.976297 101.727768
L 118.123934 102.254953
L 118.271571 101.613323
L 118.419209 102.102791
L 118.566846 102.143451
L 118.714483 102.061704
L 119.009758 102.114722
L 119.157396 102.129987
L 119.305033 102.259921
L 119.45267 102.0747
L 119.600308 102.116332
L 119.747945 101.864121
L 119.895582 102.320733
L 120.338494 102.237604
L 120.633769 102.222038
L 120.781406 102.101564
L 120.929044 102.18289
L 121.076681 102.016969
L 121.224318 102.361305
L 121.371956 102.202747
L 121.519593 102.261317
L 121.667231 102.05723
L 121.814868 102.426576
L 121.962505 101.981919
L 122.110143 102.397609
L 122.25778 102.072723
L 122.405417 102.325685
L 122.553055 102.184515
L 122.700692 102.555483
L 122.848329 102.210519
L 123.291241 102.484864
L 123.438879 101.905573
L 123.586516 102.456137
L 123.734154 102.334379
L 123.881791 102.519851
L 124.029428 102.13324
L 124.177066 102.518073
L 124.324703 102.182894
L 124.47234 102.462611
L 124.619978 102.310582
L 124.767615 102.341366
L 124.915252 102.571056
L 125.06289 102.191917
L 125.210527 102.457819
L 125.358164 101.825139
L 125.505802 102.55011
L 125.653439 101.822494
L 125.801077 102.561265
L 125.948714 102.350948
L 126.096351 102.401751
L 126.243989 102.274528
L 126.391626 102.558895
L 126.539263 102.440022
L 126.834538 102.564528
L 126.982175 102.42803
L 127.129813 102.660604
L 127.27745 102.171416
L 127.425087 102.583827
L 127.572725 102.416515
L 127.720362 102.724687
L 127.868 102.347314
L 128.015637 102.582809
L 128.163274 102.470877
L 128.310912 102.522355
L 128.458549 102.695397
L 128.606186 102.493071
L 128.753824 102.69586
L 128.901461 102.481494
L 129.049098 102.624305
L 129.787285 102.649491
L 129.934922 102.372411
L 130.08256 102.692624
L 130.230197 102.372228
L 130.377835 102.741994
L 130.525472 102.568974
L 130.820747 102.651387
L 130.968384 102.519135
L 131.116021 102.751323
L 131.263659 102.66079
L 131.411296 102.770638
L 131.558933 102.47987
L 131.854208 102.68738
L 132.001845 102.292531
L 132.149483 102.780488
L 132.29712 102.295316
L 132.444758 102.810382
L 132.592395 102.487128
L 132.740032 102.772896
L 132.88767 95.671045
L 133.182944 105.089817
L 133.330582 107.313581
L 133.478219 107.473568
L 133.625856 106.808569
L 133.773494 109.304954
L 133.921131 109.818221
L 134.068768 108.725758
L 134.364043 110.957048
L 134.511681 110.894545
L 134.659318 110.496306
L 134.954593 111.687663
L 135.10223 110.445916
L 135.249867 110.598863
L 135.397505 112.356548
L 135.545142 112.082013
L 135.692779 112.625867
L 135.840417 110.464933
L 135.988054 112.410478
L 136.283329 112.387158
L 136.430966 112.232214
L 136.578603 113.430185
L 136.726241 111.520365
L 136.873878 113.271675
L 137.021516 113.287033
L 137.169153 111.929707
L 137.464428 113.779441
L 137.759702 112.712077
L 137.90734 113.795243
L 138.054977 112.46568
L 138.202614 113.862574
L 138.350252 114.038782
L 138.497889 113.974884
L 138.645526 113.476265
L 138.940801 113.812858
L 139.088439 114.783176
L 139.236076 113.312871
L 139.383713 114.221933
L 139.531351 114.334305
L 139.678988 114.036337
L 139.974263 114.557819
L 140.1219 112.593138
L 140.269537 115.006491
L 140.417175 114.667942
L 140.564812 113.027375
L 140.712449 114.985246
L 140.860087 114.496336
L 141.007724 114.926503
L 141.155362 114.176768
L 141.302999 114.063586
L 141.450636 115.453647
L 141.598274 114.79097
L 141.745911 115.162377
L 141.893548 114.227023
L 142.041186 115.318711
L 142.188823 114.341661
L 142.33646 115.707526
L 142.484098 115.480646
L 142.631735 112.400485
L 142.779372 115.790787
L 142.92701 115.662857
L 143.074647 113.075706
L 143.222285 115.875416
L 143.369922 115.619633
L 143.517559 114.212638
L 143.665197 115.773131
L 143.812834 115.284309
L 143.960471 115.276452
L 144.108109 116.160107
L 144.255746 114.729813
L 144.551021 116.170029
L 144.698658 114.121043
L 144.846295 116.116507
L 145.14157 114.945855
L 145.289207 116.272681
L 145.436845 113.95268
L 145.584482 116.225387
L 145.73212 116.560547
L 145.879757 116.028274
L 146.027394 115.959823
L 146.322669 116.559038
L 146.470306 115.748412
L 146.617944 115.777575
L 146.765581 116.58077
L 146.913218 115.210602
L 147.060856 116.506288
L 147.208493 115.622098
L 147.35613 115.931337
L 147.503768 116.855148
L 147.651405 115.434279
L 147.799043 116.550003
L 147.94668 116.622182
L 148.094317 116.541555
L 148.241955 116.330886
L 148.389592 115.378795
L 148.537229 117.127697
L 148.684867 116.138794
L 148.980141 116.649193
L 149.127779 116.325963
L 149.423053 116.873606
L 149.570691 115.992664
L 149.718328 117.22138
L 150.013603 116.640846
L 150.16124 116.556608
L 150.308878 116.149394
L 150.456515 117.093471
L 150.604152 116.281744
L 150.75179 116.43339
L 150.899427 117.083338
L 151.047064 115.990578
L 151.194702 117.221844
L 151.342339 116.565149
L 151.489976 116.932344
L 151.637614 116.575298
L 151.785251 117.506899
L 151.932889 116.278683
L 152.080526 117.276418
L 152.228163 117.04307
L 152.375801 117.038193
L 152.523438 117.700432
L 152.671075 116.604918
L 152.96635 117.56716
L 153.113987 114.64611
L 153.261625 117.792382
L 153.409262 115.413931
L 153.556899 117.851848
L 153.704537 116.790314
L 153.852174 117.324277
L 153.999811 117.071114
L 154.295086 117.465475
L 154.442724 115.387411
L 154.590361 117.986646
L 154.737998 115.646837
L 155.033273 118.060851
L 155.18091 115.979177
L 155.328548 118.100226
L 155.476185 116.015212
L 155.77146 118.045754
L 155.919097 116.694926
L 156.066734 117.926092
L 156.214372 117.847232
L 156.362009 117.363469
L 156.509647 117.354668
L 156.657284 117.522928
L 156.804921 117.902125
L 156.952559 117.426099
L 157.100196 118.035967
L 157.247833 115.580537
L 157.395471 118.189612
L 157.543108 115.848615
L 157.690745 118.075967
L 157.838383 117.004528
L 157.98602 118.324262
L 158.133657 116.786362
L 158.281295 118.173163
L 158.428932 117.142296
L 158.57657 118.159572
L 158.724207 117.469992
L 158.871844 117.941249
L 159.019482 117.034503
L 159.167119 118.471938
L 159.462394 117.449202
L 159.610031 117.416727
L 159.757668 118.131159
L 160.20058 117.781753
L 160.348218 117.920068
L 160.495855 118.546518
L 160.643492 117.107486
L 160.79113 118.302372
L 160.938767 117.716661
L 161.086405 117.754553
L 161.234042 118.765882
L 161.381679 116.48005
L 161.529317 118.596535
L 161.676954 116.889941
L 161.824591 118.764624
L 161.972229 117.20778
L 162.119866 117.969851
L 162.267503 118.003809
L 162.415141 71.289404
L 162.858053 77.631765
L 163.00569 77.703738
L 163.300965 80.662665
L 163.448602 79.818984
L 163.743877 81.87869
L 163.891514 82.011305
L 164.039152 81.637315
L 164.334426 83.032589
L 164.482064 83.365214
L 164.629701 82.960659
L 164.924976 84.129204
L 165.072613 83.064283
L 165.220251 84.23743
L 165.367888 84.297235
L 165.515525 83.861586
L 165.663163 84.779044
L 165.8108 83.615073
L 166.106075 85.372829
L 166.253712 84.491134
L 166.401349 85.238075
L 166.548987 85.155561
L 166.696624 85.511281
L 166.844261 84.823495
L 166.991899 85.614149
L 167.287174 85.682164
L 167.582448 86.224759
L 167.730086 86.111375
L 167.877723 84.105829
L 168.02536 86.529166
L 168.172998 84.797193
L 168.320635 86.71182
L 168.468272 85.833517
L 168.763547 87.028513
L 169.058822 86.550274
L 169.206459 86.768627
L 169.354096 86.448368
L 169.501734 87.257386
L 169.649371 85.972954
L 169.797009 87.432113
L 169.944646 86.188652
L 170.092283 87.439191
L 170.239921 86.746143
L 170.387558 87.435351
L 170.682833 87.237402
L 170.978107 87.850209
L 171.125745 87.17752
L 171.273382 87.953372
L 171.716294 87.519228
L 171.863932 87.940128
L 172.011569 87.727295
L 172.159206 88.399156
L 172.306844 87.367309
L 172.454481 88.505993
L 172.602118 87.309564
L 172.749756 88.82495
L 172.897393 86.949419
L 173.04503 88.725818
L 173.192668 88.05187
L 173.340305 88.976321
L 173.487942 87.87013
L 173.63558 88.958123
L 173.783217 87.921461
L 174.078492 89.070652
L 174.521404 88.471809
L 174.669041 89.280316
L 174.816679 88.779059
L 174.964316 89.003007
L 175.111953 88.879265
L 175.259591 89.594657
L 175.702503 88.698629
L 175.85014 89.795429
L 175.997778 89.259763
L 176.145415 89.34997
L 176.293052 88.947727
L 176.44069 89.720684
L 176.588327 89.077961
L 176.735964 89.85466
L 176.883602 89.569804
L 177.031239 89.627534
L 177.178876 89.91255
L 177.326514 89.451708
L 177.474151 89.892217
L 177.621788 89.729405
L 177.917063 90.192491
L 178.0647 89.972538
L 178.212338 90.050493
L 178.359975 89.755593
L 178.507613 90.308348
L 178.65525 89.799583
L 178.802887 90.561301
L 178.950525 89.608717
L 179.098162 90.464983
L 179.245799 89.829333
L 179.393437 90.724184
L 179.541074 90.366027
L 179.688711 90.46045
L 179.836349 90.252452
L 179.983986 90.579791
L 180.131623 90.324365
L 180.279261 90.860554
L 180.426898 90.600808
L 180.86981 90.664793
L 181.017448 90.508273
L 181.165085 90.515462
L 181.312722 90.706654
L 181.46036 91.177314
L 181.607997 90.557872
L 181.755634 91.167447
L 181.903272 90.869395
L 182.050909 90.878121
L 182.198546 91.181954
L 182.493821 90.709039
L 182.789096 91.413637
L 183.084371 91.156234
L 183.232008 90.797331
L 183.379645 91.413612
L 183.527283 90.829501
L 183.67492 91.77153
L 183.822557 90.608745
L 183.970195 91.723009
L 184.117832 90.623753
L 184.265469 91.68693
L 184.413107 90.792918
L 184.560744 91.955248
L 184.708381 90.701434
L 184.856019 91.888312
L 185.003656 91.332006
L 185.151294 91.75315
L 185.298931 91.34118
L 185.594206 91.902941
L 186.184755 91.820509
L 186.48003 92.026377
L 186.627667 92.020752
L 186.775304 91.746482
L 187.070579 92.01688
L 187.218217 92.313186
L 187.365854 91.888293
L 187.513491 92.04917
L 187.661129 91.755262
L 187.808766 92.581212
L 187.956403 91.983441
L 188.251678 92.184413
L 188.399315 92.427237
L 188.546953 92.159742
L 188.69459 92.544461
L 188.989865 92.258778
L 189.137502 92.600507
L 189.28514 92.216453
L 189.432777 92.592281
L 189.580414 92.35647
L 189.875689 92.843857
L 190.023326 92.394321
L 190.466238 92.826921
L 190.613876 92.510311
L 190.761513 92.980569
L 190.90915 92.396733
L 191.056788 92.819012
L 191.204425 92.416108
L 191.352063 93.116254
L 191.4997 92.459873
L 191.647337 92.786912
L 191.794975 92.758343
L 191.942612 122.296053
L 192.090249 113.620685
L 192.237887 117.703227
L 192.385524 126.948719
L 192.533161 125.618431
L 192.680799 125.350382
L 192.828436 130.288034
L 192.976073 129.695889
L 193.123711 130.973448
L 193.271348 131.147422
L 193.418985 130.295579
L 193.71426 131.397295
L 193.861898 131.324845
L 194.009535 131.674496
L 194.157172 129.655629
L 194.30481 132.338868
L 194.452447 131.085441
L 194.600084 132.748123
L 194.747722 131.889685
L 195.042996 133.466602
L 195.190634 133.218432
L 195.338271 131.644124
L 195.485908 133.831337
L 195.633546 133.537951
L 195.781183 133.858011
L 195.928821 133.895225
L 196.076458 133.614251
L 196.224095 133.956881
L 196.371733 133.768189
L 196.51937 133.859646
L 196.667007 133.288797
L 196.814645 133.330829
L 196.962282 133.783484
L 197.257557 132.492758
L 197.552831 134.084405
L 197.700469 132.601942
L 197.995744 134.859782
L 198.143381 134.365093
L 198.291018 133.256595
L 198.438656 134.661018
L 198.586293 134.415985
L 198.73393 134.759758
L 198.881568 134.677632
L 199.029205 133.32327
L 199.176842 135.138751
L 199.472117 134.053066
L 199.619754 135.203524
L 199.767392 134.603778
L 199.915029 134.764737
L 200.062667 134.670459
L 200.210304 135.449238
L 200.357941 134.567458
L 200.505579 135.044541
L 200.653216 134.837345
L 200.948491 135.224253
L 201.096128 134.637307
L 201.243765 135.155097
L 201.391403 134.21309
L 201.53904 135.165049
L 201.686677 134.761988
L 201.834315 135.023573
L 201.981952 135.734304
L 202.129589 134.783537
L 202.277227 134.752293
L 202.424864 135.600593
L 202.720139 134.680188
L 202.867776 135.616782
L 203.015414 135.405632
L 203.163051 135.709037
L 203.310688 134.095449
L 203.458326 135.54539
L 203.605963 135.861087
L 203.7536 134.953913
L 203.901238 135.903508
L 204.048875 135.339382
L 204.196512 133.905585
L 204.34415 135.505068
L 204.491787 135.648523
L 204.639425 133.871302
L 204.787062 135.584518
L 204.934699 135.950926
L 205.229974 135.495216
L 205.525249 136.15167
L 205.672886 133.664879
L 205.820523 135.922344
L 205.968161 135.832121
L 206.115798 134.465122
L 206.263435 136.212752
L 206.55871 135.425575
L 206.706348 135.821414
L 206.853985 135.624791
L 207.001622 135.899243
L 207.14926 135.924342
L 207.296897 134.629614
L 207.592172 136.051565
L 207.739809 135.340367
L 207.887446 136.306592
L 208.035084 135.789125
L 208.182721 135.7475
L 208.330358 135.916977
L 208.477996 135.332294
L 208.625633 136.128558
L 208.77327 136.09013
L 208.920908 135.01036
L 209.068545 136.377513
L 209.216183 136.13504
L 209.36382 134.447507
L 209.511457 136.044372
L 209.659095 136.137684
L 209.806732 135.56978
L 209.954369 136.219288
L 210.249644 135.42862
L 210.397281 136.427109
L 210.544919 136.402832
L 210.692556 134.560815
L 210.840193 136.491688
L 210.987831 136.41347
L 211.135468 136.010679
L 211.283106 136.675409
L 211.430743 136.343539
L 211.57838 135.45782
L 211.726018 136.578354
L 211.873655 136.265755
L 212.021292 136.407374
L 212.16893 136.128292
L 212.316567 136.724879
L 212.464204 136.719225
L 212.611842 136.243594
L 212.759479 136.451317
L 212.907116 135.968017
L 213.054754 136.741266
L 213.202391 136.540989
L 213.350029 135.496725
L 213.497666 136.933854
L 213.645303 135.60086
L 213.940578 136.925431
L 214.088215 135.814389
L 214.235853 136.300027
L 214.38349 136.193135
L 214.678765 136.980896
L 214.826402 133.84508
L 214.974039 136.685994
L 215.121677 137.025876
L 215.269314 135.699271
L 215.416952 136.584022
L 215.564589 136.541852
L 215.712226 136.08654
L 215.859864 136.752875
L 216.007501 136.03276
L 216.155138 136.188102
L 216.302776 136.744097
L 216.450413 136.001579
L 216.59805 136.939113
L 216.893325 136.696485
L 217.040962 136.937108
L 217.1886 136.783564
L 217.336237 135.693354
L 217.483874 137.097394
L 217.631512 136.789036
L 217.779149 135.564399
L 217.926787 136.996087
L 218.074424 137.070002
L 218.222061 135.308572
L 218.369699 137.067069
L 218.517336 137.093324
L 218.664973 134.270671
L 218.812611 136.630887
L 218.960248 137.053761
L 219.107885 133.757209
L 219.255523 137.074104
L 219.40316 137.134634
L 219.550797 134.136556
L 219.698435 136.728949
L 219.846072 136.980023
L 219.99371 136.121641
L 220.141347 137.125617
L 220.288984 136.970623
L 220.436622 134.999376
L 220.584259 136.765529
L 220.731896 136.944928
L 220.879534 136.828742
L 221.027171 137.236054
L 221.174808 136.436713
L 221.322446 136.256715
L 221.470083 169.073309
L 221.61772 169.439198
L 221.765358 168.926347
L 221.912995 169.108644
L 222.060633 168.570761
L 222.20827 169.435525
L 222.355907 169.483427
L 222.503545 167.980552
L 222.651182 169.47972
L 222.798819 168.606172
L 222.946457 169.547403
L 223.241731 168.61892
L 223.389369 169.390717
L 223.537006 169.235781
L 223.684643 169.548624
L 223.832281 169.430746
L 223.979918 169.135587
L 224.127556 169.69912
L 224.275193 169.037064
L 224.42283 169.523935
L 224.570468 169.254931
L 224.718105 168.636143
L 224.865742 169.676098
L 225.01338 169.120362
L 225.161017 169.470173
L 225.456292 169.569761
L 225.603929 169.420792
L 225.899204 169.572969
L 226.046841 169.137552
L 226.194478 169.345269
L 226.342116 168.985399
L 226.489753 169.798299
L 226.637391 169.3437
L 227.080303 169.527579
L 227.22794 169.668179
L 227.523215 169.365653
L 227.670852 169.683842
L 227.818489 169.491873
L 228.113764 169.420774
L 228.261401 169.679482
L 228.409039 169.45973
L 228.556676 169.717905
L 228.704314 169.342365
L 228.999588 169.672557
L 229.147226 169.479136
L 229.294863 169.657665
L 229.4425 169.358265
L 229.590138 169.647524
L 229.737775 169.500048
L 229.885412 169.733675
L 230.03305 169.449978
L 230.180687 169.749021
L 230.328324 169.563052
L 230.475962 169.564042
L 230.623599 169.709504
L 230.771237 169.268526
L 230.918874 169.773932
L 231.066511 169.186088
L 231.214149 169.791539
L 231.361786 169.496366
L 231.509423 169.468132
L 231.657061 169.765654
L 232.099973 169.487128
L 232.24761 169.688802
L 232.395247 169.470303
L 232.542885 169.721927
L 232.690522 169.633461
L 232.838159 169.734381
L 233.133434 169.571819
L 233.871621 169.743136
L 234.019258 169.519081
L 234.166896 169.759425
L 234.314533 169.418345
L 234.46217 169.938925
L 234.609808 169.225552
L 234.757445 169.737502
L 235.05272 169.764421
L 235.200357 169.569294
L 235.347995 169.814296
L 235.495632 169.633929
L 235.790907 169.708983
L 235.938544 169.694186
L 236.086181 169.514695
L 236.233819 169.802696
L 236.381456 169.403557
L 236.529093 169.793095
L 236.676731 169.681373
L 237.119643 169.798641
L 237.26728 169.506096
L 237.414918 169.87904
L 237.562555 169.674792
L 237.85783 169.772026
L 238.005467 169.536267
L 238.153104 169.880123
L 238.300742 169.473285
L 238.448379 169.907615
L 238.596016 169.616442
L 238.743654 169.685895
L 238.891291 169.881308
L 239.186566 169.569845
L 239.334203 169.888119
L 239.481841 169.393618
L 239.629478 169.863784
L 239.777115 169.400968
L 239.924753 169.90124
L 240.07239 169.589691
L 240.220027 169.869411
L 240.367665 169.453812
L 240.515302 169.836648
L 240.662939 169.372616
L 240.810577 169.994748
L 240.958214 169.552546
L 241.253489 169.878787
L 241.401126 169.750127
L 241.548763 169.445542
L 241.696401 169.923719
L 241.844038 169.586297
L 241.991676 169.848396
L 242.139313 169.711324
L 242.434588 169.924545
L 242.582225 169.570747
L 242.729862 169.884469
L 242.8775 169.743732
L 243.025137 169.823959
L 243.172774 169.637579
L 243.320412 169.883438
L 243.615686 169.671374
L 243.763324 169.962836
L 243.910961 169.650227
L 244.206236 169.852596
L 244.353873 169.755976
L 244.501511 169.828644
L 244.649148 169.768995
L 244.796785 169.905496
L 244.944423 169.406855
L 245.09206 169.860076
L 245.387335 169.8288
L 245.534972 169.718176
L 246.125522 169.968101
L 246.273159 169.723671
L 246.568434 169.857546
L 246.716071 169.769074
L 246.863708 169.968016
L 247.011346 169.453992
L 247.158983 169.895789
L 247.601895 169.985733
L 247.749532 169.629461
L 247.89717 169.897364
L 248.192444 169.722228
L 248.340082 169.982321
L 248.635357 169.727237
L 248.782994 170.020104
L 248.930631 169.5642
L 249.078269 169.996591
L 249.225906 169.536156
L 249.521181 170.038998
L 249.668818 169.530896
L 249.816455 169.973963
L 250.11173 169.618672
L 250.259367 169.939564
L 250.70228 169.86221
L 250.849917 169.928075
L 250.997554 176.559027
L 251.145192 177.634672
L 251.292829 175.546814
L 251.588104 177.694314
L 251.735741 176.828711
L 251.883378 178.166501
L 252.031016 177.394654
L 252.32629 178.310879
L 252.473928 177.157375
L 252.621565 177.936497
L 252.769203 178.081772
L 252.91684 177.846609
L 253.064477 177.96002
L 253.212115 178.218572
L 253.359752 178.216233
L 253.507389 177.643787
L 253.655027 178.342901
L 253.802664 177.136341
L 253.950301 178.308051
L 254.097939 176.807251
L 254.245576 178.40007
L 254.393213 176.48833
L 254.540851 178.07624
L 254.688488 176.981185
L 254.836126 178.341259
L 255.279038 177.760321
L 255.426675 178.41806
L 255.574312 177.784919
L 255.72195 178.334862
L 255.869587 178.024349
L 256.017224 178.322694
L 256.312499 178.030832
L 256.755411 178.393756
L 256.903048 178.39228
L 257.050686 178.14691
L 257.198323 178.178069
L 257.345961 178.348595
L 257.493598 178.140367
L 257.641235 178.314915
L 257.788873 178.031711
L 257.93651 178.155632
L 258.084147 178.128841
L 258.379422 178.491069
L 258.527059 178.022323
L 258.674697 178.342069
L 258.822334 177.980025
L 258.969971 178.349805
L 259.117609 178.214442
L 259.412884 178.420074
L 259.560521 178.180927
L 259.708158 178.41381
L 259.855796 178.016928
L 260.003433 178.431069
L 260.15107 178.17051
L 260.298708 178.396588
L 260.446345 178.15133
L 260.593982 178.405924
L 260.74162 178.143828
L 260.889257 178.431583
L 261.036894 178.272509
L 261.184532 178.414235
L 261.332169 178.167528
L 261.479807 178.143151
L 261.775081 178.467785
L 261.922719 178.310928
L 262.070356 178.376501
L 262.217993 178.018097
L 262.365631 178.472163
L 262.513268 178.129568
L 262.808543 178.380045
L 263.103817 178.258829
L 263.251455 178.254544
L 263.399092 178.447671
L 263.842004 178.052641
L 263.989642 178.404047
L 264.137279 178.362934
L 264.284916 178.558482
L 264.432554 177.7174
L 264.580191 178.494023
L 264.727828 178.033208
L 265.023103 178.542858
L 265.17074 177.856515
L 265.318378 178.421713
L 265.466015 178.407497
L 265.613652 178.165636
L 265.76129 178.472993
L 265.908927 177.842729
L 266.056565 178.622142
L 266.204202 177.757413
L 266.351839 178.429334
L 266.499477 178.306336
L 266.647114 177.832382
L 266.794751 178.57798
L 266.942389 177.983052
L 267.090026 178.537918
L 267.237663 178.069423
L 267.385301 178.445071
L 267.532938 178.362815
L 267.828213 178.456753
L 267.97585 178.002067
L 268.123488 178.440272
L 268.271125 178.149775
L 268.418762 178.641018
L 268.5664 177.913544
L 268.714037 178.446222
L 268.861674 178.160435
L 269.009312 178.270686
L 269.156949 178.593569
L 269.304586 178.209822
L 269.452224 178.41652
L 269.599861 178.062599
L 269.895136 178.636426
L 270.042773 178.020805
L 270.190411 178.437485
L 270.338048 178.015492
L 270.485685 178.657925
L 270.633323 178.036223
L 270.78096 178.472936
L 270.928597 178.178385
L 271.076235 178.523415
L 271.371509 178.21487
L 271.519147 178.520765
L 271.666784 178.298109
L 271.814421 178.507389
L 272.109696 178.212725
L 272.257333 178.552475
L 272.404971 178.277728
L 272.552608 178.609294
L 272.700246 178.156134
L 272.847883 178.525632
L 272.99552 178.247878
L 273.290795 178.540138
L 273.438432 178.207463
L 273.58607 178.548544
L 273.733707 178.278914
L 273.881344 178.500351
L 274.028982 178.057146
L 274.176619 178.540072
L 274.324256 178.101976
L 274.471894 178.541789
L 274.767169 178.37594
L 274.914806 178.304586
L 275.210081 178.516663
L 275.357718 178.218168
L 275.505355 178.512575
L 275.652993 178.378756
L 276.095905 178.510631
L 276.391179 178.270563
L 276.538817 178.543722
L 276.686454 178.287844
L 276.981729 178.53382
L 277.129366 178.609471
L 277.277004 178.225198
L 277.424641 178.575808
L 277.572278 178.346445
L 277.867553 178.454256
L 278.01519 178.274275
L 278.162828 178.656449
L 278.310465 178.039806
L 278.458102 178.640566
L 278.60574 178.079963
L 278.753377 178.566046
L 278.901015 178.010788
L 279.048652 178.517308
L 279.196289 178.609986
L 279.343927 178.335669
L 279.491564 178.363351
L 279.639201 178.533211
L 279.786839 178.279026
L 279.934476 178.543754
L 280.229751 178.433294
L 280.377388 178.452058
L 280.672663 181.860303
L 280.8203 181.650542
L 281.115575 182.25211
L 281.263212 180.940035
L 281.41085 180.776342
L 281.558487 182.198258
L 281.853762 181.726889
L 282.001399 182.376363
L 282.149036 182.381504
L 282.296674 181.903228
L 282.591948 182.36392
L 282.739586 181.976693
L 282.887223 182.552002
L 283.03486 181.33738
L 283.182498 182.435807
L 283.330135 181.733843
L 283.477773 182.689166
L 283.62541 181.187038
L 283.773047 182.05036
L 283.920685 181.060203
L 284.068322 182.606966
L 284.215959 182.027232
L 284.363597 182.36563
L 284.954146 182.318854
L 285.249421 182.436939
L 285.397058 181.965814
L 285.544696 182.524902
L 285.692333 181.498236
L 285.83997 182.567312
L 285.987608 182.089122
L 286.282882 182.44179
L 286.43052 182.094406
L 286.725794 182.577439
L 287.611619 182.162571
L 287.759256 182.440204
L 287.906893 181.987944
L 288.054531 182.620148
L 288.202168 181.684734
L 288.349805 182.497272
L 288.497443 181.421284
L 288.64508 182.621881
L 288.792717 182.206428
L 288.940355 182.576359
L 289.087992 182.440123
L 289.235629 182.563216
L 289.383267 182.305372
L 289.678541 182.558333
L 289.826179 182.30719
L 290.269091 182.380315
L 290.416728 182.215913
L 290.85964 182.645433
L 291.007278 182.181525
L 291.154915 182.247455
L 291.45019 182.607784
L 291.597827 182.315952
L 292.040739 182.625106
L 292.188377 182.311928
L 292.336014 182.504703
L 292.631289 182.502912
L 293.517113 182.539407
L 293.66475 182.223821
L 293.812387 182.670207
L 293.960025 182.187996
L 294.2553 182.566675
L 294.402937 182.347373
L 294.550574 182.64287
L 294.698212 182.368186
L 294.845849 182.587053
L 295.141124 182.475838
L 295.288761 182.466516
L 295.436398 182.107289
L 295.584036 182.707288
L 295.731673 182.380889
L 295.87931 182.563127
L 296.026948 182.353142
L 296.174585 182.470727
L 296.322222 182.390412
L 296.617497 182.608862
L 296.765135 182.247875
L 296.912772 182.519631
L 297.503321 182.654047
L 297.650959 182.321964
L 297.798596 182.624555
L 297.946233 182.094566
L 298.093871 182.811585
L 298.241508 182.364725
L 298.389145 182.287202
L 298.536783 182.362305
L 298.68442 182.739548
L 298.832058 182.520263
L 298.979695 182.778009
L 299.127332 181.908705
L 299.27497 182.780931
L 299.422607 181.948214
L 299.570244 182.615825
L 299.865519 182.512481
L 300.013156 182.616075
L 300.308431 182.374442
L 300.456068 182.663943
L 300.751343 182.479799
L 300.898981 182.542512
L 301.046618 182.3105
L 301.637167 182.726565
L 301.932442 182.298287
L 302.080079 182.663859
L 302.227717 182.441406
L 302.375354 182.627565
L 302.522991 182.431796
L 302.670629 182.634621
L 302.818266 182.492758
L 302.965904 182.621226
L 303.408816 182.41992
L 303.556453 182.676715
L 303.70409 182.42856
L 303.851728 182.596903
L 303.999365 182.224878
L 304.147002 182.822504
L 304.29464 182.493873
L 304.442277 182.458572
L 304.589914 182.661516
L 304.885189 182.483197
L 305.032826 182.676224
L 305.180464 182.575865
L 305.328101 182.70771
L 305.475739 182.415059
L 305.623376 182.378792
L 305.771013 182.647537
L 305.918651 182.474618
L 306.066288 182.695048
L 306.213925 182.292322
L 306.361563 182.730943
L 306.5092 182.014602
L 306.656837 182.724896
L 306.804475 182.05658
L 306.952112 182.721723
L 307.099749 182.187353
L 307.247387 182.600629
L 307.395024 182.67952
L 307.542662 182.174031
L 307.690299 182.66983
L 307.837936 182.481705
L 307.985574 182.510254
L 308.133211 182.751653
L 308.280848 182.163653
L 308.428486 182.786193
L 308.576123 182.225077
L 308.72376 182.622993
L 309.019035 182.642346
L 309.166672 182.398911
L 309.31431 182.632002
L 309.461947 182.203515
L 309.609585 182.798263
L 309.757222 182.363114
L 309.904859 182.699429
L 310.052497 182.009231
L 310.200134 185.187426
L 310.347771 185.529166
L 310.495409 184.418508
L 310.643046 185.994432
L 310.790683 185.857805
L 310.938321 186.096053
L 311.085958 184.242414
L 311.233595 186.251141
L 311.381233 186.092547
L 311.52887 185.615433
L 311.676508 185.633603
L 311.824145 186.228695
L 312.267057 185.9614
L 312.562332 186.264015
L 312.709969 185.109457
L 312.857606 186.106009
L 313.005244 185.065885
L 313.152881 186.126205
L 313.448156 186.101822
L 313.595793 185.893251
L 313.74343 185.392806
L 313.891068 186.059584
L 314.038705 184.489296
L 314.186343 186.400676
L 314.33398 185.489576
L 314.481617 186.133724
L 314.629255 186.244871
L 314.776892 185.74928
L 314.924529 186.318708
L 315.219804 185.689122
L 315.367441 186.525856
L 315.515079 185.5599
L 315.662716 186.221722
L 315.810353 185.786853
L 315.957991 186.443672
L 316.253266 185.922705
L 316.400903 186.207382
L 316.54854 185.634319
L 316.696178 186.268383
L 316.843815 185.588375
L 316.991452 186.393981
L 317.13909 184.896921
L 317.286727 186.178711
L 317.434364 184.89685
L 317.582002 186.382794
L 317.729639 184.96061
L 317.877276 186.257314
L 318.024914 185.922204
L 318.172551 186.197884
L 318.320189 185.717318
L 318.467826 186.082763
L 318.615463 185.826265
L 318.763101 186.52332
L 318.910738 186.142399
L 319.058375 186.193054
L 319.206013 185.792722
L 319.501287 186.389928
L 319.648925 186.094712
L 319.796562 186.086161
L 320.091837 186.354158
L 320.387111 186.035627
L 320.534749 186.282048
L 320.682386 186.118011
L 320.830024 186.366686
L 320.977661 185.967569
L 321.125298 186.237562
L 321.272936 185.911799
L 321.420573 186.434595
L 321.56821 185.831441
L 321.715848 186.229785
L 322.011122 186.298709
L 322.15876 186.05199
L 322.306397 186.313118
L 322.454034 186.20351
L 322.601672 186.390734
L 322.749309 185.477381
L 322.896947 186.310033
L 323.044584 185.935403
L 323.192221 186.513497
L 323.339859 185.887075
L 323.487496 186.290209
L 323.635133 186.070921
L 323.782771 186.455559
L 323.930408 185.883727
L 324.078045 186.354283
L 324.225683 186.074206
L 324.37332 186.184587
L 324.520957 185.932826
L 324.668595 186.454014
L 324.816232 185.997938
L 324.96387 186.312001
L 325.111507 186.038101
L 325.259144 186.415465
L 325.406782 186.014626
L 325.554419 186.339247
L 325.702056 186.169538
L 325.849694 186.441415
L 326.144968 186.131331
L 326.440243 186.354714
L 326.58788 186.159373
L 326.735518 186.28342
L 326.883155 185.991364
L 327.030793 186.511283
L 327.17843 185.673496
L 327.326067 186.298255
L 327.473705 185.712559
L 327.621342 186.371366
L 327.768979 185.842178
L 327.916617 186.318082
L 328.064254 186.415839
L 328.359529 186.084232
L 328.507166 186.32489
L 328.654803 186.133232
L 328.802441 186.292667
L 328.950078 186.127085
L 329.097715 186.486636
L 329.245353 186.224776
L 329.39299 186.265578
L 329.540628 186.135665
L 329.688265 186.282583
L 329.98354 186.282059
L 330.278814 186.234088
L 330.426452 186.216025
L 330.574089 186.472095
L 330.721726 185.966393
L 330.869364 186.369101
L 331.017001 186.100986
L 331.164638 186.425513
L 331.459913 186.16181
L 331.902825 186.481583
L 332.050463 186.164438
L 332.1981 186.162978
L 332.345737 186.468637
L 332.493375 186.183561
L 332.788649 186.327844
L 333.379199 186.264406
L 333.526836 186.064129
L 334.117386 186.480864
L 334.265023 185.971453
L 334.560298 186.49651
L 334.855572 186.123806
L 335.00321 186.378053
L 335.150847 186.130444
L 335.298484 186.428055
L 335.446122 186.017479
L 335.593759 186.438998
L 335.741397 185.5848
L 335.889034 186.659863
L 336.036671 186.03677
L 336.184309 186.397544
L 336.331946 186.004774
L 336.479583 186.438334
L 336.774858 186.307212
L 336.922495 186.001299
L 337.070133 186.457603
L 337.21777 185.766499
L 337.365407 186.422032
L 337.513045 185.805455
L 337.660682 186.614977
L 338.103594 185.983533
L 338.251232 186.467551
L 338.398869 186.51804
L 338.546506 185.983585
L 338.989418 186.439228
L 339.137056 186.062871
L 339.284693 186.405476
L 339.43233 185.942464
L 339.579968 188.444355
L 339.727605 187.512955
L 339.875242 188.204743
L 340.02288 186.633617
L 340.170517 187.255655
L 340.465792 189.08004
L 340.613429 187.565065
L 340.761067 187.689301
L 340.908704 189.195783
L 341.056341 188.817242
L 341.351616 189.134085
L 341.499253 188.612963
L 341.794528 189.230168
L 341.942165 188.703575
L 342.23744 189.335313
L 342.385078 188.50856
L 342.532715 188.840913
L 342.680352 188.713007
L 342.82799 189.402027
L 343.123264 188.373415
L 343.270902 189.114819
L 343.418539 189.1059
L 343.566176 188.528661
L 343.713814 189.385525
L 343.861451 187.55629
L 344.009088 189.12868
L 344.156726 188.80522
L 344.599638 188.893046
L 344.747275 189.172285
L 344.894913 188.798501
L 345.04255 189.149256
L 345.190187 188.607544
L 345.337825 189.218736
L 345.485462 189.029899
L 345.633099 188.114188
L 345.780737 189.223457
L 345.928374 189.210122
L 346.076011 187.95451
L 346.223649 189.30069
L 346.371286 187.94084
L 346.518923 189.018235
L 346.666561 188.715765
L 346.814198 189.396102
L 346.961836 188.792973
L 347.109473 188.959322
L 347.25711 188.492247
L 347.404748 189.289561
L 347.552385 188.685812
L 347.84766 189.115813
L 347.995297 188.886824
L 348.142934 189.266808
L 348.290572 188.736181
L 348.438209 188.98307
L 348.585846 188.785172
L 348.733484 189.292763
L 348.881121 189.053505
L 349.176396 189.133548
L 349.324033 188.871043
L 349.471671 189.091834
L 349.619308 188.618292
L 349.766945 189.250608
L 350.209857 189.107914
L 350.357495 188.628165
L 350.505132 189.207525
L 350.652769 188.747184
L 350.800407 189.095686
L 350.948044 188.974527
L 351.095682 189.159293
L 351.833868 189.141329
L 351.981506 189.289582
L 352.129143 188.890091
L 352.27678 188.849007
L 352.424418 189.379503
L 352.572055 188.943586
L 352.719692 189.104266
L 352.86733 188.587041
L 353.014967 189.22646
L 353.162604 189.153682
L 353.310242 188.596555
L 353.457879 189.145682
L 353.605517 189.034766
L 353.753154 189.351639
L 353.900791 188.600902
L 354.048429 189.170864
L 354.196066 188.769261
L 354.343703 189.31107
L 354.491341 188.74268
L 354.638978 189.128313
L 355.08189 189.079669
L 355.229527 188.902751
L 355.377165 189.293969
L 355.524802 188.800017
L 355.67244 189.095573
L 355.967714 189.195633
L 356.115352 188.905679
L 356.262989 189.36271
L 356.410626 188.570879
L 356.558264 189.19608
L 356.705901 188.891973
L 356.853538 189.247659
L 357.001176 188.652338
L 357.29645 189.159419
L 357.444088 189.118552
L 357.591725 189.254406
L 357.739363 188.974555
L 357.887 189.151197
L 358.034637 189.057907
L 358.182275 189.242037
L 358.329912 188.951875
L 358.477549 189.000167
L 358.625187 188.797751
L 358.920461 189.3312
L 359.068099 188.784602
L 359.215736 189.254036
L 359.363373 188.59385
L 359.511011 189.414406
L 359.658648 188.935616
L 359.953923 189.196817
L 360.10156 189.3234
L 360.396835 188.876663
L 360.544472 189.237309
L 360.69211 189.081151
L 360.987384 189.296095
L 361.282659 189.01746
L 361.430296 189.263256
L 361.577934 189.028057
L 361.725571 189.258431
L 362.020846 189.114797
L 362.316121 189.313683
L 362.611395 188.964207
L 362.759033 189.189422
L 362.90667 189.084684
L 363.054307 189.141943
L 363.201945 188.936272
L 363.349582 189.324693
L 363.497219 189.197073
L 363.644857 189.222302
L 363.792494 189.005986
L 363.940131 189.156567
L 364.087769 188.695365
L 364.235406 189.28825
L 364.383044 188.811712
L 364.530681 189.384439
L 364.825956 189.049479
L 364.973593 189.153043
L 365.12123 189.00958
L 365.268868 189.440265
L 365.71178 188.943508
L 365.859417 189.33413
L 366.007054 189.037504
L 366.154692 189.252966
L 366.302329 188.93679
L 366.449967 189.370501
L 366.597604 188.950762
L 366.745241 189.262746
L 366.892879 189.083571
L 368.073977 189.162234
L 368.221615 189.325868
L 368.369252 189.105443
L 368.516889 189.29584
L 368.664527 188.95203
L 368.812164 188.978658
L 368.959802 189.34264
L 369.107439 242.923499
L 369.255076 242.99769
L 369.550351 242.967935
L 370.1409 242.916145
L 370.436175 242.992376
L 370.73145 242.919771
L 371.469637 242.967353
L 372.650735 242.957549
L 375.455845 242.96361
L 376.341669 242.975378
L 377.670406 242.96545
L 378.999142 242.970925
L 380.327878 242.955944
L 381.213702 242.948055
L 382.837713 242.970505
L 384.018812 242.953041
L 384.609361 242.969295
L 388.890845 242.974843
L 398.487273 242.978164
L 398.487273 242.978164
" clip-path="url(#p75ef95666e)" style="fill: none; stroke: #ff7f0e; stroke-width: 1.5; stroke-linecap: round"/>
   </g>
   <g id="patch_3">
    <path d="M 57.6 307.584
L 57.6 41.472
" style="fill: none"/>
   </g>
   <g id="patch_4">
    <path d="M 414.72 307.584
L 414.72 41.472
" style="fill: none"/>
   </g>
   <g id="patch_5">
    <path d="M 57.6 307.584
L 414.72 307.584
" style="fill: none"/>
   </g>
   <g id="patch_6">
    <path d="M 57.6 41.472
L 414.72 41.472
" style="fill: none"/>
   </g>
   <g id="legend_1">
    <g id="line2d_32">
     <path d="M 358.268438 54.129813
L 368.268438 54.129813
L 378.268438 54.129813
" style="fill: none; stroke: #1f77b4; stroke-width: 1.5; stroke-linecap: round"/>
    </g>
    <g id="text_7">
     <!-- train -->
     <g style="fill: #262626" transform="translate(386.268438 57.629813) scale(0.1 -0.1)">
      <defs>
       <path id="ArialMT-74" d="M 1650 503
L 1731 6
Q 1494 -44 1306 -44
Q 1000 -44 831 53
Q 663 150 594 308
Q 525 466 525 972
L 525 2881
L 113 2881
L 113 3319
L 525 3319
L 525 4141
L 1084 4478
L 1084 3319
L 1650 3319
L 1650 2881
L 1084 2881
L 1084 941
Q 1084 700 1114 631
Q 1144 563 1211 522
Q 1278 481 1403 481
Q 1497 481 1650 503
z
" transform="scale(0.015625)"/>
       <path id="ArialMT-61" d="M 2588 409
Q 2275 144 1986 34
Q 1697 -75 1366 -75
Q 819 -75 525 192
Q 231 459 231 875
Q 231 1119 342 1320
Q 453 1522 633 1644
Q 813 1766 1038 1828
Q 1203 1872 1538 1913
Q 2219 1994 2541 2106
Q 2544 2222 2544 2253
Q 2544 2597 2384 2738
Q 2169 2928 1744 2928
Q 1347 2928 1158 2789
Q 969 2650 878 2297
L 328 2372
Q 403 2725 575 2942
Q 747 3159 1072 3276
Q 1397 3394 1825 3394
Q 2250 3394 2515 3294
Q 2781 3194 2906 3042
Q 3031 2891 3081 2659
Q 3109 2516 3109 2141
L 3109 1391
Q 3109 606 3145 398
Q 3181 191 3288 0
L 2700 0
Q 2613 175 2588 409
z
M 2541 1666
Q 2234 1541 1622 1453
Q 1275 1403 1131 1340
Q 988 1278 909 1158
Q 831 1038 831 891
Q 831 666 1001 516
Q 1172 366 1500 366
Q 1825 366 2078 508
Q 2331 650 2450 897
Q 2541 1088 2541 1459
L 2541 1666
z
" transform="scale(0.015625)"/>
       <path id="ArialMT-69" d="M 425 3934
L 425 4581
L 988 4581
L 988 3934
L 425 3934
z
M 425 0
L 425 3319
L 988 3319
L 988 0
L 425 0
z
" transform="scale(0.015625)"/>
      </defs>
      <use xlink:href="#ArialMT-74"/>
      <use xlink:href="#ArialMT-72" x="27.783203"/>
      <use xlink:href="#ArialMT-61" x="61.083984"/>
      <use xlink:href="#ArialMT-69" x="116.699219"/>
      <use xlink:href="#ArialMT-6e" x="138.916016"/>
     </g>
    </g>
    <g id="line2d_33">
     <path d="M 358.268438 68.275125
L 368.268438 68.275125
L 378.268438 68.275125
" style="fill: none; stroke: #ff7f0e; stroke-width: 1.5; stroke-linecap: round"/>
    </g>
    <g id="text_8">
     <!-- test -->
     <g style="fill: #262626" transform="translate(386.268438 71.775125) scale(0.1 -0.1)">
      <use xlink:href="#ArialMT-74"/>
      <use xlink:href="#ArialMT-65" x="27.783203"/>
      <use xlink:href="#ArialMT-73" x="83.398438"/>
      <use xlink:href="#ArialMT-74" x="133.398438"/>
     </g>
    </g>
   </g>
  </g>
 </g>
 <defs>
  <clipPath id="p75ef95666e">
   <rect x="57.6" y="41.472" width="357.12" height="266.112"/>
  </clipPath>
 </defs>
</svg>
