<?xml version="1.0" encoding="UTF-8" standalone="no"?>
<!DOCTYPE svg PUBLIC "-//W3C//DTD SVG 1.1//EN"
 "http://www.w3.org/Graphics/SVG/1.1/DTD/svg11.dtd">
<!-- Generated by graphviz version 10.0.1 (20240210.2158)
 -->
<!-- Pages: 1 -->
<svg width="779pt" height="776pt"
 viewBox="0.00 0.00 779.02 776.00" xmlns="http://www.w3.org/2000/svg" xmlns:xlink="http://www.w3.org/1999/xlink">
<g id="graph0" class="graph" transform="scale(1 1) rotate(0) translate(4 772)">
<polygon fill="white" stroke="none" points="-4,4 -4,-772 775.02,-772 775.02,4 -4,4"/>
<g id="clust1" class="cluster">
<title>cluster_NNMPO</title>
<polygon fill="none" stroke="black" stroke-width="2" points="8,-65 8,-760 689,-760 689,-65 8,-65"/>
<text text-anchor="middle" x="348.5" y="-742.7" font-family="Times,serif" font-size="14.00">NNMPO</text>
</g>
<g id="clust2" class="cluster">
<title>cluster_Coordinator</title>
<polygon fill="none" stroke="black" stroke-width="2" points="16,-507.5 16,-727.5 124,-727.5 124,-507.5 16,-507.5"/>
<text text-anchor="middle" x="70" y="-710.2" font-family="Times,serif" font-size="14.00">Coordinator</text>
</g>
<g id="clust3" class="cluster">
<title>cluster_Basis</title>
<polygon fill="none" stroke="black" stroke-width="2" points="132,-306.5 132,-616.5 316,-616.5 316,-306.5 132,-306.5"/>
<text text-anchor="middle" x="224" y="-599.2" font-family="Times,serif" font-size="14.00">Basis</text>
</g>
<g id="clust4" class="cluster">
<title>cluster_Phi</title>
<polygon fill="none" stroke="black" stroke-width="2" points="140,-434.5 140,-584 308,-584 308,-434.5 140,-434.5"/>
<text text-anchor="middle" x="224" y="-566.7" font-family="Times,serif" font-size="14.00">Phi</text>
</g>
<g id="clust5" class="cluster">
<title>cluster_TensorTrain</title>
<polygon fill="none" stroke="black" stroke-width="2" points="324,-138 324,-415.5 681,-415.5 681,-138 324,-138"/>
<text text-anchor="middle" x="502.5" y="-398.2" font-family="Times,serif" font-size="14.00">TensorTrain</text>
</g>
<g id="clust6" class="cluster">
<title>cluster_Core</title>
<polygon fill="none" stroke="black" stroke-width="2" points="449,-306.5 449,-383 555,-383 555,-306.5 449,-306.5"/>
<text text-anchor="middle" x="502" y="-365.7" font-family="Times,serif" font-size="14.00">Core</text>
</g>
<g id="clust7" class="cluster">
<title>cluster_TwodotCore</title>
<polygon fill="none" stroke="black" stroke-width="2" points="332,-211 332,-287.5 440,-287.5 440,-211 332,-211"/>
<text text-anchor="middle" x="386" y="-270.2" font-family="Times,serif" font-size="14.00">TwodotCore</text>
</g>
<g id="clust8" class="cluster">
<title>cluster_LeftBlock</title>
<polygon fill="none" stroke="black" stroke-width="2" points="448,-211 448,-287.5 556,-287.5 556,-211 448,-211"/>
<text text-anchor="middle" x="502" y="-270.2" font-family="Times,serif" font-size="14.00">LeftBlockBatch</text>
</g>
<g id="clust9" class="cluster">
<title>cluster_RightBlock</title>
<polygon fill="none" stroke="black" stroke-width="2" points="564,-211 564,-287.5 673,-287.5 673,-211 564,-211"/>
<text text-anchor="middle" x="618.5" y="-270.2" font-family="Times,serif" font-size="14.00">RightBlockBatch</text>
</g>
<!-- data_q -->
<g id="node1" class="node">
<title>data_q</title>
<ellipse fill="none" stroke="orange" cx="70" cy="-677" rx="42.14" ry="18"/>
<text text-anchor="middle" x="70" y="-671.95" font-family="Times,serif" font-size="14.00">data[&#39;U&#39;]</text>
</g>
<!-- forward_q -->
<g id="node2" class="node">
<title>forward_q</title>
<ellipse fill="none" stroke="blue" cx="70" cy="-533.5" rx="46.23" ry="18"/>
<text text-anchor="middle" x="70" y="-528.45" font-family="Times,serif" font-size="14.00">forward()</text>
</g>
<!-- data_q&#45;&gt;forward_q -->
<g id="edge1" class="edge">
<title>data_q&#45;&gt;forward_q</title>
<path fill="none" stroke="black" d="M70,-658.65C70,-634.89 70,-591.91 70,-563.28"/>
<polygon fill="black" stroke="black" points="73.5,-563.51 70,-553.51 66.5,-563.51 73.5,-563.51"/>
</g>
<!-- forward_phi -->
<g id="node3" class="node">
<title>forward_phi</title>
<ellipse fill="none" stroke="blue" cx="224" cy="-460.5" rx="46.23" ry="18"/>
<text text-anchor="middle" x="224" y="-455.45" font-family="Times,serif" font-size="14.00">forward()</text>
</g>
<!-- forward_q&#45;&gt;forward_phi -->
<g id="edge2" class="edge">
<title>forward_q&#45;&gt;forward_phi</title>
<path fill="none" stroke="black" d="M98.97,-519.15C123.2,-507.97 157.99,-491.93 184.73,-479.61"/>
<polygon fill="black" stroke="black" points="185.91,-482.91 193.53,-475.55 182.98,-476.56 185.91,-482.91"/>
</g>
<!-- forward_basis -->
<g id="node5" class="node">
<title>forward_basis</title>
<ellipse fill="none" stroke="blue" cx="262" cy="-332.5" rx="46.23" ry="18"/>
<text text-anchor="middle" x="262" y="-327.45" font-family="Times,serif" font-size="14.00">forward()</text>
</g>
<!-- forward_phi&#45;&gt;forward_basis -->
<g id="edge4" class="edge">
<title>forward_phi&#45;&gt;forward_basis</title>
<path fill="none" stroke="black" d="M229.2,-442.24C235.49,-421.41 246.13,-386.11 253.59,-361.39"/>
<polygon fill="black" stroke="black" points="256.89,-362.58 256.42,-352 250.18,-360.56 256.89,-362.58"/>
</g>
<!-- data_phi -->
<g id="node4" class="node">
<title>data_phi</title>
<ellipse fill="none" stroke="orange" cx="224" cy="-533.5" rx="76.43" ry="18"/>
<text text-anchor="middle" x="224" y="-528.45" font-family="Times,serif" font-size="14.00">data[&#39;w&#39;], data[&#39;b&#39;]</text>
</g>
<!-- data_phi&#45;&gt;forward_phi -->
<g id="edge3" class="edge">
<title>data_phi&#45;&gt;forward_phi</title>
<path fill="none" stroke="black" d="M224,-515.31C224,-507.73 224,-498.6 224,-490.04"/>
<polygon fill="black" stroke="black" points="227.5,-490.04 224,-480.04 220.5,-490.04 227.5,-490.04"/>
</g>
<!-- forward_left -->
<g id="node8" class="node">
<title>forward_left</title>
<ellipse fill="none" stroke="blue" cx="502" cy="-237" rx="46.23" ry="18"/>
<text text-anchor="middle" x="502" y="-231.95" font-family="Times,serif" font-size="14.00">forward()</text>
</g>
<!-- forward_basis&#45;&gt;forward_left -->
<g id="edge6" class="edge">
<title>forward_basis&#45;&gt;forward_left</title>
<path fill="none" stroke="black" d="M294.78,-319.46C317.56,-311.54 348.77,-301.55 377,-295.5 406.32,-289.22 416.53,-299.53 444,-287.5 457.32,-281.67 469.88,-271.73 479.89,-262.28"/>
<polygon fill="black" stroke="black" points="482.3,-264.83 486.91,-255.29 477.36,-259.87 482.3,-264.83"/>
</g>
<!-- forward_right -->
<g id="node9" class="node">
<title>forward_right</title>
<ellipse fill="none" stroke="blue" cx="618" cy="-237" rx="46.23" ry="18"/>
<text text-anchor="middle" x="618" y="-231.95" font-family="Times,serif" font-size="14.00">forward()</text>
</g>
<!-- forward_basis&#45;&gt;forward_right -->
<g id="edge8" class="edge">
<title>forward_basis&#45;&gt;forward_right</title>
<path fill="none" stroke="black" d="M305.48,-325.72C385.39,-315.02 548.53,-292.71 560,-287.5 573.05,-281.57 585.44,-271.8 595.39,-262.5"/>
<polygon fill="black" stroke="black" points="597.71,-265.13 602.38,-255.62 592.8,-260.14 597.71,-265.13"/>
</g>
<!-- forward_tt -->
<g id="node10" class="node">
<title>forward_tt</title>
<ellipse fill="none" stroke="blue" cx="443" cy="-164" rx="46.23" ry="18"/>
<text text-anchor="middle" x="443" y="-158.95" font-family="Times,serif" font-size="14.00">forward()</text>
</g>
<!-- forward_basis&#45;&gt;forward_tt -->
<g id="edge12" class="edge">
<title>forward_basis&#45;&gt;forward_tt</title>
<path fill="none" stroke="black" d="M267.21,-314.33C275.86,-288.55 295.51,-239.79 328,-211 346.24,-194.83 370.88,-183.97 392.66,-176.87"/>
<polygon fill="black" stroke="black" points="393.43,-180.3 401.97,-174.04 391.39,-173.6 393.43,-180.3"/>
</g>
<!-- data_core -->
<g id="node6" class="node">
<title>data_core</title>
<ellipse fill="none" stroke="orange" cx="502" cy="-332.5" rx="44.7" ry="18"/>
<text text-anchor="middle" x="502" y="-327.45" font-family="Times,serif" font-size="14.00">data[&#39;W&#39;]</text>
</g>
<!-- forward_tcore -->
<g id="node7" class="node">
<title>forward_tcore</title>
<ellipse fill="none" stroke="blue" cx="386" cy="-237" rx="46.23" ry="18"/>
<text text-anchor="middle" x="386" y="-231.95" font-family="Times,serif" font-size="14.00">forward()</text>
</g>
<!-- data_core&#45;&gt;forward_tcore -->
<g id="edge13" class="edge">
<title>data_core&#45;&gt;forward_tcore</title>
<path fill="none" stroke="black" d="M481.11,-316.1C469.97,-307.79 456.11,-297.25 444,-287.5 433.58,-279.11 422.35,-269.63 412.57,-261.23"/>
<polygon fill="black" stroke="black" points="415.06,-258.76 405.21,-254.87 410.48,-264.05 415.06,-258.76"/>
</g>
<!-- data_core&#45;&gt;forward_left -->
<g id="edge5" class="edge">
<title>data_core&#45;&gt;forward_left</title>
<path fill="none" stroke="black" d="M502,-314.35C502,-300.99 502,-282.15 502,-266.53"/>
<polygon fill="black" stroke="black" points="505.5,-266.87 502,-256.87 498.5,-266.87 505.5,-266.87"/>
</g>
<!-- data_core&#45;&gt;forward_right -->
<g id="edge7" class="edge">
<title>data_core&#45;&gt;forward_right</title>
<path fill="none" stroke="black" d="M522.89,-316.1C534.03,-307.79 547.89,-297.25 560,-287.5 570.42,-279.11 581.65,-269.63 591.43,-261.23"/>
<polygon fill="black" stroke="black" points="593.52,-264.05 598.79,-254.87 588.94,-258.76 593.52,-264.05"/>
</g>
<!-- forward_tcore&#45;&gt;forward_tt -->
<g id="edge10" class="edge">
<title>forward_tcore&#45;&gt;forward_tt</title>
<path fill="none" stroke="black" d="M399.22,-219.53C406.2,-210.84 414.91,-199.99 422.72,-190.26"/>
<polygon fill="black" stroke="black" points="425.37,-192.55 428.9,-182.56 419.91,-188.17 425.37,-192.55"/>
</g>
<!-- forward_left&#45;&gt;forward_tt -->
<g id="edge9" class="edge">
<title>forward_left&#45;&gt;forward_tt</title>
<path fill="none" stroke="black" d="M488.32,-219.53C481.02,-210.75 471.89,-199.76 463.74,-189.96"/>
<polygon fill="black" stroke="black" points="466.66,-188 457.58,-182.54 461.28,-192.47 466.66,-188"/>
</g>
<!-- forward_right&#45;&gt;forward_tt -->
<g id="edge11" class="edge">
<title>forward_right&#45;&gt;forward_tt</title>
<path fill="none" stroke="black" d="M587.98,-222.84C579,-218.96 569.12,-214.76 560,-211 535.37,-200.85 507.64,-189.93 485.36,-181.27"/>
<polygon fill="black" stroke="black" points="486.89,-178.11 476.3,-177.77 484.36,-184.64 486.89,-178.11"/>
</g>
<!-- forward_model -->
<g id="node11" class="node">
<title>forward_model</title>
<ellipse fill="none" stroke="blue" cx="443" cy="-91" rx="46.23" ry="18"/>
<text text-anchor="middle" x="443" y="-85.95" font-family="Times,serif" font-size="14.00">forward()</text>
</g>
<!-- forward_tt&#45;&gt;forward_model -->
<g id="edge14" class="edge">
<title>forward_tt&#45;&gt;forward_model</title>
<path fill="none" stroke="black" d="M443,-145.81C443,-138.23 443,-129.1 443,-120.54"/>
<polygon fill="black" stroke="black" points="446.5,-120.54 443,-110.54 439.5,-120.54 446.5,-120.54"/>
</g>
<!-- y_pred -->
<g id="node12" class="node">
<title>y_pred</title>
<ellipse fill="none" stroke="black" cx="443" cy="-18" rx="36.51" ry="18"/>
<text text-anchor="middle" x="443" y="-12.95" font-family="Times,serif" font-size="14.00">y_pred</text>
</g>
<!-- forward_model&#45;&gt;y_pred -->
<g id="edge15" class="edge">
<title>forward_model&#45;&gt;y_pred</title>
<path fill="none" stroke="black" d="M443,-72.81C443,-65.23 443,-56.1 443,-47.54"/>
<polygon fill="black" stroke="black" points="446.5,-47.54 443,-37.54 439.5,-47.54 446.5,-47.54"/>
</g>
<!-- x_train -->
<g id="node13" class="node">
<title>x_train</title>
<ellipse fill="none" stroke="black" cx="734" cy="-677" rx="37.02" ry="18"/>
<text text-anchor="middle" x="734" y="-671.95" font-family="Times,serif" font-size="14.00">x_train</text>
</g>
<!-- x_train&#45;&gt;forward_q -->
<g id="edge16" class="edge">
<title>x_train&#45;&gt;forward_q</title>
<path fill="none" stroke="black" d="M696.92,-676C581.99,-675.44 233.6,-669.33 136,-616.5 113.08,-604.1 95.22,-580.07 83.89,-561.22"/>
<polygon fill="black" stroke="black" points="87.02,-559.65 79.03,-552.7 80.94,-563.12 87.02,-559.65"/>
<text text-anchor="middle" x="212.62" y="-627.7" font-family="Times,serif" font-size="14.00">arg</text>
</g>
</g>
</svg>
